%TF.GenerationSoftware,KiCad,Pcbnew,8.0.5*%
%TF.CreationDate,2026-02-16T11:04:40+00:00*%
%TF.ProjectId,CD32 pad,43443332-2070-4616-942e-6b696361645f,rev?*%
%TF.SameCoordinates,Original*%
%TF.FileFunction,Copper,L1,Top*%
%TF.FilePolarity,Positive*%
%FSLAX46Y46*%
G04 Gerber Fmt 4.6, Leading zero omitted, Abs format (unit mm)*
G04 Created by KiCad (PCBNEW 8.0.5) date 2026-02-16 11:04:40*
%MOMM*%
%LPD*%
G01*
G04 APERTURE LIST*
G04 Aperture macros list*
%AMRoundRect*
0 Rectangle with rounded corners*
0 $1 Rounding radius*
0 $2 $3 $4 $5 $6 $7 $8 $9 X,Y pos of 4 corners*
0 Add a 4 corners polygon primitive as box body*
4,1,4,$2,$3,$4,$5,$6,$7,$8,$9,$2,$3,0*
0 Add four circle primitives for the rounded corners*
1,1,$1+$1,$2,$3*
1,1,$1+$1,$4,$5*
1,1,$1+$1,$6,$7*
1,1,$1+$1,$8,$9*
0 Add four rect primitives between the rounded corners*
20,1,$1+$1,$2,$3,$4,$5,0*
20,1,$1+$1,$4,$5,$6,$7,0*
20,1,$1+$1,$6,$7,$8,$9,0*
20,1,$1+$1,$8,$9,$2,$3,0*%
%AMFreePoly0*
4,1,112,0.210476,1.108134,0.334819,1.036344,0.436344,0.934819,0.508134,0.810476,0.545295,0.671789,0.550000,0.600000,0.550000,0.003100,0.912920,-0.037398,1.374502,-0.125110,1.828012,-0.247912,2.270786,-0.405082,2.700224,-0.595697,2.700225,-0.595697,2.776987,-0.649709,2.833303,-0.724799,2.863658,-0.813615,2.865081,-0.907465,2.837434,-0.997162,2.783422,-1.073924,2.708332,-1.130240,
2.619516,-1.160595,2.525666,-1.162018,2.435969,-1.134371,2.245559,-1.040965,2.100000,-0.982925,2.100000,-5.200000,2.097433,-5.239158,2.077164,-5.314805,2.038006,-5.382628,1.982628,-5.438006,1.914805,-5.477164,1.839158,-5.497433,1.760842,-5.497433,1.685195,-5.477164,1.617372,-5.438006,1.561994,-5.382628,1.522836,-5.314805,1.502567,-5.239158,1.500000,-5.200000,1.500000,-0.774045,
1.446675,-0.757388,1.033299,-0.662293,0.613855,-0.599132,0.190806,-0.568277,-0.233363,-0.569909,-0.300000,-0.575284,-0.300000,-5.600000,-0.302567,-5.639158,-0.322836,-5.714805,-0.361994,-5.782628,-0.417372,-5.838006,-0.485195,-5.877164,-0.560842,-5.897433,-0.639158,-5.897433,-0.714805,-5.877164,-0.782628,-5.838006,-0.838006,-5.782628,-0.877164,-5.714805,-0.897433,-5.639158,-0.900000,-5.600000,
-0.900000,-0.642656,-1.075108,-0.670404,-1.487739,-0.768677,-1.891633,-0.898261,-2.284418,-1.058393,-2.663787,-1.248134,-2.700000,-1.269861,-2.700000,-5.000000,-2.702567,-5.039158,-2.722836,-5.114805,-2.761994,-5.182628,-2.817372,-5.238006,-2.885195,-5.277164,-2.960842,-5.297433,-3.039158,-5.297433,-3.114805,-5.277164,-3.182628,-5.238006,-3.238006,-5.182628,-3.277164,-5.114805,-3.297433,-5.039158,
-3.300000,-5.000000,-3.300000,-1.100001,-3.298549,-1.077880,-3.298842,-1.073665,-3.298071,-1.070583,-3.297433,-1.060843,-3.277164,-0.985196,-3.276388,-0.983852,-3.276077,-0.982607,-3.270804,-0.974180,-3.238006,-0.917373,-3.230660,-0.910027,-3.226288,-0.903040,-3.210143,-0.889510,-3.182628,-0.861995,-3.165531,-0.852124,-3.154349,-0.842753,-2.742496,-0.616636,-2.314537,-0.422723,-1.872985,-0.262150,
-1.420433,-0.135863,-0.959540,-0.044602,-0.550000,0.004292,-0.550000,0.600000,-0.545295,0.671789,-0.508134,0.810476,-0.436344,0.934819,-0.334819,1.036344,-0.210476,1.108134,-0.071789,1.145295,0.071789,1.145295,0.210476,1.108134,0.210476,1.108134,$1*%
G04 Aperture macros list end*
%TA.AperFunction,SMDPad,CuDef*%
%ADD10RoundRect,0.150000X-0.150000X0.825000X-0.150000X-0.825000X0.150000X-0.825000X0.150000X0.825000X0*%
%TD*%
%TA.AperFunction,SMDPad,CuDef*%
%ADD11FreePoly0,90.000000*%
%TD*%
%TA.AperFunction,SMDPad,CuDef*%
%ADD12FreePoly0,270.000000*%
%TD*%
%TA.AperFunction,ComponentPad*%
%ADD13R,1.000000X1.000000*%
%TD*%
%TA.AperFunction,ComponentPad*%
%ADD14O,1.000000X1.000000*%
%TD*%
%TA.AperFunction,ComponentPad*%
%ADD15R,1.600000X1.600000*%
%TD*%
%TA.AperFunction,ComponentPad*%
%ADD16C,1.600000*%
%TD*%
%TA.AperFunction,ComponentPad*%
%ADD17C,2.100000*%
%TD*%
%TA.AperFunction,ComponentPad*%
%ADD18C,1.750000*%
%TD*%
%TA.AperFunction,ViaPad*%
%ADD19C,0.600000*%
%TD*%
%TA.AperFunction,Conductor*%
%ADD20C,0.500000*%
%TD*%
%TA.AperFunction,Conductor*%
%ADD21C,0.200000*%
%TD*%
G04 APERTURE END LIST*
D10*
%TO.P,U2,1*%
%TO.N,Net-(J1-Pin_5)*%
X166370000Y-94975000D03*
%TO.P,U2,2*%
%TO.N,+5V*%
X165100000Y-94975000D03*
%TO.P,U2,3*%
%TO.N,Net-(R1-Pad2)*%
X163830000Y-94975000D03*
%TO.P,U2,4*%
X162560000Y-94975000D03*
%TO.P,U2,5*%
%TO.N,GND*%
X161290000Y-94975000D03*
%TO.P,U2,6*%
%TO.N,Net-(U1-~{PL})*%
X160020000Y-94975000D03*
%TO.P,U2,7,GND*%
%TO.N,GND*%
X158750000Y-94975000D03*
%TO.P,U2,8*%
%TO.N,Net-(FB1-Pad2)*%
X158750000Y-99925000D03*
%TO.P,U2,9*%
%TO.N,Net-(U1-Q7)*%
X160020000Y-99925000D03*
%TO.P,U2,10*%
%TO.N,GND*%
X161290000Y-99925000D03*
%TO.P,U2,11*%
%TO.N,Net-(J1-Pin_6)*%
X162560000Y-99925000D03*
%TO.P,U2,12*%
%TO.N,Net-(U1-D6)*%
X163830000Y-99925000D03*
%TO.P,U2,13*%
%TO.N,Net-(R1-Pad2)*%
X165100000Y-99925000D03*
%TO.P,U2,14,VCC*%
%TO.N,+5V*%
X166370000Y-99925000D03*
%TD*%
D11*
%TO.P,SW8,1,1*%
%TO.N,Net-(U1-D4)*%
X178425000Y-96761116D03*
D12*
%TO.P,SW8,2,2*%
%TO.N,GND*%
X185425000Y-96761116D03*
%TD*%
D10*
%TO.P,U1,1,~{PL}*%
%TO.N,Net-(U1-~{PL})*%
X152445000Y-94950000D03*
%TO.P,U1,2,CP*%
%TO.N,Net-(J1-Pin_6)*%
X151175000Y-94950000D03*
%TO.P,U1,3,D4*%
%TO.N,Net-(U1-D4)*%
X149905000Y-94950000D03*
%TO.P,U1,4,D5*%
%TO.N,Net-(U1-D5)*%
X148635000Y-94950000D03*
%TO.P,U1,5,D6*%
%TO.N,Net-(U1-D6)*%
X147365000Y-94950000D03*
%TO.P,U1,6,D7*%
%TO.N,Net-(U1-D7)*%
X146095000Y-94950000D03*
%TO.P,U1,7,~{Q7}*%
%TO.N,unconnected-(U1-~{Q7}-Pad7)*%
X144825000Y-94950000D03*
%TO.P,U1,8,GND*%
%TO.N,GND*%
X143555000Y-94950000D03*
%TO.P,U1,9,Q7*%
%TO.N,Net-(U1-Q7)*%
X143555000Y-99900000D03*
%TO.P,U1,10,DS*%
%TO.N,Net-(U1-DS)*%
X144825000Y-99900000D03*
%TO.P,U1,11,D0*%
%TO.N,Net-(U1-D0)*%
X146095000Y-99900000D03*
%TO.P,U1,12,D1*%
%TO.N,Net-(U1-D1)*%
X147365000Y-99900000D03*
%TO.P,U1,13,D2*%
%TO.N,Net-(U1-D2)*%
X148635000Y-99900000D03*
%TO.P,U1,14,D3*%
%TO.N,Net-(U1-D3)*%
X149905000Y-99900000D03*
%TO.P,U1,15,~{CE}*%
%TO.N,GND*%
X151175000Y-99900000D03*
%TO.P,U1,16,VCC*%
%TO.N,+5V*%
X152445000Y-99900000D03*
%TD*%
D13*
%TO.P,J1,1,Pin_1*%
%TO.N,Net-(J1-Pin_1)*%
X156750000Y-87650000D03*
D14*
%TO.P,J1,2,Pin_2*%
%TO.N,Net-(J1-Pin_2)*%
X158020000Y-87650000D03*
%TO.P,J1,3,Pin_3*%
%TO.N,Net-(J1-Pin_3)*%
X159290000Y-87650000D03*
%TO.P,J1,4,Pin_4*%
%TO.N,Net-(J1-Pin_4)*%
X160560000Y-87650000D03*
%TO.P,J1,5,Pin_5*%
%TO.N,Net-(J1-Pin_5)*%
X161830000Y-87650000D03*
%TO.P,J1,6,Pin_6*%
%TO.N,Net-(J1-Pin_6)*%
X163100000Y-87650000D03*
%TO.P,J1,7,Pin_7*%
%TO.N,+5V*%
X164370000Y-87650000D03*
%TO.P,J1,8,Pin_8*%
%TO.N,GND*%
X165640000Y-87650000D03*
%TO.P,J1,9,Pin_9*%
%TO.N,Net-(J1-Pin_9)*%
X166910000Y-87650000D03*
%TD*%
D11*
%TO.P,SW12,1,1*%
%TO.N,Net-(U1-D1)*%
X159250000Y-109163058D03*
D12*
%TO.P,SW12,2,2*%
%TO.N,GND*%
X166250000Y-109163058D03*
%TD*%
%TO.P,SW1,1,1*%
%TO.N,Net-(J1-Pin_1)*%
X103300000Y-88413884D03*
D11*
%TO.P,SW1,2,2*%
%TO.N,GND*%
X96300000Y-88413884D03*
%TD*%
D12*
%TO.P,SW2,1,1*%
%TO.N,Net-(J1-Pin_2)*%
X103300000Y-105913884D03*
D11*
%TO.P,SW2,2,2*%
%TO.N,GND*%
X96300000Y-105913884D03*
%TD*%
%TO.P,SW7,1,1*%
%TO.N,Net-(U1-D5)*%
X189800000Y-85386116D03*
D12*
%TO.P,SW7,2,2*%
%TO.N,GND*%
X196800000Y-85386116D03*
%TD*%
%TO.P,SW3,1,1*%
%TO.N,Net-(J1-Pin_3)*%
X94350000Y-97163884D03*
D11*
%TO.P,SW3,2,2*%
%TO.N,GND*%
X87350000Y-97163884D03*
%TD*%
%TO.P,SW4,1,1*%
%TO.N,Net-(J1-Pin_4)*%
X105150000Y-97136116D03*
D12*
%TO.P,SW4,2,2*%
%TO.N,GND*%
X112150000Y-97136116D03*
%TD*%
%TO.P,SW11,1,1*%
%TO.N,Net-(U1-D1)*%
X135350000Y-109177767D03*
D11*
%TO.P,SW11,2,2*%
%TO.N,GND*%
X128350000Y-109177767D03*
%TD*%
%TO.P,SW6,1,1*%
%TO.N,Net-(U1-D6)*%
X189775000Y-108136116D03*
D12*
%TO.P,SW6,2,2*%
%TO.N,GND*%
X196775000Y-108136116D03*
%TD*%
D15*
%TO.P,C2,1*%
%TO.N,+5V*%
X170044888Y-92350000D03*
D16*
%TO.P,C2,2*%
%TO.N,GND*%
X172044888Y-92350000D03*
%TD*%
D12*
%TO.P,SW5,1,1*%
%TO.N,Net-(U1-D7)*%
X208275000Y-96788884D03*
D11*
%TO.P,SW5,2,2*%
%TO.N,GND*%
X201275000Y-96788884D03*
%TD*%
D17*
%TO.P,SW9,*%
%TO.N,*%
X175955169Y-92076560D03*
X170998350Y-87119742D03*
D18*
%TO.P,SW9,1,1*%
%TO.N,Net-(U1-D3)*%
X176831981Y-89431981D03*
%TO.P,SW9,2,2*%
%TO.N,GND*%
X173650000Y-86250000D03*
%TD*%
D17*
%TO.P,SW10,*%
%TO.N,*%
X121494579Y-87126812D03*
X116537761Y-92083631D03*
D18*
%TO.P,SW10,1,1*%
%TO.N,Net-(U1-D2)*%
X118850000Y-86250000D03*
%TO.P,SW10,2,2*%
%TO.N,GND*%
X115668019Y-89431981D03*
%TD*%
D19*
%TO.N,GND*%
X105200000Y-84000000D03*
X156000000Y-93900000D03*
X94600000Y-108200000D03*
X161300000Y-101700000D03*
X165200000Y-117000000D03*
X130000000Y-91600000D03*
X141000000Y-107850000D03*
X208600000Y-84400000D03*
X208600000Y-89800000D03*
X141000000Y-104100000D03*
X115400000Y-117000000D03*
X100400000Y-81200000D03*
X84200000Y-98000000D03*
X185000000Y-114000000D03*
X166550000Y-101750000D03*
X156450000Y-89050000D03*
X159800000Y-90400000D03*
X154400000Y-111400000D03*
X190800000Y-100200000D03*
X163900000Y-89450000D03*
X89200000Y-81400000D03*
X149400000Y-104000000D03*
X114400000Y-100000000D03*
X176200000Y-117000000D03*
X126200000Y-87200000D03*
X180000000Y-90000000D03*
X98200000Y-94600000D03*
X190800000Y-92800000D03*
X170400000Y-105400000D03*
X169750000Y-95950000D03*
X155000000Y-85800000D03*
X153800000Y-117000000D03*
X84200000Y-86800000D03*
X122000000Y-94600000D03*
X140650000Y-117000000D03*
X180400000Y-105400000D03*
X134000000Y-117000000D03*
X198200000Y-100200000D03*
X90800000Y-87800000D03*
X136600000Y-87000000D03*
X204400000Y-80600000D03*
X124400000Y-117000000D03*
X189000000Y-80600000D03*
X117800000Y-111600000D03*
X161300000Y-93400000D03*
X139400000Y-111800000D03*
X97400000Y-115400000D03*
X123000000Y-99800000D03*
X174200000Y-99000000D03*
X152200000Y-102400000D03*
X200000000Y-110600000D03*
X205925000Y-104175000D03*
X155400000Y-101600000D03*
X111600000Y-106800000D03*
X198000000Y-80600000D03*
X87400000Y-105000000D03*
X198200000Y-92800000D03*
X155650000Y-91100000D03*
X152550000Y-107850000D03*
X183600000Y-86400000D03*
X135250000Y-99800000D03*
X140600000Y-94000000D03*
X191600000Y-117000000D03*
X141400000Y-101200000D03*
X105400000Y-109200000D03*
X124400000Y-106800000D03*
X164750000Y-91750000D03*
X175400000Y-111050000D03*
X109800000Y-89200000D03*
%TO.N,Net-(U1-~{PL})*%
X153750000Y-94950000D03*
%TO.N,+5V*%
X159650000Y-102950000D03*
X153850000Y-99850000D03*
X168000000Y-96400000D03*
X168000000Y-99950000D03*
%TO.N,Net-(J1-Pin_1)*%
X154685012Y-105390000D03*
%TO.N,Net-(J1-Pin_2)*%
X155297451Y-105970000D03*
%TO.N,Net-(J1-Pin_6)*%
X162550000Y-101750000D03*
X162560000Y-91800000D03*
%TO.N,Net-(J1-Pin_3)*%
X155850000Y-106550000D03*
%TO.N,Net-(J1-Pin_4)*%
X154094216Y-104810000D03*
%TO.N,Net-(R1-Pad2)*%
X163850000Y-92750000D03*
X165050000Y-101750000D03*
%TO.N,Net-(U1-D1)*%
X147350000Y-107150000D03*
X147350000Y-101750000D03*
%TO.N,Net-(U1-D2)*%
X148650000Y-101750000D03*
%TO.N,Net-(U1-D4)*%
X149900000Y-93100000D03*
%TO.N,Net-(U1-D5)*%
X148600000Y-93100000D03*
%TO.N,Net-(U1-D6)*%
X147365000Y-93100000D03*
X163850000Y-101750000D03*
X163850000Y-97720000D03*
%TO.N,Net-(U1-D7)*%
X146100000Y-93100000D03*
%TO.N,Net-(U1-D0)*%
X146100000Y-101750000D03*
%TO.N,Net-(U1-DS)*%
X144825000Y-101725000D03*
%TO.N,Net-(FB1-Pad2)*%
X158750000Y-101750000D03*
%TO.N,Net-(U1-D3)*%
X177700000Y-103650000D03*
X149905000Y-101750000D03*
%TD*%
D20*
%TO.N,GND*%
X158750000Y-94975000D02*
X157075000Y-94975000D01*
X161300000Y-101700000D02*
X161300000Y-99935000D01*
D21*
X161300000Y-99935000D02*
X161290000Y-99925000D01*
D20*
X157075000Y-94975000D02*
X156000000Y-93900000D01*
X161300000Y-93400000D02*
X161300000Y-94965000D01*
D21*
X161300000Y-94965000D02*
X161290000Y-94975000D01*
D20*
X151175000Y-101375000D02*
X152200000Y-102400000D01*
X151175000Y-99900000D02*
X151175000Y-101375000D01*
D21*
%TO.N,Net-(U1-~{PL})*%
X152445000Y-94950000D02*
X152445000Y-95945000D01*
X153750000Y-94950000D02*
X152445000Y-94950000D01*
X152445000Y-95945000D02*
X152915000Y-96415000D01*
X152915000Y-96415000D02*
X159585000Y-96415000D01*
X159585000Y-96415000D02*
X160020000Y-95980000D01*
X160020000Y-95980000D02*
X160020000Y-94975000D01*
D20*
%TO.N,+5V*%
X168000000Y-99950000D02*
X166350000Y-99950000D01*
X152495000Y-99850000D02*
X152445000Y-99900000D01*
X154550000Y-102950000D02*
X159650000Y-102950000D01*
X153850000Y-102250000D02*
X154550000Y-102950000D01*
X165100000Y-95949999D02*
X165100000Y-94975000D01*
D21*
X166395000Y-99950000D02*
X166370000Y-99925000D01*
D20*
X168000000Y-96400000D02*
X165550001Y-96400000D01*
X153850000Y-99850000D02*
X153850000Y-102250000D01*
X153850000Y-99850000D02*
X152495000Y-99850000D01*
X165550001Y-96400000D02*
X165100000Y-95949999D01*
D21*
%TO.N,Net-(J1-Pin_1)*%
X106250000Y-89350000D02*
X105313884Y-88413884D01*
X154685012Y-105390000D02*
X139158629Y-105390000D01*
X137114629Y-103346000D02*
X105796000Y-103346000D01*
X139158629Y-105390000D02*
X137114629Y-103346000D01*
X106250000Y-90900000D02*
X106250000Y-89350000D01*
X105313884Y-88413884D02*
X103350000Y-88413884D01*
X102600000Y-100150000D02*
X102600000Y-94550000D01*
X105796000Y-103346000D02*
X102600000Y-100150000D01*
X102600000Y-94550000D02*
X106250000Y-90900000D01*
%TO.N,Net-(J1-Pin_5)*%
X168500000Y-90600000D02*
X168500000Y-86700000D01*
X166370000Y-92770000D02*
X166370000Y-94975000D01*
X166350000Y-92750000D02*
X168500000Y-90600000D01*
X161830000Y-86720000D02*
X161830000Y-87650000D01*
X166350000Y-92750000D02*
X166370000Y-92770000D01*
X168500000Y-86700000D02*
X167750000Y-85950000D01*
X162600000Y-85950000D02*
X161830000Y-86720000D01*
X167750000Y-85950000D02*
X162600000Y-85950000D01*
%TO.N,Net-(J1-Pin_2)*%
X136875944Y-103673000D02*
X109130238Y-103673000D01*
X108105843Y-105294157D02*
X107486116Y-105913884D01*
X139172944Y-105970000D02*
X136875944Y-103673000D01*
X155297451Y-105970000D02*
X139172944Y-105970000D01*
X108105843Y-104697395D02*
X108105843Y-105294157D01*
X109130238Y-103673000D02*
X108105843Y-104697395D01*
X107486116Y-105913884D02*
X103300000Y-105913884D01*
%TO.N,Net-(J1-Pin_6)*%
X151175000Y-93325000D02*
X151175000Y-94950000D01*
X162560000Y-91800000D02*
X162560000Y-89140000D01*
X163100000Y-88600000D02*
X163100000Y-87650000D01*
X162560000Y-101740000D02*
X162560000Y-99925000D01*
X162550000Y-101750000D02*
X162560000Y-101740000D01*
X161960000Y-92400000D02*
X160400000Y-92400000D01*
X159700000Y-93100000D02*
X151400000Y-93100000D01*
X160400000Y-92400000D02*
X159700000Y-93100000D01*
X162560000Y-89140000D02*
X163100000Y-88600000D01*
X162560000Y-91800000D02*
X161960000Y-92400000D01*
X151400000Y-93100000D02*
X151175000Y-93325000D01*
%TO.N,Net-(J1-Pin_3)*%
X92250000Y-104350000D02*
X96350000Y-100250000D01*
X92250000Y-108850000D02*
X92250000Y-104350000D01*
X108450000Y-104850000D02*
X108450000Y-110750000D01*
X136637258Y-104000000D02*
X109265686Y-104000000D01*
X106750000Y-112450000D02*
X95850000Y-112450000D01*
X155850000Y-106550000D02*
X139187258Y-106550000D01*
X96350000Y-100250000D02*
X96350000Y-97750000D01*
X95763884Y-97163884D02*
X94350000Y-97163884D01*
X108450000Y-110750000D02*
X106750000Y-112450000D01*
X108432843Y-104832843D02*
X108450000Y-104850000D01*
X96350000Y-97750000D02*
X95763884Y-97163884D01*
X109265686Y-104000000D02*
X108432843Y-104832843D01*
X95850000Y-112450000D02*
X92250000Y-108850000D01*
X139187258Y-106550000D02*
X136637258Y-104000000D01*
%TO.N,Net-(J1-Pin_4)*%
X102927000Y-97873000D02*
X103663884Y-97136116D01*
X105931448Y-103019000D02*
X102927000Y-100014552D01*
X154094216Y-104810000D02*
X139144315Y-104810000D01*
X139144315Y-104810000D02*
X137353315Y-103019000D01*
X103663884Y-97136116D02*
X105150000Y-97136116D01*
X102927000Y-100014552D02*
X102927000Y-97873000D01*
X137353315Y-103019000D02*
X105931448Y-103019000D01*
%TO.N,Net-(R1-Pad2)*%
X162560000Y-94975000D02*
X163830000Y-94975000D01*
X163830000Y-92770000D02*
X163850000Y-92750000D01*
X165050000Y-101750000D02*
X165050000Y-99975000D01*
X165050000Y-99975000D02*
X165100000Y-99925000D01*
X163830000Y-94975000D02*
X163830000Y-92770000D01*
%TO.N,Net-(U1-D1)*%
X147365000Y-101735000D02*
X147365000Y-99900000D01*
X149377767Y-109177767D02*
X159235291Y-109177767D01*
X147350000Y-107150000D02*
X145322233Y-109177767D01*
X147350000Y-107150000D02*
X149377767Y-109177767D01*
X147350000Y-101750000D02*
X147365000Y-101735000D01*
X145322233Y-109177767D02*
X135350000Y-109177767D01*
%TO.N,Net-(U1-D2)*%
X118850000Y-102000000D02*
X119542000Y-102692000D01*
X148635000Y-99900000D02*
X148635000Y-101735000D01*
X148650000Y-102850000D02*
X148650000Y-101750000D01*
X148150000Y-103350000D02*
X148650000Y-102850000D01*
X119542000Y-102692000D02*
X137488763Y-102692000D01*
X148635000Y-101735000D02*
X148650000Y-101750000D01*
X137488763Y-102692000D02*
X138146763Y-103350000D01*
X138146763Y-103350000D02*
X148150000Y-103350000D01*
X118850000Y-86250000D02*
X118850000Y-102000000D01*
X148650000Y-101750000D02*
X148747552Y-101750000D01*
%TO.N,Net-(U1-D4)*%
X149905000Y-93105000D02*
X149905000Y-94950000D01*
X164154692Y-96742000D02*
X164412692Y-97000000D01*
X164412692Y-97000000D02*
X170900000Y-97000000D01*
X150542000Y-96742000D02*
X164154692Y-96742000D01*
X149900000Y-93100000D02*
X149905000Y-93105000D01*
X171138884Y-96761116D02*
X178425000Y-96761116D01*
X149905000Y-96105000D02*
X150542000Y-96742000D01*
X170900000Y-97000000D02*
X171138884Y-96761116D01*
X149905000Y-94950000D02*
X149905000Y-96105000D01*
%TO.N,Net-(U1-D5)*%
X173192762Y-102096000D02*
X186979000Y-102096000D01*
X187725000Y-101350000D02*
X187725000Y-85875000D01*
X186979000Y-102096000D02*
X187725000Y-101350000D01*
X164277244Y-97327000D02*
X170664401Y-97327000D01*
X188213884Y-85386116D02*
X189800000Y-85386116D01*
X171647157Y-100550395D02*
X173192762Y-102096000D01*
X148635000Y-94950000D02*
X148635000Y-96135000D01*
X148635000Y-93135000D02*
X148635000Y-94950000D01*
X170664401Y-97327000D02*
X171647157Y-98309756D01*
X148600000Y-93100000D02*
X148635000Y-93135000D01*
X171647157Y-98309756D02*
X171647157Y-100550395D01*
X149569000Y-97069000D02*
X164019244Y-97069000D01*
X187725000Y-85875000D02*
X188213884Y-85386116D01*
X164019244Y-97069000D02*
X164277244Y-97327000D01*
X148635000Y-96135000D02*
X149569000Y-97069000D01*
%TO.N,Net-(U1-D6)*%
X163850000Y-97720000D02*
X163526000Y-97396000D01*
X164300000Y-102750000D02*
X163850000Y-102300000D01*
X163850000Y-97720000D02*
X163916000Y-97654000D01*
X163526000Y-97396000D02*
X148596000Y-97396000D01*
X163850000Y-102300000D02*
X163850000Y-101750000D01*
X189150000Y-108136116D02*
X188486116Y-108136116D01*
X147365000Y-93100000D02*
X147365000Y-94950000D01*
X187725000Y-107375000D02*
X187725000Y-103550000D01*
X186925000Y-102750000D02*
X164300000Y-102750000D01*
X147365000Y-96165000D02*
X147365000Y-94950000D01*
X187725000Y-103550000D02*
X186925000Y-102750000D01*
X189136116Y-108150000D02*
X189150000Y-108136116D01*
X163850000Y-101750000D02*
X163830000Y-101730000D01*
X163830000Y-101730000D02*
X163830000Y-99925000D01*
X148596000Y-97396000D02*
X147365000Y-96165000D01*
X188486116Y-108136116D02*
X187725000Y-107375000D01*
%TO.N,Net-(U1-D7)*%
X170817157Y-98300000D02*
X171320157Y-98803000D01*
X147623000Y-97723000D02*
X160155843Y-97723000D01*
X209300000Y-101700000D02*
X209300000Y-97813884D01*
X146095000Y-93105000D02*
X146095000Y-94950000D01*
X209300000Y-97813884D02*
X208275000Y-96788884D01*
X146095000Y-94950000D02*
X146095000Y-96195000D01*
X146100000Y-93100000D02*
X146095000Y-93105000D01*
X160155843Y-97723000D02*
X160732843Y-98300000D01*
X160732843Y-98300000D02*
X170817157Y-98300000D01*
X208577000Y-102423000D02*
X209300000Y-101700000D01*
X146095000Y-96195000D02*
X147623000Y-97723000D01*
X171320157Y-98803000D02*
X171320157Y-100685843D01*
X173057314Y-102423000D02*
X208577000Y-102423000D01*
X171320157Y-100685843D02*
X173057314Y-102423000D01*
%TO.N,Net-(U1-D0)*%
X146095000Y-99900000D02*
X146095000Y-101745000D01*
X146095000Y-101745000D02*
X146100000Y-101750000D01*
%TO.N,Net-(U1-DS)*%
X144825000Y-101725000D02*
X144825000Y-99900000D01*
%TO.N,Net-(U1-Q7)*%
X160020000Y-98420000D02*
X159650000Y-98050000D01*
X159650000Y-98050000D02*
X144250000Y-98050000D01*
X144250000Y-98050000D02*
X143555000Y-98745000D01*
X160020000Y-99925000D02*
X160020000Y-98420000D01*
X143555000Y-98745000D02*
X143555000Y-99900000D01*
%TO.N,Net-(FB1-Pad2)*%
X158750000Y-101750000D02*
X158750000Y-99925000D01*
%TO.N,Net-(U1-D3)*%
X151660000Y-104200000D02*
X149905000Y-102445000D01*
X149905000Y-102445000D02*
X149905000Y-101750000D01*
X177150000Y-104200000D02*
X151660000Y-104200000D01*
X149905000Y-101750000D02*
X149905000Y-99900000D01*
X177700000Y-103650000D02*
X177150000Y-104200000D01*
%TD*%
%TA.AperFunction,Conductor*%
%TO.N,GND*%
G36*
X103558363Y-79170185D02*
G01*
X103579005Y-79186819D01*
X112849500Y-88457314D01*
X112942686Y-88550500D01*
X113041521Y-88607563D01*
X113044076Y-88609038D01*
X113056814Y-88616392D01*
X113184108Y-88650500D01*
X113184110Y-88650500D01*
X113199138Y-88650500D01*
X113266177Y-88670185D01*
X113286819Y-88686819D01*
X113600000Y-89000000D01*
X117413181Y-85186819D01*
X117474504Y-85153334D01*
X117500862Y-85150500D01*
X118065378Y-85150500D01*
X118132417Y-85170185D01*
X118178172Y-85222989D01*
X118188116Y-85292147D01*
X118159091Y-85355703D01*
X118148916Y-85366137D01*
X118014683Y-85488505D01*
X117888981Y-85654961D01*
X117796007Y-85841677D01*
X117781404Y-85893003D01*
X117752030Y-85996243D01*
X117738923Y-86042308D01*
X117719678Y-86249999D01*
X117719678Y-86250000D01*
X117738923Y-86457691D01*
X117738923Y-86457693D01*
X117738924Y-86457696D01*
X117784487Y-86617833D01*
X117796007Y-86658322D01*
X117888847Y-86844768D01*
X117888981Y-86845038D01*
X118014682Y-87011493D01*
X118168829Y-87152016D01*
X118346172Y-87261823D01*
X118420293Y-87290537D01*
X118475695Y-87333109D01*
X118499286Y-87398876D01*
X118499500Y-87406164D01*
X118499500Y-102046144D01*
X118514065Y-102100501D01*
X118514065Y-102100502D01*
X118523384Y-102135284D01*
X118523385Y-102135286D01*
X118569527Y-102215208D01*
X118569531Y-102215213D01*
X118811137Y-102456819D01*
X118844622Y-102518142D01*
X118839638Y-102587834D01*
X118797766Y-102643767D01*
X118732302Y-102668184D01*
X118723456Y-102668500D01*
X106127992Y-102668500D01*
X106060953Y-102648815D01*
X106040311Y-102632181D01*
X103313819Y-99905689D01*
X103280334Y-99844366D01*
X103277500Y-99818008D01*
X103277500Y-98069543D01*
X103297185Y-98002504D01*
X103313819Y-97981862D01*
X103498616Y-97797065D01*
X103704189Y-97591491D01*
X103765510Y-97558008D01*
X103835201Y-97562992D01*
X103890241Y-97603686D01*
X103926616Y-97651091D01*
X103929228Y-97654495D01*
X104031620Y-97756887D01*
X104031624Y-97756890D01*
X104031626Y-97756892D01*
X104084543Y-97797496D01*
X104209959Y-97869904D01*
X104209964Y-97869906D01*
X104209970Y-97869909D01*
X104229881Y-97878156D01*
X104271579Y-97895428D01*
X104411462Y-97932910D01*
X104469732Y-97940581D01*
X104473785Y-97941115D01*
X104477591Y-97941616D01*
X104805611Y-97941616D01*
X104872650Y-97961301D01*
X104918405Y-98014105D01*
X104928082Y-98046208D01*
X104979049Y-98367840D01*
X104982852Y-98387047D01*
X105091605Y-98843681D01*
X105091788Y-98844447D01*
X105095436Y-98857519D01*
X105100000Y-98890850D01*
X105100000Y-100700000D01*
X112200000Y-100700000D01*
X112200000Y-98884556D01*
X112205640Y-98847584D01*
X112215579Y-98815763D01*
X112220687Y-98796897D01*
X112326102Y-98338671D01*
X112329747Y-98319483D01*
X112370831Y-98046652D01*
X112400279Y-97983291D01*
X112459307Y-97945909D01*
X112493449Y-97941116D01*
X112778223Y-97941116D01*
X112778223Y-97941115D01*
X112236319Y-97399211D01*
X112202834Y-97337888D01*
X112200000Y-97311530D01*
X112200000Y-97308702D01*
X112219685Y-97241663D01*
X112272489Y-97195908D01*
X112341647Y-97185964D01*
X112405203Y-97214989D01*
X112411681Y-97221021D01*
X113068816Y-97878156D01*
X113068818Y-97878157D01*
X113089781Y-97869475D01*
X113089806Y-97869462D01*
X113215202Y-97797066D01*
X113215204Y-97797065D01*
X113268018Y-97756539D01*
X113268025Y-97756533D01*
X113370417Y-97654141D01*
X113370423Y-97654134D01*
X113410946Y-97601324D01*
X113483355Y-97475905D01*
X113483360Y-97475895D01*
X113508827Y-97414411D01*
X113546311Y-97274521D01*
X113554999Y-97208532D01*
X113555000Y-97208518D01*
X113555000Y-97063713D01*
X113554999Y-97063699D01*
X113546311Y-96997710D01*
X113508827Y-96857820D01*
X113483360Y-96796336D01*
X113483355Y-96796326D01*
X113410946Y-96670907D01*
X113370423Y-96618097D01*
X113370417Y-96618090D01*
X113268025Y-96515698D01*
X113268018Y-96515692D01*
X113215208Y-96475169D01*
X113089792Y-96402762D01*
X113089781Y-96402756D01*
X113068817Y-96394073D01*
X112411681Y-97051211D01*
X112350358Y-97084696D01*
X112280667Y-97079712D01*
X112224733Y-97037841D01*
X112200316Y-96972376D01*
X112200000Y-96963530D01*
X112200000Y-96960701D01*
X112219685Y-96893662D01*
X112236319Y-96873020D01*
X112778223Y-96331116D01*
X112493963Y-96331116D01*
X112426924Y-96311431D01*
X112381169Y-96258627D01*
X112371491Y-96226523D01*
X112320456Y-95904462D01*
X112316663Y-95885307D01*
X112207729Y-95427916D01*
X112204563Y-95416568D01*
X112200000Y-95383238D01*
X112200000Y-93500000D01*
X112100000Y-93500000D01*
X105100000Y-93500000D01*
X105100000Y-95385998D01*
X105094360Y-95422969D01*
X105083945Y-95456310D01*
X105083941Y-95456326D01*
X105078824Y-95475225D01*
X105070566Y-95511121D01*
X104973410Y-95933449D01*
X104969757Y-95952671D01*
X104956901Y-96038050D01*
X104932442Y-96200484D01*
X104928738Y-96225080D01*
X104899290Y-96288441D01*
X104840262Y-96325823D01*
X104806120Y-96330616D01*
X104477583Y-96330616D01*
X104411465Y-96339321D01*
X104271575Y-96376805D01*
X104209970Y-96402322D01*
X104209960Y-96402327D01*
X104084547Y-96474733D01*
X104084545Y-96474734D01*
X104084543Y-96474736D01*
X104076845Y-96480643D01*
X104031620Y-96515344D01*
X103929228Y-96617736D01*
X103919960Y-96629815D01*
X103888620Y-96670659D01*
X103888619Y-96670661D01*
X103888613Y-96670668D01*
X103858045Y-96723616D01*
X103807478Y-96771832D01*
X103750658Y-96785616D01*
X103617740Y-96785616D01*
X103536331Y-96807428D01*
X103536332Y-96807429D01*
X103528594Y-96809502D01*
X103528590Y-96809504D01*
X103448678Y-96855642D01*
X103448669Y-96855649D01*
X103162181Y-97142137D01*
X103100858Y-97175622D01*
X103031166Y-97170638D01*
X102975233Y-97128766D01*
X102950816Y-97063302D01*
X102950500Y-97054456D01*
X102950500Y-94746544D01*
X102970185Y-94679505D01*
X102986819Y-94658863D01*
X104758575Y-92887107D01*
X105562053Y-92083629D01*
X115232293Y-92083629D01*
X115232293Y-92083632D01*
X115252125Y-92310317D01*
X115252127Y-92310328D01*
X115311019Y-92530119D01*
X115311022Y-92530128D01*
X115407192Y-92736363D01*
X115407193Y-92736365D01*
X115537715Y-92922772D01*
X115698619Y-93083676D01*
X115698622Y-93083678D01*
X115885027Y-93214199D01*
X116091265Y-93310370D01*
X116091270Y-93310371D01*
X116091272Y-93310372D01*
X116113280Y-93316269D01*
X116311069Y-93369266D01*
X116472991Y-93383432D01*
X116537759Y-93389099D01*
X116537761Y-93389099D01*
X116537763Y-93389099D01*
X116594434Y-93384140D01*
X116764453Y-93369266D01*
X116984257Y-93310370D01*
X117190495Y-93214199D01*
X117376900Y-93083678D01*
X117537808Y-92922770D01*
X117668329Y-92736365D01*
X117764500Y-92530127D01*
X117823396Y-92310323D01*
X117840395Y-92116015D01*
X117843229Y-92083632D01*
X117843229Y-92083629D01*
X117832178Y-91957314D01*
X117823396Y-91856939D01*
X117778677Y-91690046D01*
X117764502Y-91637142D01*
X117764499Y-91637133D01*
X117742125Y-91589152D01*
X117668329Y-91430897D01*
X117537808Y-91244492D01*
X117537806Y-91244489D01*
X117376902Y-91083585D01*
X117190495Y-90953063D01*
X117190493Y-90953062D01*
X116984258Y-90856892D01*
X116984249Y-90856889D01*
X116764458Y-90797997D01*
X116764454Y-90797996D01*
X116764453Y-90797996D01*
X116764452Y-90797995D01*
X116764447Y-90797995D01*
X116537763Y-90778163D01*
X116537759Y-90778163D01*
X116311074Y-90797995D01*
X116311063Y-90797997D01*
X116091272Y-90856889D01*
X116091263Y-90856892D01*
X115885028Y-90953062D01*
X115885026Y-90953063D01*
X115698619Y-91083585D01*
X115537715Y-91244489D01*
X115407193Y-91430896D01*
X115407192Y-91430898D01*
X115311022Y-91637133D01*
X115311019Y-91637142D01*
X115252127Y-91856933D01*
X115252125Y-91856944D01*
X115232293Y-92083629D01*
X105562053Y-92083629D01*
X106530470Y-91115212D01*
X106576614Y-91035288D01*
X106600500Y-90946143D01*
X106600500Y-90853856D01*
X106600500Y-89306980D01*
X114549781Y-89306980D01*
X114549782Y-89306981D01*
X115189051Y-89306981D01*
X115173019Y-89366813D01*
X115173019Y-89497149D01*
X115189051Y-89556981D01*
X114549782Y-89556981D01*
X114557436Y-89639586D01*
X114614491Y-89840114D01*
X114614497Y-89840129D01*
X114707423Y-90026749D01*
X114707428Y-90026757D01*
X114833073Y-90193138D01*
X114987149Y-90333596D01*
X114987151Y-90333598D01*
X115164411Y-90443352D01*
X115164417Y-90443355D01*
X115358830Y-90518670D01*
X115543019Y-90553100D01*
X115543019Y-89910948D01*
X115602851Y-89926981D01*
X115733187Y-89926981D01*
X115793019Y-89910948D01*
X115793019Y-90553100D01*
X115977206Y-90518670D01*
X115977207Y-90518670D01*
X116171620Y-90443355D01*
X116171626Y-90443352D01*
X116348886Y-90333598D01*
X116348888Y-90333596D01*
X116502964Y-90193138D01*
X116628609Y-90026757D01*
X116628614Y-90026749D01*
X116721540Y-89840129D01*
X116721546Y-89840114D01*
X116778601Y-89639586D01*
X116786256Y-89556981D01*
X116146987Y-89556981D01*
X116163019Y-89497149D01*
X116163019Y-89366813D01*
X116146987Y-89306981D01*
X116786256Y-89306981D01*
X116786256Y-89306980D01*
X116778601Y-89224375D01*
X116721546Y-89023847D01*
X116721540Y-89023832D01*
X116628614Y-88837212D01*
X116628609Y-88837204D01*
X116502964Y-88670823D01*
X116348888Y-88530365D01*
X116348886Y-88530363D01*
X116171626Y-88420609D01*
X116171620Y-88420606D01*
X115977206Y-88345291D01*
X115793019Y-88310860D01*
X115793019Y-88953013D01*
X115733187Y-88936981D01*
X115602851Y-88936981D01*
X115543019Y-88953013D01*
X115543019Y-88310860D01*
X115358831Y-88345291D01*
X115358830Y-88345291D01*
X115164417Y-88420606D01*
X115164411Y-88420609D01*
X114987151Y-88530363D01*
X114987149Y-88530365D01*
X114833073Y-88670823D01*
X114707428Y-88837204D01*
X114707423Y-88837212D01*
X114614497Y-89023832D01*
X114614491Y-89023847D01*
X114557436Y-89224375D01*
X114549781Y-89306980D01*
X106600500Y-89306980D01*
X106600500Y-89303856D01*
X106576614Y-89214712D01*
X106574285Y-89210678D01*
X106542673Y-89155924D01*
X106530472Y-89134791D01*
X106530468Y-89134786D01*
X105529097Y-88133415D01*
X105529092Y-88133411D01*
X105449172Y-88087270D01*
X105437369Y-88084107D01*
X105437368Y-88084107D01*
X105398697Y-88073745D01*
X105360028Y-88063384D01*
X105360027Y-88063384D01*
X104699342Y-88063384D01*
X104632303Y-88043699D01*
X104591955Y-88001384D01*
X104561386Y-87948436D01*
X104561383Y-87948433D01*
X104561380Y-87948427D01*
X104520776Y-87895510D01*
X104520774Y-87895508D01*
X104520771Y-87895504D01*
X104418379Y-87793112D01*
X104400699Y-87779546D01*
X104365457Y-87752504D01*
X104240041Y-87680096D01*
X104240039Y-87680095D01*
X104240029Y-87680090D01*
X104178424Y-87654573D01*
X104178422Y-87654572D01*
X104178421Y-87654572D01*
X104038538Y-87617090D01*
X104038537Y-87617089D01*
X104038534Y-87617089D01*
X103972416Y-87608384D01*
X103972409Y-87608384D01*
X103644389Y-87608384D01*
X103577350Y-87588699D01*
X103531595Y-87535895D01*
X103521917Y-87503791D01*
X103506447Y-87406164D01*
X103470951Y-87182160D01*
X103467148Y-87162953D01*
X103358214Y-86705560D01*
X103352951Y-86686701D01*
X103309983Y-86552776D01*
X103209311Y-86238991D01*
X103207465Y-86233914D01*
X103200000Y-86191540D01*
X103200000Y-84800000D01*
X103100000Y-84800000D01*
X96100000Y-84800000D01*
X96100000Y-87355721D01*
X96098618Y-87374184D01*
X96079169Y-87503347D01*
X96049721Y-87566709D01*
X95990693Y-87604091D01*
X95956551Y-87608884D01*
X95671776Y-87608884D01*
X96063681Y-88000788D01*
X96097166Y-88062111D01*
X96100000Y-88088469D01*
X96100000Y-88091299D01*
X96080315Y-88158338D01*
X96027511Y-88204093D01*
X95958353Y-88214037D01*
X95894797Y-88185012D01*
X95888319Y-88178980D01*
X95381180Y-87671841D01*
X95360215Y-87680525D01*
X95360210Y-87680528D01*
X95234791Y-87752937D01*
X95181981Y-87793460D01*
X95181974Y-87793466D01*
X95079582Y-87895858D01*
X95079576Y-87895865D01*
X95039053Y-87948675D01*
X94966644Y-88074094D01*
X94966639Y-88074104D01*
X94941172Y-88135588D01*
X94903688Y-88275478D01*
X94895000Y-88341467D01*
X94895000Y-88486300D01*
X94903688Y-88552289D01*
X94941172Y-88692179D01*
X94966639Y-88753663D01*
X94966644Y-88753673D01*
X95039053Y-88879092D01*
X95079576Y-88931902D01*
X95079582Y-88931909D01*
X95181974Y-89034301D01*
X95181981Y-89034307D01*
X95234795Y-89074833D01*
X95234797Y-89074834D01*
X95360193Y-89147230D01*
X95360214Y-89147241D01*
X95381180Y-89155924D01*
X95381181Y-89155924D01*
X95888319Y-88648787D01*
X95949642Y-88615302D01*
X96019334Y-88620286D01*
X96075267Y-88662158D01*
X96099684Y-88727622D01*
X96100000Y-88736468D01*
X96100000Y-88739298D01*
X96080315Y-88806337D01*
X96063681Y-88826979D01*
X95671776Y-89218883D01*
X95671777Y-89218884D01*
X95956037Y-89218884D01*
X96023076Y-89238569D01*
X96068831Y-89291373D01*
X96078509Y-89323477D01*
X96098472Y-89449456D01*
X96100000Y-89468863D01*
X96100000Y-92000000D01*
X103200000Y-92000000D01*
X103200000Y-90633185D01*
X103208819Y-90587259D01*
X103211192Y-90581306D01*
X103219318Y-90560928D01*
X103225868Y-90542475D01*
X103233154Y-90519152D01*
X103334884Y-90193475D01*
X103366059Y-90093674D01*
X103371176Y-90074775D01*
X103476588Y-89616557D01*
X103480244Y-89597321D01*
X103521262Y-89324918D01*
X103550710Y-89261559D01*
X103609738Y-89224177D01*
X103643880Y-89219384D01*
X103972402Y-89219384D01*
X103972409Y-89219384D01*
X104038538Y-89210678D01*
X104178421Y-89173196D01*
X104240041Y-89147672D01*
X104365457Y-89075264D01*
X104418374Y-89034660D01*
X104520776Y-88932258D01*
X104561380Y-88879341D01*
X104585708Y-88837204D01*
X104591955Y-88826384D01*
X104642522Y-88778168D01*
X104699342Y-88764384D01*
X105117340Y-88764384D01*
X105184379Y-88784069D01*
X105205021Y-88800703D01*
X105863181Y-89458863D01*
X105896666Y-89520186D01*
X105899500Y-89546544D01*
X105899500Y-90703456D01*
X105879815Y-90770495D01*
X105863181Y-90791137D01*
X102319531Y-94334786D01*
X102319529Y-94334789D01*
X102278641Y-94405611D01*
X102273387Y-94414710D01*
X102273384Y-94414717D01*
X102258803Y-94469137D01*
X102249500Y-94503856D01*
X102249500Y-100196144D01*
X102269270Y-100269925D01*
X102269270Y-100269926D01*
X102273386Y-100285288D01*
X102319527Y-100365208D01*
X102319529Y-100365211D01*
X102319530Y-100365212D01*
X105580788Y-103626470D01*
X105580789Y-103626471D01*
X105580791Y-103626472D01*
X105587716Y-103630470D01*
X105660712Y-103672614D01*
X105749856Y-103696500D01*
X105749857Y-103696500D01*
X105842144Y-103696500D01*
X108311695Y-103696500D01*
X108378734Y-103716185D01*
X108424489Y-103768989D01*
X108434433Y-103838147D01*
X108405408Y-103901703D01*
X108399376Y-103908181D01*
X107825374Y-104482181D01*
X107825372Y-104482184D01*
X107801586Y-104523384D01*
X107801585Y-104523386D01*
X107779229Y-104562106D01*
X107755343Y-104651251D01*
X107755343Y-105097613D01*
X107735658Y-105164652D01*
X107719024Y-105185294D01*
X107377253Y-105527065D01*
X107315930Y-105560550D01*
X107289572Y-105563384D01*
X104699342Y-105563384D01*
X104632303Y-105543699D01*
X104591955Y-105501384D01*
X104561386Y-105448436D01*
X104561383Y-105448433D01*
X104561380Y-105448427D01*
X104520776Y-105395510D01*
X104520774Y-105395508D01*
X104520771Y-105395504D01*
X104418379Y-105293112D01*
X104418374Y-105293108D01*
X104365457Y-105252504D01*
X104354697Y-105246292D01*
X104240039Y-105180095D01*
X104240029Y-105180090D01*
X104178424Y-105154573D01*
X104178422Y-105154572D01*
X104178421Y-105154572D01*
X104038538Y-105117090D01*
X104038537Y-105117089D01*
X104038534Y-105117089D01*
X103972416Y-105108384D01*
X103972409Y-105108384D01*
X103644389Y-105108384D01*
X103577350Y-105088699D01*
X103531595Y-105035895D01*
X103521917Y-105003791D01*
X103501379Y-104874184D01*
X103470951Y-104682160D01*
X103467148Y-104662953D01*
X103358214Y-104205560D01*
X103352951Y-104186701D01*
X103264876Y-103912181D01*
X103209311Y-103738991D01*
X103207465Y-103733914D01*
X103200000Y-103691540D01*
X103200000Y-102300000D01*
X103100000Y-102300000D01*
X96100000Y-102300000D01*
X96100000Y-104855721D01*
X96098618Y-104874184D01*
X96079169Y-105003347D01*
X96049721Y-105066709D01*
X95990693Y-105104091D01*
X95956551Y-105108884D01*
X95671776Y-105108884D01*
X96063681Y-105500788D01*
X96097166Y-105562111D01*
X96100000Y-105588469D01*
X96100000Y-105591299D01*
X96080315Y-105658338D01*
X96027511Y-105704093D01*
X95958353Y-105714037D01*
X95894797Y-105685012D01*
X95888319Y-105678980D01*
X95381180Y-105171841D01*
X95360215Y-105180525D01*
X95360210Y-105180528D01*
X95234791Y-105252937D01*
X95181981Y-105293460D01*
X95181974Y-105293466D01*
X95079582Y-105395858D01*
X95079576Y-105395865D01*
X95039053Y-105448675D01*
X94966644Y-105574094D01*
X94966639Y-105574104D01*
X94941172Y-105635588D01*
X94903688Y-105775478D01*
X94895000Y-105841467D01*
X94895000Y-105986300D01*
X94903688Y-106052289D01*
X94941172Y-106192179D01*
X94966639Y-106253663D01*
X94966644Y-106253673D01*
X95039053Y-106379092D01*
X95079576Y-106431902D01*
X95079582Y-106431909D01*
X95181974Y-106534301D01*
X95181981Y-106534307D01*
X95234795Y-106574833D01*
X95234797Y-106574834D01*
X95360193Y-106647230D01*
X95360214Y-106647241D01*
X95381180Y-106655924D01*
X95381181Y-106655924D01*
X95888319Y-106148787D01*
X95949642Y-106115302D01*
X96019334Y-106120286D01*
X96075267Y-106162158D01*
X96099684Y-106227622D01*
X96100000Y-106236468D01*
X96100000Y-106239298D01*
X96080315Y-106306337D01*
X96063681Y-106326979D01*
X95671776Y-106718883D01*
X95671777Y-106718884D01*
X95956037Y-106718884D01*
X96023076Y-106738569D01*
X96068831Y-106791373D01*
X96078509Y-106823477D01*
X96098472Y-106949456D01*
X96100000Y-106968863D01*
X96100000Y-109500000D01*
X103200000Y-109500000D01*
X103200000Y-108133185D01*
X103208819Y-108087259D01*
X103211192Y-108081306D01*
X103219318Y-108060928D01*
X103225868Y-108042475D01*
X103230949Y-108026211D01*
X103330324Y-107708074D01*
X103366059Y-107593674D01*
X103371176Y-107574775D01*
X103476588Y-107116557D01*
X103480244Y-107097321D01*
X103521262Y-106824918D01*
X103550710Y-106761559D01*
X103609738Y-106724177D01*
X103643880Y-106719384D01*
X103972402Y-106719384D01*
X103972409Y-106719384D01*
X104038538Y-106710678D01*
X104178421Y-106673196D01*
X104240041Y-106647672D01*
X104365457Y-106575264D01*
X104418374Y-106534660D01*
X104520776Y-106432258D01*
X104561380Y-106379341D01*
X104591955Y-106326384D01*
X104642522Y-106278168D01*
X104699342Y-106264384D01*
X107532258Y-106264384D01*
X107532260Y-106264384D01*
X107621404Y-106240498D01*
X107640737Y-106229336D01*
X107701328Y-106194354D01*
X107887820Y-106007861D01*
X107949142Y-105974377D01*
X108018833Y-105979361D01*
X108074767Y-106021232D01*
X108099184Y-106086697D01*
X108099500Y-106095543D01*
X108099500Y-110553456D01*
X108079815Y-110620495D01*
X108063181Y-110641137D01*
X106641137Y-112063181D01*
X106579814Y-112096666D01*
X106553456Y-112099500D01*
X96046544Y-112099500D01*
X95979505Y-112079815D01*
X95958863Y-112063181D01*
X92636819Y-108741137D01*
X92603334Y-108679814D01*
X92600500Y-108653456D01*
X92600500Y-104546544D01*
X92620185Y-104479505D01*
X92636819Y-104458863D01*
X94626545Y-102469137D01*
X96630470Y-100465212D01*
X96676614Y-100385288D01*
X96681993Y-100365213D01*
X96686364Y-100348903D01*
X96693431Y-100322524D01*
X96700500Y-100296144D01*
X96700500Y-97703856D01*
X96676614Y-97614712D01*
X96665058Y-97594696D01*
X96630470Y-97534788D01*
X95979096Y-96883414D01*
X95979095Y-96883413D01*
X95979092Y-96883411D01*
X95899174Y-96837271D01*
X95899173Y-96837270D01*
X95899172Y-96837270D01*
X95810028Y-96813384D01*
X95810027Y-96813384D01*
X95749342Y-96813384D01*
X95682303Y-96793699D01*
X95641955Y-96751384D01*
X95611386Y-96698436D01*
X95611383Y-96698433D01*
X95611380Y-96698427D01*
X95570776Y-96645510D01*
X95570774Y-96645508D01*
X95570771Y-96645504D01*
X95468379Y-96543112D01*
X95468374Y-96543108D01*
X95415457Y-96502504D01*
X95290041Y-96430096D01*
X95290039Y-96430095D01*
X95290029Y-96430090D01*
X95228424Y-96404573D01*
X95228422Y-96404572D01*
X95228421Y-96404572D01*
X95088538Y-96367090D01*
X95088537Y-96367089D01*
X95088534Y-96367089D01*
X95022416Y-96358384D01*
X95022409Y-96358384D01*
X94694389Y-96358384D01*
X94627350Y-96338699D01*
X94581595Y-96285895D01*
X94571917Y-96253791D01*
X94569777Y-96240286D01*
X94520951Y-95932160D01*
X94517148Y-95912953D01*
X94408214Y-95455560D01*
X94402951Y-95436701D01*
X94365569Y-95320185D01*
X94259313Y-94988997D01*
X94252616Y-94970578D01*
X94209176Y-94864026D01*
X94200000Y-94817214D01*
X94200000Y-93500000D01*
X94100000Y-93500000D01*
X87100000Y-93500000D01*
X87100000Y-96234884D01*
X87080315Y-96301923D01*
X87027511Y-96347678D01*
X86976000Y-96358884D01*
X86721776Y-96358884D01*
X87063681Y-96700788D01*
X87097166Y-96762111D01*
X87100000Y-96788469D01*
X87100000Y-96791299D01*
X87080315Y-96858338D01*
X87027511Y-96904093D01*
X86958353Y-96914037D01*
X86894797Y-96885012D01*
X86888319Y-96878980D01*
X86431180Y-96421841D01*
X86410215Y-96430525D01*
X86410210Y-96430528D01*
X86284791Y-96502937D01*
X86231981Y-96543460D01*
X86231974Y-96543466D01*
X86129582Y-96645858D01*
X86129576Y-96645865D01*
X86089053Y-96698675D01*
X86016644Y-96824094D01*
X86016639Y-96824104D01*
X85991172Y-96885588D01*
X85953688Y-97025478D01*
X85945000Y-97091467D01*
X85945000Y-97236300D01*
X85953688Y-97302289D01*
X85991172Y-97442179D01*
X86016639Y-97503663D01*
X86016644Y-97503673D01*
X86089053Y-97629092D01*
X86129576Y-97681902D01*
X86129582Y-97681909D01*
X86231974Y-97784301D01*
X86231981Y-97784307D01*
X86284795Y-97824833D01*
X86284797Y-97824834D01*
X86410193Y-97897230D01*
X86410214Y-97897241D01*
X86431180Y-97905924D01*
X86431181Y-97905924D01*
X86888319Y-97448787D01*
X86949642Y-97415302D01*
X87019334Y-97420286D01*
X87075267Y-97462158D01*
X87099684Y-97527622D01*
X87100000Y-97536468D01*
X87100000Y-97539298D01*
X87080315Y-97606337D01*
X87063681Y-97626979D01*
X86721776Y-97968883D01*
X86721777Y-97968884D01*
X86976000Y-97968884D01*
X87043039Y-97988569D01*
X87088794Y-98041373D01*
X87100000Y-98092884D01*
X87100000Y-100700000D01*
X88288405Y-100700000D01*
X88318480Y-100703703D01*
X88353942Y-100712568D01*
X88353951Y-100712570D01*
X88377298Y-100714627D01*
X88382607Y-100715210D01*
X88410505Y-100718883D01*
X88410508Y-100718884D01*
X88420138Y-100718884D01*
X88431024Y-100719363D01*
X88448605Y-100720912D01*
X88448619Y-100720912D01*
X88473598Y-100719181D01*
X88482173Y-100718884D01*
X90757974Y-100718884D01*
X90814473Y-100700079D01*
X90818899Y-100700000D01*
X91011531Y-100700000D01*
X91057331Y-100713448D01*
X91058990Y-100709445D01*
X91081777Y-100718884D01*
X92389499Y-100718884D01*
X92455486Y-100710197D01*
X92477777Y-100704225D01*
X92509871Y-100700000D01*
X94200000Y-100700000D01*
X94200000Y-99508580D01*
X94208819Y-99462652D01*
X94210922Y-99457379D01*
X94269318Y-99310928D01*
X94269323Y-99310914D01*
X94275865Y-99292485D01*
X94345836Y-99068482D01*
X94416059Y-98843674D01*
X94421176Y-98824775D01*
X94526588Y-98366557D01*
X94530244Y-98347321D01*
X94571262Y-98074918D01*
X94600710Y-98011559D01*
X94659738Y-97974177D01*
X94693880Y-97969384D01*
X95022402Y-97969384D01*
X95022409Y-97969384D01*
X95088538Y-97960678D01*
X95228421Y-97923196D01*
X95290041Y-97897672D01*
X95415457Y-97825264D01*
X95468374Y-97784660D01*
X95570776Y-97682258D01*
X95578393Y-97672330D01*
X95634814Y-97631128D01*
X95704560Y-97626968D01*
X95764451Y-97660133D01*
X95963181Y-97858863D01*
X95996666Y-97920186D01*
X95999500Y-97946544D01*
X95999500Y-100053456D01*
X95979815Y-100120495D01*
X95963181Y-100141137D01*
X91969532Y-104134785D01*
X91969528Y-104134791D01*
X91939558Y-104186701D01*
X91923387Y-104214709D01*
X91923386Y-104214712D01*
X91899500Y-104303856D01*
X91899500Y-108896144D01*
X91911958Y-108942638D01*
X91916959Y-108961301D01*
X91923386Y-108985289D01*
X91923387Y-108985290D01*
X91969527Y-109065208D01*
X91969529Y-109065211D01*
X91969530Y-109065212D01*
X95634788Y-112730470D01*
X95714712Y-112776614D01*
X95803856Y-112800500D01*
X95803858Y-112800500D01*
X106796142Y-112800500D01*
X106796144Y-112800500D01*
X106885288Y-112776614D01*
X106965212Y-112730470D01*
X108730470Y-110965212D01*
X108776614Y-110885288D01*
X108789108Y-110838658D01*
X108800500Y-110796144D01*
X108800500Y-105012230D01*
X108820185Y-104945191D01*
X108836819Y-104924549D01*
X109374549Y-104386819D01*
X109435872Y-104353334D01*
X109462230Y-104350500D01*
X136440714Y-104350500D01*
X136507753Y-104370185D01*
X136528395Y-104386819D01*
X138972046Y-106830470D01*
X139027465Y-106862466D01*
X139027467Y-106862467D01*
X139051967Y-106876613D01*
X139051969Y-106876613D01*
X139051970Y-106876614D01*
X139141114Y-106900500D01*
X139141115Y-106900500D01*
X139233402Y-106900500D01*
X146686203Y-106900500D01*
X146753242Y-106920185D01*
X146798997Y-106972989D01*
X146809141Y-107040685D01*
X146801685Y-107097328D01*
X146794750Y-107150000D01*
X146794750Y-107158128D01*
X146791456Y-107158128D01*
X146782192Y-107212588D01*
X146758439Y-107245877D01*
X145213370Y-108790948D01*
X145152047Y-108824433D01*
X145125689Y-108827267D01*
X136749342Y-108827267D01*
X136682303Y-108807582D01*
X136641955Y-108765267D01*
X136611386Y-108712319D01*
X136611383Y-108712316D01*
X136611380Y-108712310D01*
X136570776Y-108659393D01*
X136570774Y-108659391D01*
X136570771Y-108659387D01*
X136468379Y-108556995D01*
X136468374Y-108556991D01*
X136415457Y-108516387D01*
X136290041Y-108443979D01*
X136290039Y-108443978D01*
X136290029Y-108443973D01*
X136228424Y-108418456D01*
X136228422Y-108418455D01*
X136228421Y-108418455D01*
X136088538Y-108380973D01*
X136088537Y-108380972D01*
X136088534Y-108380972D01*
X136022416Y-108372267D01*
X136022409Y-108372267D01*
X135694389Y-108372267D01*
X135627350Y-108352582D01*
X135581595Y-108299778D01*
X135571917Y-108267674D01*
X135564506Y-108220907D01*
X135520951Y-107946043D01*
X135517148Y-107926836D01*
X135408214Y-107469443D01*
X135404561Y-107456355D01*
X135400000Y-107423031D01*
X135400000Y-105600000D01*
X135300000Y-105600000D01*
X128300000Y-105600000D01*
X128300000Y-107429325D01*
X128294360Y-107466295D01*
X128284424Y-107498103D01*
X128279312Y-107516985D01*
X128173897Y-107975211D01*
X128170252Y-107994399D01*
X128129169Y-108267231D01*
X128099721Y-108330592D01*
X128040693Y-108367974D01*
X128006551Y-108372767D01*
X127721776Y-108372767D01*
X128263681Y-108914671D01*
X128297166Y-108975994D01*
X128300000Y-109002352D01*
X128300000Y-109005182D01*
X128280315Y-109072221D01*
X128227511Y-109117976D01*
X128158353Y-109127920D01*
X128094797Y-109098895D01*
X128088319Y-109092863D01*
X127431180Y-108435724D01*
X127410215Y-108444408D01*
X127410210Y-108444411D01*
X127284791Y-108516820D01*
X127231981Y-108557343D01*
X127231974Y-108557349D01*
X127129582Y-108659741D01*
X127129576Y-108659748D01*
X127089053Y-108712558D01*
X127016644Y-108837977D01*
X127016639Y-108837987D01*
X126991172Y-108899471D01*
X126953688Y-109039361D01*
X126945000Y-109105350D01*
X126945000Y-109250183D01*
X126953688Y-109316172D01*
X126991172Y-109456062D01*
X127016639Y-109517546D01*
X127016644Y-109517556D01*
X127089053Y-109642975D01*
X127129576Y-109695785D01*
X127129582Y-109695792D01*
X127231974Y-109798184D01*
X127231981Y-109798190D01*
X127284795Y-109838716D01*
X127284797Y-109838717D01*
X127410193Y-109911113D01*
X127410214Y-109911124D01*
X127431180Y-109919807D01*
X127431181Y-109919807D01*
X128088319Y-109262671D01*
X128149642Y-109229186D01*
X128219334Y-109234170D01*
X128275267Y-109276042D01*
X128299684Y-109341506D01*
X128300000Y-109350352D01*
X128300000Y-109353181D01*
X128280315Y-109420220D01*
X128263681Y-109440862D01*
X127721776Y-109982766D01*
X127721777Y-109982767D01*
X128006037Y-109982767D01*
X128073076Y-110002452D01*
X128118831Y-110055256D01*
X128128509Y-110087360D01*
X128179543Y-110409420D01*
X128183336Y-110428575D01*
X128292274Y-110885985D01*
X128295435Y-110897309D01*
X128300000Y-110930643D01*
X128300000Y-112800000D01*
X135400000Y-112800000D01*
X135400000Y-110927883D01*
X135405640Y-110890911D01*
X135407179Y-110885985D01*
X135416059Y-110857557D01*
X135421176Y-110838658D01*
X135526588Y-110380440D01*
X135530244Y-110361204D01*
X135571262Y-110088801D01*
X135600710Y-110025442D01*
X135659738Y-109988060D01*
X135693880Y-109983267D01*
X136022402Y-109983267D01*
X136022409Y-109983267D01*
X136088538Y-109974561D01*
X136228421Y-109937079D01*
X136290041Y-109911555D01*
X136415457Y-109839147D01*
X136468374Y-109798543D01*
X136570776Y-109696141D01*
X136611380Y-109643224D01*
X136619872Y-109628515D01*
X136641955Y-109590267D01*
X136692522Y-109542051D01*
X136749342Y-109528267D01*
X145368375Y-109528267D01*
X145368377Y-109528267D01*
X145457521Y-109504381D01*
X145465109Y-109500000D01*
X145537445Y-109458237D01*
X147254123Y-107741557D01*
X147315444Y-107708074D01*
X147341871Y-107707144D01*
X147341871Y-107706412D01*
X147341859Y-107706322D01*
X147341871Y-107706320D01*
X147341871Y-107705250D01*
X147358129Y-107705250D01*
X147358129Y-107706573D01*
X147359587Y-107706522D01*
X147359656Y-107706532D01*
X147359296Y-107709009D01*
X147410970Y-107717031D01*
X147445877Y-107741559D01*
X149162555Y-109458237D01*
X149234891Y-109500000D01*
X149242479Y-109504381D01*
X149331623Y-109528267D01*
X149331624Y-109528267D01*
X149423911Y-109528267D01*
X157859151Y-109528267D01*
X157926190Y-109547952D01*
X157966539Y-109590269D01*
X157988614Y-109628506D01*
X157988619Y-109628513D01*
X157988620Y-109628515D01*
X158028956Y-109681083D01*
X158029226Y-109681434D01*
X158029230Y-109681439D01*
X158131620Y-109783829D01*
X158131624Y-109783832D01*
X158131626Y-109783834D01*
X158184543Y-109824438D01*
X158309959Y-109896846D01*
X158309964Y-109896848D01*
X158309970Y-109896851D01*
X158329881Y-109905098D01*
X158371579Y-109922370D01*
X158511462Y-109959852D01*
X158569732Y-109967523D01*
X158573785Y-109968057D01*
X158577591Y-109968558D01*
X158905611Y-109968558D01*
X158972650Y-109988243D01*
X159018405Y-110041047D01*
X159028082Y-110073150D01*
X159079049Y-110394782D01*
X159082852Y-110413989D01*
X159082854Y-110413998D01*
X159186626Y-110849715D01*
X159190000Y-110878444D01*
X159190000Y-112740000D01*
X166290000Y-112740000D01*
X166290000Y-110943512D01*
X166295640Y-110906540D01*
X166315579Y-110842705D01*
X166320687Y-110823839D01*
X166426102Y-110365613D01*
X166429747Y-110346425D01*
X166470831Y-110073594D01*
X166500279Y-110010233D01*
X166559307Y-109972851D01*
X166593449Y-109968058D01*
X166878223Y-109968058D01*
X166878223Y-109968057D01*
X166326319Y-109416153D01*
X166292834Y-109354830D01*
X166290000Y-109328472D01*
X166290000Y-109325644D01*
X166309685Y-109258605D01*
X166362489Y-109212850D01*
X166431647Y-109202906D01*
X166495203Y-109231931D01*
X166501681Y-109237963D01*
X167168816Y-109905098D01*
X167168818Y-109905099D01*
X167189781Y-109896417D01*
X167189806Y-109896404D01*
X167315202Y-109824008D01*
X167315204Y-109824007D01*
X167368018Y-109783481D01*
X167368025Y-109783475D01*
X167470417Y-109681083D01*
X167470423Y-109681076D01*
X167510946Y-109628266D01*
X167583355Y-109502847D01*
X167583360Y-109502837D01*
X167608827Y-109441353D01*
X167646311Y-109301463D01*
X167654999Y-109235474D01*
X167655000Y-109235460D01*
X167655000Y-109090655D01*
X167654999Y-109090641D01*
X167646311Y-109024652D01*
X167608827Y-108884762D01*
X167583360Y-108823278D01*
X167583355Y-108823268D01*
X167510946Y-108697849D01*
X167470423Y-108645039D01*
X167470417Y-108645032D01*
X167368025Y-108542640D01*
X167368018Y-108542634D01*
X167315208Y-108502111D01*
X167189792Y-108429704D01*
X167189781Y-108429698D01*
X167168817Y-108421015D01*
X166501681Y-109088153D01*
X166440358Y-109121638D01*
X166370667Y-109116654D01*
X166314733Y-109074783D01*
X166290316Y-109009318D01*
X166290000Y-109000472D01*
X166290000Y-108997643D01*
X166309685Y-108930604D01*
X166326319Y-108909962D01*
X166878223Y-108358058D01*
X166593963Y-108358058D01*
X166526924Y-108338373D01*
X166481169Y-108285569D01*
X166471491Y-108253465D01*
X166420456Y-107931404D01*
X166416663Y-107912249D01*
X166307729Y-107454858D01*
X166302473Y-107436022D01*
X166295928Y-107415621D01*
X166290000Y-107377739D01*
X166290000Y-105540000D01*
X166190000Y-105540000D01*
X159190000Y-105540000D01*
X159190000Y-107444955D01*
X159184509Y-107480959D01*
X159184562Y-107480974D01*
X159184436Y-107481438D01*
X159184363Y-107481915D01*
X159183941Y-107483268D01*
X159183935Y-107483288D01*
X159178829Y-107502146D01*
X159073410Y-107960391D01*
X159069757Y-107979613D01*
X159069756Y-107979621D01*
X159029642Y-108246020D01*
X159028738Y-108252022D01*
X158999290Y-108315383D01*
X158940262Y-108352765D01*
X158906120Y-108357558D01*
X158577583Y-108357558D01*
X158511465Y-108366263D01*
X158371575Y-108403747D01*
X158309970Y-108429264D01*
X158309960Y-108429269D01*
X158184547Y-108501675D01*
X158184545Y-108501676D01*
X158184543Y-108501678D01*
X158165375Y-108516386D01*
X158131620Y-108542286D01*
X158029228Y-108644678D01*
X158017665Y-108659748D01*
X157988620Y-108697601D01*
X157988619Y-108697603D01*
X157988614Y-108697610D01*
X157949553Y-108765267D01*
X157898987Y-108813482D01*
X157842166Y-108827267D01*
X149574311Y-108827267D01*
X149507272Y-108807582D01*
X149486630Y-108790948D01*
X147941560Y-107245878D01*
X147908075Y-107184555D01*
X147906983Y-107158129D01*
X147905250Y-107158129D01*
X147905250Y-107150000D01*
X147898315Y-107097328D01*
X147890858Y-107040685D01*
X147901623Y-106971650D01*
X147948003Y-106919395D01*
X148013797Y-106900500D01*
X155363908Y-106900500D01*
X155430947Y-106920185D01*
X155450412Y-106938086D01*
X155451628Y-106936871D01*
X155457372Y-106942615D01*
X155457377Y-106942619D01*
X155457379Y-106942621D01*
X155572375Y-107030861D01*
X155706291Y-107086330D01*
X155833280Y-107103048D01*
X155849999Y-107105250D01*
X155850000Y-107105250D01*
X155850001Y-107105250D01*
X155864977Y-107103278D01*
X155993709Y-107086330D01*
X156127625Y-107030861D01*
X156242621Y-106942621D01*
X156330861Y-106827625D01*
X156386330Y-106693709D01*
X156405250Y-106550000D01*
X156386330Y-106406291D01*
X156330861Y-106272375D01*
X156242621Y-106157379D01*
X156127625Y-106069139D01*
X156127624Y-106069138D01*
X156127622Y-106069137D01*
X155993712Y-106013671D01*
X155993710Y-106013670D01*
X155993709Y-106013670D01*
X155984649Y-106012477D01*
X155950395Y-106007967D01*
X155886499Y-105979699D01*
X155848029Y-105921374D01*
X155843645Y-105901220D01*
X155833781Y-105826291D01*
X155778312Y-105692375D01*
X155690072Y-105577379D01*
X155575076Y-105489139D01*
X155575075Y-105489138D01*
X155575073Y-105489137D01*
X155441163Y-105433671D01*
X155441161Y-105433670D01*
X155441160Y-105433670D01*
X155426224Y-105431703D01*
X155336901Y-105419943D01*
X155273005Y-105391676D01*
X155234535Y-105333351D01*
X155230149Y-105313189D01*
X155227552Y-105293466D01*
X155221342Y-105246291D01*
X155165873Y-105112375D01*
X155077633Y-104997379D01*
X154962637Y-104909139D01*
X154962636Y-104909138D01*
X154962634Y-104909137D01*
X154828724Y-104853671D01*
X154828722Y-104853670D01*
X154828721Y-104853670D01*
X154811235Y-104851367D01*
X154746487Y-104842843D01*
X154682591Y-104814576D01*
X154644121Y-104756251D01*
X154639735Y-104736088D01*
X154633758Y-104690684D01*
X154644524Y-104621649D01*
X154690905Y-104569393D01*
X154756697Y-104550500D01*
X177196142Y-104550500D01*
X177196144Y-104550500D01*
X177285288Y-104526614D01*
X177365212Y-104480470D01*
X177604124Y-104241556D01*
X177665443Y-104208074D01*
X177691871Y-104207144D01*
X177691871Y-104205250D01*
X177700000Y-104205250D01*
X177843709Y-104186330D01*
X177977625Y-104130861D01*
X178092621Y-104042621D01*
X178180861Y-103927625D01*
X178236330Y-103793709D01*
X178255250Y-103650000D01*
X178236330Y-103506291D01*
X178180861Y-103372375D01*
X178125315Y-103299986D01*
X178100121Y-103234817D01*
X178114159Y-103166372D01*
X178162973Y-103116383D01*
X178223691Y-103100500D01*
X186728456Y-103100500D01*
X186795495Y-103120185D01*
X186816137Y-103136819D01*
X187338181Y-103658863D01*
X187371666Y-103720186D01*
X187374500Y-103746544D01*
X187374500Y-107421145D01*
X187388859Y-107474735D01*
X187398384Y-107510283D01*
X187398387Y-107510290D01*
X187444527Y-107590208D01*
X187444529Y-107590211D01*
X187444530Y-107590212D01*
X188270904Y-108416586D01*
X188270905Y-108416587D01*
X188270907Y-108416588D01*
X188292873Y-108429270D01*
X188350828Y-108462730D01*
X188398969Y-108475629D01*
X188458628Y-108511992D01*
X188474262Y-108533403D01*
X188487883Y-108556995D01*
X188513620Y-108601573D01*
X188546695Y-108644678D01*
X188554228Y-108654495D01*
X188656620Y-108756887D01*
X188656624Y-108756890D01*
X188656626Y-108756892D01*
X188709543Y-108797496D01*
X188834959Y-108869904D01*
X188834964Y-108869906D01*
X188834970Y-108869909D01*
X188854881Y-108878156D01*
X188896579Y-108895428D01*
X189036462Y-108932910D01*
X189094732Y-108940581D01*
X189098785Y-108941115D01*
X189102591Y-108941616D01*
X189430611Y-108941616D01*
X189497650Y-108961301D01*
X189543405Y-109014105D01*
X189553082Y-109046208D01*
X189601987Y-109354830D01*
X189604048Y-109367833D01*
X189607854Y-109387056D01*
X189620669Y-109440862D01*
X189715525Y-109839147D01*
X189716789Y-109844452D01*
X189722044Y-109863285D01*
X189744072Y-109931941D01*
X189750000Y-109969823D01*
X189750000Y-111725000D01*
X196850000Y-111725000D01*
X196850000Y-109792236D01*
X196853156Y-109764436D01*
X196951102Y-109338671D01*
X196954747Y-109319483D01*
X196995831Y-109046652D01*
X197025279Y-108983291D01*
X197084307Y-108945909D01*
X197118449Y-108941116D01*
X197403223Y-108941116D01*
X197403223Y-108941115D01*
X196886319Y-108424211D01*
X196852834Y-108362888D01*
X196850000Y-108336530D01*
X196850000Y-108333701D01*
X196869685Y-108266662D01*
X196922489Y-108220907D01*
X196991647Y-108210963D01*
X197055203Y-108239988D01*
X197061681Y-108246020D01*
X197693816Y-108878156D01*
X197693818Y-108878157D01*
X197714781Y-108869475D01*
X197714806Y-108869462D01*
X197840202Y-108797066D01*
X197840204Y-108797065D01*
X197893018Y-108756539D01*
X197893025Y-108756533D01*
X197995417Y-108654141D01*
X197995423Y-108654134D01*
X198035946Y-108601324D01*
X198108355Y-108475905D01*
X198108360Y-108475895D01*
X198133827Y-108414411D01*
X198171311Y-108274521D01*
X198179999Y-108208532D01*
X198180000Y-108208518D01*
X198180000Y-108063713D01*
X198179999Y-108063699D01*
X198171311Y-107997710D01*
X198133827Y-107857820D01*
X198108360Y-107796336D01*
X198108355Y-107796326D01*
X198035946Y-107670907D01*
X197995423Y-107618097D01*
X197995417Y-107618090D01*
X197893025Y-107515698D01*
X197893018Y-107515692D01*
X197840208Y-107475169D01*
X197714792Y-107402762D01*
X197714781Y-107402756D01*
X197693817Y-107394073D01*
X197061681Y-108026211D01*
X197000358Y-108059696D01*
X196930667Y-108054712D01*
X196874733Y-108012841D01*
X196850316Y-107947376D01*
X196850000Y-107938530D01*
X196850000Y-107935701D01*
X196869685Y-107868662D01*
X196886319Y-107848020D01*
X197403223Y-107331116D01*
X197118963Y-107331116D01*
X197051924Y-107311431D01*
X197006169Y-107258627D01*
X196996491Y-107226523D01*
X196945456Y-106904462D01*
X196941661Y-106885301D01*
X196853374Y-106514594D01*
X196850000Y-106485866D01*
X196850000Y-104525000D01*
X196750000Y-104525000D01*
X189750000Y-104525000D01*
X189750000Y-106305964D01*
X189744360Y-106342935D01*
X189708945Y-106456311D01*
X189708941Y-106456326D01*
X189703824Y-106475225D01*
X189680909Y-106574834D01*
X189598410Y-106933449D01*
X189594757Y-106952671D01*
X189594756Y-106952679D01*
X189556790Y-107204814D01*
X189553738Y-107225080D01*
X189524290Y-107288441D01*
X189465262Y-107325823D01*
X189431120Y-107330616D01*
X189102583Y-107330616D01*
X189036465Y-107339321D01*
X188896575Y-107376805D01*
X188834970Y-107402322D01*
X188834960Y-107402327D01*
X188709547Y-107474733D01*
X188709545Y-107474734D01*
X188709543Y-107474736D01*
X188700809Y-107481438D01*
X188656623Y-107515342D01*
X188596504Y-107575461D01*
X188535180Y-107608945D01*
X188465489Y-107603960D01*
X188421142Y-107575460D01*
X188111819Y-107266137D01*
X188078334Y-107204814D01*
X188075500Y-107178456D01*
X188075500Y-103503858D01*
X188075500Y-103503856D01*
X188051614Y-103414712D01*
X188028809Y-103375213D01*
X188005470Y-103334788D01*
X187655863Y-102985181D01*
X187622378Y-102923858D01*
X187627362Y-102854166D01*
X187669234Y-102798233D01*
X187734698Y-102773816D01*
X187743544Y-102773500D01*
X208623142Y-102773500D01*
X208623144Y-102773500D01*
X208712288Y-102749614D01*
X208731486Y-102738530D01*
X208792212Y-102703470D01*
X209580469Y-101915212D01*
X209626614Y-101835288D01*
X209630874Y-101819391D01*
X209631909Y-101815530D01*
X209646848Y-101759773D01*
X209650500Y-101746144D01*
X209650500Y-97767740D01*
X209626614Y-97678596D01*
X209623424Y-97673071D01*
X209623423Y-97673069D01*
X209623423Y-97673068D01*
X209580474Y-97598678D01*
X209580471Y-97598675D01*
X209580470Y-97598672D01*
X209480097Y-97498299D01*
X209446612Y-97436976D01*
X209451596Y-97367284D01*
X209480097Y-97322936D01*
X209495776Y-97307258D01*
X209536380Y-97254341D01*
X209608788Y-97128925D01*
X209634312Y-97067305D01*
X209671794Y-96927422D01*
X209680500Y-96861293D01*
X209680500Y-96716475D01*
X209671794Y-96650346D01*
X209634312Y-96510463D01*
X209614042Y-96461527D01*
X209608793Y-96448854D01*
X209608788Y-96448844D01*
X209608788Y-96448843D01*
X209536380Y-96323427D01*
X209495776Y-96270510D01*
X209495774Y-96270508D01*
X209495771Y-96270504D01*
X209393379Y-96168112D01*
X209393374Y-96168108D01*
X209340457Y-96127504D01*
X209215041Y-96055096D01*
X209215039Y-96055095D01*
X209215026Y-96055088D01*
X209201546Y-96049505D01*
X209147143Y-96005663D01*
X209125079Y-95939369D01*
X209125000Y-95934945D01*
X209125000Y-93125000D01*
X209025000Y-93125000D01*
X202025000Y-93125000D01*
X202025000Y-93584286D01*
X202005315Y-93651325D01*
X201952511Y-93697080D01*
X201941102Y-93701622D01*
X201922612Y-93707941D01*
X201922594Y-93707949D01*
X201838602Y-93752362D01*
X201838587Y-93752371D01*
X201774774Y-93800229D01*
X201774768Y-93800235D01*
X201708599Y-93868440D01*
X201708592Y-93868449D01*
X201662692Y-93933684D01*
X201641758Y-93976355D01*
X201641759Y-93976356D01*
X201538222Y-94187420D01*
X201530291Y-94205289D01*
X201356145Y-94642027D01*
X201349611Y-94660433D01*
X201209420Y-95109235D01*
X201204312Y-95128102D01*
X201098897Y-95586328D01*
X201095252Y-95605516D01*
X201054169Y-95878348D01*
X201024721Y-95941709D01*
X200965693Y-95979091D01*
X200931551Y-95983884D01*
X200646776Y-95983884D01*
X201275000Y-96612107D01*
X201988681Y-97325788D01*
X202022166Y-97387111D01*
X202025000Y-97413469D01*
X202025000Y-97416299D01*
X202005315Y-97483338D01*
X201952511Y-97529093D01*
X201883353Y-97539037D01*
X201819797Y-97510012D01*
X201813319Y-97503980D01*
X201275000Y-96965661D01*
X200646776Y-97593883D01*
X200646777Y-97593884D01*
X200931037Y-97593884D01*
X200998076Y-97613569D01*
X201043831Y-97666373D01*
X201053509Y-97698477D01*
X201104543Y-98020537D01*
X201108336Y-98039692D01*
X201217272Y-98497095D01*
X201222524Y-98515910D01*
X201366163Y-98963619D01*
X201372845Y-98981994D01*
X201550344Y-99417379D01*
X201558413Y-99435185D01*
X201768731Y-99855695D01*
X201778149Y-99872848D01*
X201891685Y-100062084D01*
X201891686Y-100062087D01*
X201896141Y-100069513D01*
X201897197Y-100071305D01*
X201914110Y-100100599D01*
X201916358Y-100103962D01*
X201916294Y-100104004D01*
X201920878Y-100110741D01*
X201923529Y-100115159D01*
X201923541Y-100115177D01*
X201942649Y-100137978D01*
X201945982Y-100142133D01*
X201954624Y-100153395D01*
X201954632Y-100153404D01*
X201956604Y-100155376D01*
X201963962Y-100163410D01*
X201974781Y-100176321D01*
X201974785Y-100176324D01*
X201982409Y-100182960D01*
X202020054Y-100241821D01*
X202025000Y-100276493D01*
X202025000Y-100325000D01*
X202213405Y-100325000D01*
X202243480Y-100328703D01*
X202278942Y-100337568D01*
X202278951Y-100337570D01*
X202302298Y-100339627D01*
X202307607Y-100340210D01*
X202335505Y-100343883D01*
X202335508Y-100343884D01*
X202345138Y-100343884D01*
X202356024Y-100344363D01*
X202373605Y-100345912D01*
X202373619Y-100345912D01*
X202398598Y-100344181D01*
X202407173Y-100343884D01*
X204682974Y-100343884D01*
X204739473Y-100325079D01*
X204743899Y-100325000D01*
X204936531Y-100325000D01*
X204982331Y-100338448D01*
X204983990Y-100334445D01*
X205006777Y-100343884D01*
X206314499Y-100343884D01*
X206380486Y-100335197D01*
X206402777Y-100329225D01*
X206434871Y-100325000D01*
X208825500Y-100325000D01*
X208892539Y-100344685D01*
X208938294Y-100397489D01*
X208949500Y-100449000D01*
X208949500Y-101503456D01*
X208929815Y-101570495D01*
X208913181Y-101591137D01*
X208468137Y-102036181D01*
X208406814Y-102069666D01*
X208380456Y-102072500D01*
X187797544Y-102072500D01*
X187730505Y-102052815D01*
X187684750Y-102000011D01*
X187674806Y-101930853D01*
X187703831Y-101867297D01*
X187709863Y-101860819D01*
X187912138Y-101658543D01*
X188005469Y-101565212D01*
X188051614Y-101485288D01*
X188051616Y-101485281D01*
X188058517Y-101459529D01*
X188067008Y-101427837D01*
X188075500Y-101396144D01*
X188075500Y-96716467D01*
X199870000Y-96716467D01*
X199870000Y-96861300D01*
X199878688Y-96927289D01*
X199916172Y-97067179D01*
X199941639Y-97128663D01*
X199941644Y-97128673D01*
X200014053Y-97254092D01*
X200054576Y-97306902D01*
X200054582Y-97306909D01*
X200156974Y-97409301D01*
X200156981Y-97409307D01*
X200209795Y-97449833D01*
X200209797Y-97449834D01*
X200335193Y-97522230D01*
X200335214Y-97522241D01*
X200356180Y-97530924D01*
X200356181Y-97530924D01*
X201098223Y-96788884D01*
X200356180Y-96046841D01*
X200335215Y-96055525D01*
X200335210Y-96055528D01*
X200209791Y-96127937D01*
X200156981Y-96168460D01*
X200156974Y-96168466D01*
X200054582Y-96270858D01*
X200054576Y-96270865D01*
X200014053Y-96323675D01*
X199941644Y-96449094D01*
X199941639Y-96449104D01*
X199916172Y-96510588D01*
X199878688Y-96650478D01*
X199870000Y-96716467D01*
X188075500Y-96716467D01*
X188075500Y-86071543D01*
X188095185Y-86004504D01*
X188111819Y-85983862D01*
X188202681Y-85893000D01*
X188316554Y-85779126D01*
X188377875Y-85745643D01*
X188447566Y-85750627D01*
X188503500Y-85792498D01*
X188511620Y-85804808D01*
X188538617Y-85851569D01*
X188538620Y-85851573D01*
X188575835Y-85900073D01*
X188579228Y-85904495D01*
X188681620Y-86006887D01*
X188681624Y-86006890D01*
X188681626Y-86006892D01*
X188734543Y-86047496D01*
X188859959Y-86119904D01*
X188859964Y-86119906D01*
X188859970Y-86119909D01*
X188876525Y-86126766D01*
X188921579Y-86145428D01*
X189061462Y-86182910D01*
X189118575Y-86190429D01*
X189127013Y-86191540D01*
X189127591Y-86191616D01*
X189455611Y-86191616D01*
X189522650Y-86211301D01*
X189568405Y-86264105D01*
X189578082Y-86296208D01*
X189623799Y-86584712D01*
X189629048Y-86617833D01*
X189632854Y-86637056D01*
X189643157Y-86680316D01*
X189734956Y-87065763D01*
X189741788Y-87094447D01*
X189745436Y-87107519D01*
X189750000Y-87140850D01*
X189750000Y-88950000D01*
X196850000Y-88950000D01*
X196850000Y-87134556D01*
X196855640Y-87097584D01*
X196865579Y-87065763D01*
X196870687Y-87046897D01*
X196976102Y-86588671D01*
X196979747Y-86569483D01*
X197020831Y-86296652D01*
X197050279Y-86233291D01*
X197109307Y-86195909D01*
X197143449Y-86191116D01*
X197428223Y-86191116D01*
X197428223Y-86191115D01*
X196886319Y-85649211D01*
X196852834Y-85587888D01*
X196850000Y-85561530D01*
X196850000Y-85558701D01*
X196869685Y-85491662D01*
X196922489Y-85445907D01*
X196991647Y-85435963D01*
X197055203Y-85464988D01*
X197061681Y-85471020D01*
X197718816Y-86128156D01*
X197718818Y-86128157D01*
X197739781Y-86119475D01*
X197739806Y-86119462D01*
X197865202Y-86047066D01*
X197865204Y-86047065D01*
X197918018Y-86006539D01*
X197918025Y-86006533D01*
X198020417Y-85904141D01*
X198020423Y-85904134D01*
X198060946Y-85851324D01*
X198133355Y-85725905D01*
X198133360Y-85725895D01*
X198158827Y-85664411D01*
X198196311Y-85524521D01*
X198204999Y-85458532D01*
X198205000Y-85458518D01*
X198205000Y-85313713D01*
X198204999Y-85313699D01*
X198196311Y-85247710D01*
X198158827Y-85107820D01*
X198133360Y-85046336D01*
X198133355Y-85046326D01*
X198060946Y-84920907D01*
X198020423Y-84868097D01*
X198020417Y-84868090D01*
X197918025Y-84765698D01*
X197918018Y-84765692D01*
X197865208Y-84725169D01*
X197739792Y-84652762D01*
X197739781Y-84652756D01*
X197718817Y-84644073D01*
X197061681Y-85301211D01*
X197000358Y-85334696D01*
X196930667Y-85329712D01*
X196874733Y-85287841D01*
X196850316Y-85222376D01*
X196850000Y-85213530D01*
X196850000Y-85210701D01*
X196869685Y-85143662D01*
X196886319Y-85123020D01*
X197428223Y-84581116D01*
X197143963Y-84581116D01*
X197076924Y-84561431D01*
X197031169Y-84508627D01*
X197021491Y-84476523D01*
X196970456Y-84154462D01*
X196966663Y-84135307D01*
X196857729Y-83677916D01*
X196854563Y-83666568D01*
X196850000Y-83633238D01*
X196850000Y-81999994D01*
X206744357Y-81999994D01*
X206744357Y-82000005D01*
X206764890Y-82247812D01*
X206764892Y-82247824D01*
X206825936Y-82488881D01*
X206925826Y-82716606D01*
X207061833Y-82924782D01*
X207061836Y-82924785D01*
X207230256Y-83107738D01*
X207426491Y-83260474D01*
X207645190Y-83378828D01*
X207880386Y-83459571D01*
X208125665Y-83500500D01*
X208374335Y-83500500D01*
X208619614Y-83459571D01*
X208854810Y-83378828D01*
X209073509Y-83260474D01*
X209269744Y-83107738D01*
X209438164Y-82924785D01*
X209574173Y-82716607D01*
X209674063Y-82488881D01*
X209735108Y-82247821D01*
X209735109Y-82247812D01*
X209755643Y-82000005D01*
X209755643Y-81999994D01*
X209735109Y-81752187D01*
X209735107Y-81752175D01*
X209674063Y-81511118D01*
X209574173Y-81283393D01*
X209438166Y-81075217D01*
X209416557Y-81051744D01*
X209269744Y-80892262D01*
X209073509Y-80739526D01*
X209073507Y-80739525D01*
X209073506Y-80739524D01*
X208854811Y-80621172D01*
X208854802Y-80621169D01*
X208619616Y-80540429D01*
X208374335Y-80499500D01*
X208125665Y-80499500D01*
X207880383Y-80540429D01*
X207645197Y-80621169D01*
X207645188Y-80621172D01*
X207426493Y-80739524D01*
X207230257Y-80892261D01*
X207061833Y-81075217D01*
X206925826Y-81283393D01*
X206825936Y-81511118D01*
X206764892Y-81752175D01*
X206764890Y-81752187D01*
X206744357Y-81999994D01*
X196850000Y-81999994D01*
X196850000Y-81750000D01*
X196750000Y-81750000D01*
X189750000Y-81750000D01*
X189750000Y-83635998D01*
X189744360Y-83672969D01*
X189733945Y-83706310D01*
X189728825Y-83725222D01*
X189623410Y-84183449D01*
X189619757Y-84202671D01*
X189578738Y-84475080D01*
X189549290Y-84538441D01*
X189490262Y-84575823D01*
X189456120Y-84580616D01*
X189127583Y-84580616D01*
X189061465Y-84589321D01*
X188921575Y-84626805D01*
X188859970Y-84652322D01*
X188859960Y-84652327D01*
X188734547Y-84724733D01*
X188734545Y-84724734D01*
X188734543Y-84724736D01*
X188733979Y-84725169D01*
X188681620Y-84765344D01*
X188579228Y-84867736D01*
X188557688Y-84895808D01*
X188538620Y-84920659D01*
X188538619Y-84920661D01*
X188538613Y-84920668D01*
X188508045Y-84973616D01*
X188457478Y-85021832D01*
X188400658Y-85035616D01*
X188167740Y-85035616D01*
X188078596Y-85059502D01*
X188078595Y-85059502D01*
X188078593Y-85059503D01*
X188078590Y-85059504D01*
X187998678Y-85105642D01*
X187998669Y-85105649D01*
X187444531Y-85659786D01*
X187444527Y-85659791D01*
X187398387Y-85739709D01*
X187398386Y-85739712D01*
X187374500Y-85828856D01*
X187374500Y-101153456D01*
X187354815Y-101220495D01*
X187338181Y-101241137D01*
X186870137Y-101709181D01*
X186808814Y-101742666D01*
X186782456Y-101745500D01*
X173389306Y-101745500D01*
X173322267Y-101725815D01*
X173301625Y-101709181D01*
X172033976Y-100441532D01*
X172000491Y-100380209D01*
X171997657Y-100353851D01*
X171997657Y-98263614D01*
X171997657Y-98263612D01*
X171973771Y-98174468D01*
X171967952Y-98164391D01*
X171967950Y-98164382D01*
X171967949Y-98164383D01*
X171927631Y-98094550D01*
X171927625Y-98094542D01*
X171202063Y-97368980D01*
X171168578Y-97307657D01*
X171173562Y-97237965D01*
X171202062Y-97193619D01*
X171247748Y-97147934D01*
X171309071Y-97114450D01*
X171335428Y-97111616D01*
X177025658Y-97111616D01*
X177092697Y-97131301D01*
X177133045Y-97173616D01*
X177163613Y-97226563D01*
X177163616Y-97226567D01*
X177163620Y-97226573D01*
X177185811Y-97255493D01*
X177204228Y-97279495D01*
X177306619Y-97381886D01*
X177307757Y-97382884D01*
X177307999Y-97383266D01*
X177309496Y-97384763D01*
X177309161Y-97385097D01*
X177345182Y-97441885D01*
X177350000Y-97476114D01*
X177350000Y-100325000D01*
X184450000Y-100325000D01*
X184450000Y-100008678D01*
X184469685Y-99941639D01*
X184522489Y-99895884D01*
X184572121Y-99884692D01*
X184608277Y-99884143D01*
X184608283Y-99884143D01*
X184701899Y-99867856D01*
X184777395Y-99842055D01*
X184777405Y-99842050D01*
X184861397Y-99797637D01*
X184861412Y-99797628D01*
X184925225Y-99749770D01*
X184925231Y-99749764D01*
X184991400Y-99681559D01*
X184991407Y-99681550D01*
X185037309Y-99616312D01*
X185059262Y-99571563D01*
X185059273Y-99571539D01*
X185161777Y-99362579D01*
X185169708Y-99344710D01*
X185343854Y-98907972D01*
X185350388Y-98889566D01*
X185490579Y-98440764D01*
X185495687Y-98421897D01*
X185601102Y-97963671D01*
X185604747Y-97944483D01*
X185645831Y-97671652D01*
X185675279Y-97608291D01*
X185734307Y-97570909D01*
X185768449Y-97566116D01*
X186053223Y-97566116D01*
X186053223Y-97566115D01*
X185335904Y-96848796D01*
X185302419Y-96787473D01*
X185304304Y-96761115D01*
X185601777Y-96761115D01*
X185601777Y-96761117D01*
X186343816Y-97503156D01*
X186343818Y-97503157D01*
X186364781Y-97494475D01*
X186364806Y-97494462D01*
X186490202Y-97422066D01*
X186490204Y-97422065D01*
X186543018Y-97381539D01*
X186543025Y-97381533D01*
X186645417Y-97279141D01*
X186645423Y-97279134D01*
X186685946Y-97226324D01*
X186758355Y-97100905D01*
X186758360Y-97100895D01*
X186783827Y-97039411D01*
X186821311Y-96899521D01*
X186829999Y-96833532D01*
X186830000Y-96833518D01*
X186830000Y-96688713D01*
X186829999Y-96688699D01*
X186821311Y-96622710D01*
X186783827Y-96482820D01*
X186758360Y-96421336D01*
X186758355Y-96421326D01*
X186685946Y-96295907D01*
X186645423Y-96243097D01*
X186645417Y-96243090D01*
X186543025Y-96140698D01*
X186543018Y-96140692D01*
X186490208Y-96100169D01*
X186364792Y-96027762D01*
X186364781Y-96027756D01*
X186343817Y-96019073D01*
X185601777Y-96761115D01*
X185304304Y-96761115D01*
X185307403Y-96717781D01*
X185335904Y-96673433D01*
X185425000Y-96584338D01*
X186053223Y-95956116D01*
X185768963Y-95956116D01*
X185701924Y-95936431D01*
X185656169Y-95883627D01*
X185646491Y-95851523D01*
X185595456Y-95529462D01*
X185591663Y-95510307D01*
X185482727Y-95052904D01*
X185477475Y-95034089D01*
X185333836Y-94586380D01*
X185327154Y-94568005D01*
X185149655Y-94132620D01*
X185141586Y-94114814D01*
X184931261Y-93694290D01*
X184921864Y-93677173D01*
X184808449Y-93488141D01*
X184808447Y-93488136D01*
X184803867Y-93480503D01*
X184802804Y-93478697D01*
X184785899Y-93449417D01*
X184783638Y-93446033D01*
X184783701Y-93445990D01*
X184779115Y-93439250D01*
X184776460Y-93434824D01*
X184757343Y-93412013D01*
X184754008Y-93407854D01*
X184745377Y-93396606D01*
X184745369Y-93396597D01*
X184743392Y-93394620D01*
X184736034Y-93386586D01*
X184725216Y-93373677D01*
X184725214Y-93373675D01*
X184707100Y-93357909D01*
X184700830Y-93352058D01*
X184689518Y-93340746D01*
X184689512Y-93340741D01*
X184674512Y-93329231D01*
X184668585Y-93324386D01*
X184653543Y-93311293D01*
X184653540Y-93311290D01*
X184645472Y-93306241D01*
X184639216Y-93301898D01*
X184636682Y-93300206D01*
X184627550Y-93294934D01*
X184623769Y-93292661D01*
X184585907Y-93268968D01*
X184585896Y-93268963D01*
X184580186Y-93266534D01*
X184571974Y-93262437D01*
X184571935Y-93262518D01*
X184568292Y-93260722D01*
X184526550Y-93243433D01*
X184472146Y-93199594D01*
X184450079Y-93133300D01*
X184450000Y-93128871D01*
X184450000Y-93125000D01*
X184350000Y-93125000D01*
X177350000Y-93125000D01*
X177350000Y-96046117D01*
X177330315Y-96113156D01*
X177309432Y-96137405D01*
X177309496Y-96137469D01*
X177308644Y-96138320D01*
X177307770Y-96139336D01*
X177306621Y-96140343D01*
X177204228Y-96242736D01*
X177193044Y-96257312D01*
X177163620Y-96295659D01*
X177163619Y-96295661D01*
X177163613Y-96295668D01*
X177133045Y-96348616D01*
X177082478Y-96396832D01*
X177025658Y-96410616D01*
X171092740Y-96410616D01*
X171011328Y-96432430D01*
X171011327Y-96432429D01*
X171003599Y-96434500D01*
X171003593Y-96434503D01*
X170923675Y-96480643D01*
X170923670Y-96480647D01*
X170791137Y-96613181D01*
X170729814Y-96646666D01*
X170703456Y-96649500D01*
X168663797Y-96649500D01*
X168596758Y-96629815D01*
X168551003Y-96577011D01*
X168540858Y-96509314D01*
X168544633Y-96480646D01*
X168555250Y-96400000D01*
X168554866Y-96397087D01*
X168550391Y-96363091D01*
X168536330Y-96256291D01*
X168496514Y-96160166D01*
X168480862Y-96122377D01*
X168480861Y-96122376D01*
X168480861Y-96122375D01*
X168392621Y-96007379D01*
X168277625Y-95919139D01*
X168277624Y-95919138D01*
X168277622Y-95919137D01*
X168143712Y-95863671D01*
X168143710Y-95863670D01*
X168143709Y-95863670D01*
X168051445Y-95851523D01*
X168000001Y-95844750D01*
X167999999Y-95844750D01*
X167856293Y-95863669D01*
X167839912Y-95870453D01*
X167792572Y-95890062D01*
X167745124Y-95899500D01*
X167044500Y-95899500D01*
X166977461Y-95879815D01*
X166931706Y-95827011D01*
X166920500Y-95775500D01*
X166920499Y-94118482D01*
X166919918Y-94114814D01*
X166905646Y-94024696D01*
X166848050Y-93911658D01*
X166848046Y-93911654D01*
X166848045Y-93911652D01*
X166756819Y-93820426D01*
X166723334Y-93759103D01*
X166720500Y-93732745D01*
X166720500Y-92926544D01*
X166740185Y-92859505D01*
X166756819Y-92838863D01*
X167752496Y-91843186D01*
X168070361Y-91525321D01*
X168994388Y-91525321D01*
X168994388Y-93174678D01*
X169008920Y-93247735D01*
X169008921Y-93247739D01*
X169023106Y-93268968D01*
X169064287Y-93330601D01*
X169128753Y-93373675D01*
X169147148Y-93385966D01*
X169147152Y-93385967D01*
X169220209Y-93400499D01*
X169220212Y-93400500D01*
X169220214Y-93400500D01*
X170869564Y-93400500D01*
X170869565Y-93400499D01*
X170942628Y-93385966D01*
X171025489Y-93330601D01*
X171080854Y-93247740D01*
X171095388Y-93174674D01*
X171095388Y-93123122D01*
X171115073Y-93056083D01*
X171167877Y-93010328D01*
X171217263Y-93000847D01*
X171687362Y-92530748D01*
X171724808Y-92595606D01*
X171799282Y-92670080D01*
X171864139Y-92707525D01*
X171395925Y-93175737D01*
X171458716Y-93227267D01*
X171458722Y-93227271D01*
X171641121Y-93324766D01*
X171839053Y-93384808D01*
X172044888Y-93405080D01*
X172250722Y-93384808D01*
X172448654Y-93324766D01*
X172631054Y-93227271D01*
X172631061Y-93227267D01*
X172693848Y-93175738D01*
X172693849Y-93175737D01*
X172225637Y-92707525D01*
X172290494Y-92670080D01*
X172364968Y-92595606D01*
X172402413Y-92530748D01*
X172870625Y-92998961D01*
X172870626Y-92998960D01*
X172922155Y-92936173D01*
X172922159Y-92936166D01*
X173019654Y-92753766D01*
X173079696Y-92555834D01*
X173099968Y-92350000D01*
X173079696Y-92144165D01*
X173059188Y-92076558D01*
X174649701Y-92076558D01*
X174649701Y-92076561D01*
X174669533Y-92303246D01*
X174669535Y-92303257D01*
X174728427Y-92523048D01*
X174728430Y-92523057D01*
X174824600Y-92729292D01*
X174824601Y-92729294D01*
X174955123Y-92915701D01*
X175116027Y-93076605D01*
X175149438Y-93099999D01*
X175302435Y-93207128D01*
X175508673Y-93303299D01*
X175508678Y-93303300D01*
X175508680Y-93303301D01*
X175535059Y-93310369D01*
X175728477Y-93362195D01*
X175890399Y-93376361D01*
X175955167Y-93382028D01*
X175955169Y-93382028D01*
X175955171Y-93382028D01*
X176011842Y-93377069D01*
X176181861Y-93362195D01*
X176401665Y-93303299D01*
X176607903Y-93207128D01*
X176794308Y-93076607D01*
X176955216Y-92915699D01*
X177085737Y-92729294D01*
X177181908Y-92523056D01*
X177240804Y-92303252D01*
X177260637Y-92076560D01*
X177259892Y-92068050D01*
X177244829Y-91895876D01*
X177240804Y-91849868D01*
X177196085Y-91682975D01*
X177181910Y-91630071D01*
X177181907Y-91630062D01*
X177157106Y-91576876D01*
X177085737Y-91423826D01*
X176955216Y-91237421D01*
X176955214Y-91237418D01*
X176794310Y-91076514D01*
X176607903Y-90945992D01*
X176607901Y-90945991D01*
X176401666Y-90849821D01*
X176401657Y-90849818D01*
X176181866Y-90790926D01*
X176181862Y-90790925D01*
X176181861Y-90790925D01*
X176181860Y-90790924D01*
X176181855Y-90790924D01*
X175955171Y-90771092D01*
X175955167Y-90771092D01*
X175728482Y-90790924D01*
X175728471Y-90790926D01*
X175508680Y-90849818D01*
X175508671Y-90849821D01*
X175302436Y-90945991D01*
X175302434Y-90945992D01*
X175116027Y-91076514D01*
X174955123Y-91237418D01*
X174824601Y-91423825D01*
X174824600Y-91423827D01*
X174728430Y-91630062D01*
X174728427Y-91630071D01*
X174669535Y-91849862D01*
X174669533Y-91849873D01*
X174649701Y-92076558D01*
X173059188Y-92076558D01*
X173019654Y-91946233D01*
X172922159Y-91763834D01*
X172922155Y-91763828D01*
X172870625Y-91701037D01*
X172402412Y-92169250D01*
X172364968Y-92104394D01*
X172290494Y-92029920D01*
X172225636Y-91992474D01*
X172693848Y-91524262D01*
X172693848Y-91524261D01*
X172631059Y-91472732D01*
X172631053Y-91472728D01*
X172448654Y-91375233D01*
X172250722Y-91315191D01*
X172044888Y-91294919D01*
X171839053Y-91315191D01*
X171641121Y-91375233D01*
X171458715Y-91472731D01*
X171395926Y-91524260D01*
X171395926Y-91524261D01*
X171864139Y-91992474D01*
X171799282Y-92029920D01*
X171724808Y-92104394D01*
X171687362Y-92169251D01*
X171216731Y-91698620D01*
X171157547Y-91684355D01*
X171109257Y-91633859D01*
X171095388Y-91576876D01*
X171095388Y-91525323D01*
X171095387Y-91525321D01*
X171080855Y-91452264D01*
X171080854Y-91452260D01*
X171025489Y-91369399D01*
X170942628Y-91314034D01*
X170942627Y-91314033D01*
X170942623Y-91314032D01*
X170869565Y-91299500D01*
X170869562Y-91299500D01*
X169220214Y-91299500D01*
X169220211Y-91299500D01*
X169147152Y-91314032D01*
X169147148Y-91314033D01*
X169064287Y-91369399D01*
X169008921Y-91452260D01*
X169008920Y-91452264D01*
X168994388Y-91525321D01*
X168070361Y-91525321D01*
X168780470Y-90815212D01*
X168826614Y-90735288D01*
X168832128Y-90714709D01*
X168850500Y-90646144D01*
X168850500Y-89431980D01*
X175701659Y-89431980D01*
X175701659Y-89431981D01*
X175720904Y-89639672D01*
X175720904Y-89639674D01*
X175720905Y-89639677D01*
X175777987Y-89840300D01*
X175870962Y-90027019D01*
X175996663Y-90193474D01*
X176150810Y-90333997D01*
X176328153Y-90443804D01*
X176522654Y-90519154D01*
X176727688Y-90557481D01*
X176727691Y-90557481D01*
X176936271Y-90557481D01*
X176936274Y-90557481D01*
X177141308Y-90519154D01*
X177335809Y-90443804D01*
X177513152Y-90333997D01*
X177667299Y-90193474D01*
X177793000Y-90027019D01*
X177885975Y-89840300D01*
X177943057Y-89639677D01*
X177962303Y-89431981D01*
X177943057Y-89224285D01*
X177885975Y-89023662D01*
X177793000Y-88836943D01*
X177667299Y-88670488D01*
X177658161Y-88662158D01*
X177513591Y-88530365D01*
X177513152Y-88529965D01*
X177335809Y-88420158D01*
X177335808Y-88420157D01*
X177163876Y-88353551D01*
X177141308Y-88344808D01*
X176936274Y-88306481D01*
X176727688Y-88306481D01*
X176522654Y-88344808D01*
X176522651Y-88344808D01*
X176522651Y-88344809D01*
X176328153Y-88420157D01*
X176328152Y-88420158D01*
X176150808Y-88529966D01*
X175996664Y-88670486D01*
X175870962Y-88836942D01*
X175777988Y-89023658D01*
X175774960Y-89034301D01*
X175722300Y-89219384D01*
X175720904Y-89224289D01*
X175701659Y-89431980D01*
X168850500Y-89431980D01*
X168850500Y-87119740D01*
X169692882Y-87119740D01*
X169692882Y-87119743D01*
X169712714Y-87346428D01*
X169712716Y-87346439D01*
X169771608Y-87566230D01*
X169771611Y-87566239D01*
X169867781Y-87772474D01*
X169867782Y-87772476D01*
X169998304Y-87958883D01*
X170159208Y-88119787D01*
X170186477Y-88138881D01*
X170345616Y-88250310D01*
X170551854Y-88346481D01*
X170771658Y-88405377D01*
X170933580Y-88419543D01*
X170998348Y-88425210D01*
X170998350Y-88425210D01*
X170998352Y-88425210D01*
X171056106Y-88420157D01*
X171225042Y-88405377D01*
X171444846Y-88346481D01*
X171651084Y-88250310D01*
X171837489Y-88119789D01*
X171998397Y-87958881D01*
X172128918Y-87772476D01*
X172225089Y-87566238D01*
X172283985Y-87346434D01*
X172303199Y-87126813D01*
X172303818Y-87119743D01*
X172303818Y-87119740D01*
X172297445Y-87046897D01*
X172283985Y-86893050D01*
X172235276Y-86711266D01*
X172225091Y-86673253D01*
X172225088Y-86673244D01*
X172216047Y-86653856D01*
X172128918Y-86467008D01*
X172009324Y-86296209D01*
X171998395Y-86280600D01*
X171837491Y-86119696D01*
X171651084Y-85989174D01*
X171651082Y-85989173D01*
X171444847Y-85893003D01*
X171444838Y-85893000D01*
X171225047Y-85834108D01*
X171225043Y-85834107D01*
X171225042Y-85834107D01*
X171225041Y-85834106D01*
X171225036Y-85834106D01*
X170998352Y-85814274D01*
X170998348Y-85814274D01*
X170771663Y-85834106D01*
X170771652Y-85834108D01*
X170551861Y-85893000D01*
X170551852Y-85893003D01*
X170345617Y-85989173D01*
X170345615Y-85989174D01*
X170159208Y-86119696D01*
X169998304Y-86280600D01*
X169867782Y-86467007D01*
X169867781Y-86467009D01*
X169771611Y-86673244D01*
X169771608Y-86673253D01*
X169712716Y-86893044D01*
X169712714Y-86893055D01*
X169692882Y-87119740D01*
X168850500Y-87119740D01*
X168850500Y-86653856D01*
X168826614Y-86564712D01*
X168815641Y-86545707D01*
X168780470Y-86484788D01*
X167965212Y-85669530D01*
X167965211Y-85669529D01*
X167965208Y-85669527D01*
X167885290Y-85623387D01*
X167885289Y-85623386D01*
X167885288Y-85623386D01*
X167796144Y-85599500D01*
X162553856Y-85599500D01*
X162464711Y-85623386D01*
X162384787Y-85669531D01*
X162384784Y-85669533D01*
X161549531Y-86504786D01*
X161549527Y-86504791D01*
X161521824Y-86552776D01*
X161521824Y-86552777D01*
X161503386Y-86584711D01*
X161479500Y-86673856D01*
X161479500Y-86915343D01*
X161459815Y-86982382D01*
X161421473Y-87020336D01*
X161359113Y-87059520D01*
X161359111Y-87059521D01*
X161282681Y-87135952D01*
X161221358Y-87169437D01*
X161151666Y-87164453D01*
X161107319Y-87135952D01*
X161030890Y-87059523D01*
X161030884Y-87059518D01*
X160887697Y-86969547D01*
X160887694Y-86969545D01*
X160728056Y-86913685D01*
X160560003Y-86894751D01*
X160559997Y-86894751D01*
X160391943Y-86913685D01*
X160232305Y-86969545D01*
X160232302Y-86969547D01*
X160089115Y-87059518D01*
X160089109Y-87059523D01*
X160012681Y-87135952D01*
X159951358Y-87169437D01*
X159881666Y-87164453D01*
X159837319Y-87135952D01*
X159760890Y-87059523D01*
X159760884Y-87059518D01*
X159617697Y-86969547D01*
X159617694Y-86969545D01*
X159458056Y-86913685D01*
X159290003Y-86894751D01*
X159289997Y-86894751D01*
X159121943Y-86913685D01*
X158962305Y-86969545D01*
X158962302Y-86969547D01*
X158819115Y-87059518D01*
X158819109Y-87059523D01*
X158742681Y-87135952D01*
X158681358Y-87169437D01*
X158611666Y-87164453D01*
X158567319Y-87135952D01*
X158490890Y-87059523D01*
X158490884Y-87059518D01*
X158347697Y-86969547D01*
X158347694Y-86969545D01*
X158188056Y-86913685D01*
X158020003Y-86894751D01*
X158019997Y-86894751D01*
X157851943Y-86913685D01*
X157692307Y-86969545D01*
X157610144Y-87021172D01*
X157542907Y-87040172D01*
X157476072Y-87019804D01*
X157441071Y-86985069D01*
X157430601Y-86969399D01*
X157375235Y-86932405D01*
X157347739Y-86914033D01*
X157347735Y-86914032D01*
X157274677Y-86899500D01*
X157274674Y-86899500D01*
X156225326Y-86899500D01*
X156225323Y-86899500D01*
X156152264Y-86914032D01*
X156152260Y-86914033D01*
X156069399Y-86969399D01*
X156014033Y-87052260D01*
X156014032Y-87052264D01*
X155999500Y-87125321D01*
X155999500Y-88174678D01*
X156014032Y-88247735D01*
X156014033Y-88247739D01*
X156028992Y-88270127D01*
X156069399Y-88330601D01*
X156123287Y-88366607D01*
X156152260Y-88385966D01*
X156152264Y-88385967D01*
X156225321Y-88400499D01*
X156225324Y-88400500D01*
X156225326Y-88400500D01*
X157274676Y-88400500D01*
X157274677Y-88400499D01*
X157347740Y-88385966D01*
X157430601Y-88330601D01*
X157441070Y-88314932D01*
X157494677Y-88270127D01*
X157564001Y-88261417D01*
X157610144Y-88278827D01*
X157671875Y-88317616D01*
X157692307Y-88330454D01*
X157692305Y-88330454D01*
X157692309Y-88330455D01*
X157692310Y-88330456D01*
X157738104Y-88346480D01*
X157851943Y-88386314D01*
X158019997Y-88405249D01*
X158020000Y-88405249D01*
X158020003Y-88405249D01*
X158188056Y-88386314D01*
X158192797Y-88384655D01*
X158347690Y-88330456D01*
X158347692Y-88330454D01*
X158347694Y-88330454D01*
X158347697Y-88330452D01*
X158490884Y-88240481D01*
X158490885Y-88240480D01*
X158490890Y-88240477D01*
X158567319Y-88164048D01*
X158628642Y-88130563D01*
X158698334Y-88135547D01*
X158742681Y-88164048D01*
X158819109Y-88240476D01*
X158819115Y-88240481D01*
X158962302Y-88330452D01*
X158962305Y-88330454D01*
X158962309Y-88330455D01*
X158962310Y-88330456D01*
X159008104Y-88346480D01*
X159121943Y-88386314D01*
X159289997Y-88405249D01*
X159290000Y-88405249D01*
X159290003Y-88405249D01*
X159458056Y-88386314D01*
X159462797Y-88384655D01*
X159617690Y-88330456D01*
X159617692Y-88330454D01*
X159617694Y-88330454D01*
X159617697Y-88330452D01*
X159760884Y-88240481D01*
X159760885Y-88240480D01*
X159760890Y-88240477D01*
X159837319Y-88164048D01*
X159898642Y-88130563D01*
X159968334Y-88135547D01*
X160012681Y-88164048D01*
X160089109Y-88240476D01*
X160089115Y-88240481D01*
X160232302Y-88330452D01*
X160232305Y-88330454D01*
X160232309Y-88330455D01*
X160232310Y-88330456D01*
X160278104Y-88346480D01*
X160391943Y-88386314D01*
X160559997Y-88405249D01*
X160560000Y-88405249D01*
X160560003Y-88405249D01*
X160728056Y-88386314D01*
X160732797Y-88384655D01*
X160887690Y-88330456D01*
X160887692Y-88330454D01*
X160887694Y-88330454D01*
X160887697Y-88330452D01*
X161030884Y-88240481D01*
X161030885Y-88240480D01*
X161030890Y-88240477D01*
X161107319Y-88164048D01*
X161168642Y-88130563D01*
X161238334Y-88135547D01*
X161282681Y-88164048D01*
X161359109Y-88240476D01*
X161359115Y-88240481D01*
X161502302Y-88330452D01*
X161502305Y-88330454D01*
X161502309Y-88330455D01*
X161502310Y-88330456D01*
X161548104Y-88346480D01*
X161661943Y-88386314D01*
X161829997Y-88405249D01*
X161830000Y-88405249D01*
X161830003Y-88405249D01*
X161998056Y-88386314D01*
X162002797Y-88384655D01*
X162157690Y-88330456D01*
X162157692Y-88330454D01*
X162157694Y-88330454D01*
X162157697Y-88330452D01*
X162300884Y-88240481D01*
X162300885Y-88240480D01*
X162300890Y-88240477D01*
X162377319Y-88164048D01*
X162438642Y-88130563D01*
X162508334Y-88135547D01*
X162552681Y-88164048D01*
X162629110Y-88240477D01*
X162691473Y-88279662D01*
X162737763Y-88331995D01*
X162749500Y-88384655D01*
X162749500Y-88403456D01*
X162729815Y-88470495D01*
X162713181Y-88491137D01*
X162279532Y-88924785D01*
X162279527Y-88924791D01*
X162236394Y-88999499D01*
X162236395Y-88999500D01*
X162233387Y-89004708D01*
X162233386Y-89004712D01*
X162209500Y-89093856D01*
X162209500Y-89093858D01*
X162209500Y-91313908D01*
X162189815Y-91380947D01*
X162171913Y-91400412D01*
X162173129Y-91401628D01*
X162167384Y-91407372D01*
X162079137Y-91522377D01*
X162023671Y-91656287D01*
X162023670Y-91656291D01*
X162004750Y-91800000D01*
X162004750Y-91808128D01*
X162001456Y-91808128D01*
X161992192Y-91862588D01*
X161968440Y-91895876D01*
X161851138Y-92013180D01*
X161789815Y-92046666D01*
X161763456Y-92049500D01*
X160353856Y-92049500D01*
X160264711Y-92073386D01*
X160184787Y-92119531D01*
X160184784Y-92119533D01*
X159591137Y-92713181D01*
X159529814Y-92746666D01*
X159503456Y-92749500D01*
X151353856Y-92749500D01*
X151270073Y-92771948D01*
X151270074Y-92771949D01*
X151264712Y-92773385D01*
X151264708Y-92773387D01*
X151184791Y-92819527D01*
X151184786Y-92819531D01*
X150894529Y-93109788D01*
X150868144Y-93155491D01*
X150868142Y-93155493D01*
X150848388Y-93189706D01*
X150848387Y-93189709D01*
X150848386Y-93189711D01*
X150848386Y-93189712D01*
X150832807Y-93247854D01*
X150824500Y-93278856D01*
X150824500Y-93707745D01*
X150804815Y-93774784D01*
X150788181Y-93795426D01*
X150696954Y-93886652D01*
X150696949Y-93886659D01*
X150650483Y-93977852D01*
X150602508Y-94028648D01*
X150534687Y-94045442D01*
X150468552Y-94022904D01*
X150429516Y-93977852D01*
X150383050Y-93886658D01*
X150383047Y-93886655D01*
X150383045Y-93886652D01*
X150291819Y-93795426D01*
X150258334Y-93734103D01*
X150255500Y-93707745D01*
X150255500Y-93581104D01*
X150275185Y-93514065D01*
X150291819Y-93493423D01*
X150292616Y-93492625D01*
X150292618Y-93492623D01*
X150292621Y-93492621D01*
X150380861Y-93377625D01*
X150436330Y-93243709D01*
X150455250Y-93100000D01*
X150436330Y-92956291D01*
X150394381Y-92855015D01*
X150380862Y-92822377D01*
X150380861Y-92822376D01*
X150380861Y-92822375D01*
X150292621Y-92707379D01*
X150177625Y-92619139D01*
X150177624Y-92619138D01*
X150177622Y-92619137D01*
X150043712Y-92563671D01*
X150043710Y-92563670D01*
X150043709Y-92563670D01*
X149971854Y-92554210D01*
X149900001Y-92544750D01*
X149899999Y-92544750D01*
X149756291Y-92563670D01*
X149756287Y-92563671D01*
X149622377Y-92619137D01*
X149507379Y-92707379D01*
X149419137Y-92822377D01*
X149364561Y-92954139D01*
X149320720Y-93008543D01*
X149254426Y-93030608D01*
X149186727Y-93013329D01*
X149139116Y-92962192D01*
X149135439Y-92954139D01*
X149080862Y-92822377D01*
X149080861Y-92822376D01*
X149080861Y-92822375D01*
X148992621Y-92707379D01*
X148877625Y-92619139D01*
X148877624Y-92619138D01*
X148877622Y-92619137D01*
X148743712Y-92563671D01*
X148743710Y-92563670D01*
X148743709Y-92563670D01*
X148671854Y-92554210D01*
X148600001Y-92544750D01*
X148599999Y-92544750D01*
X148456291Y-92563670D01*
X148456287Y-92563671D01*
X148322377Y-92619137D01*
X148207379Y-92707379D01*
X148119137Y-92822377D01*
X148097061Y-92875676D01*
X148053220Y-92930080D01*
X147986926Y-92952145D01*
X147919227Y-92934866D01*
X147871616Y-92883729D01*
X147867939Y-92875676D01*
X147845862Y-92822377D01*
X147845861Y-92822376D01*
X147845861Y-92822375D01*
X147757621Y-92707379D01*
X147642625Y-92619139D01*
X147642624Y-92619138D01*
X147642622Y-92619137D01*
X147508712Y-92563671D01*
X147508710Y-92563670D01*
X147508709Y-92563670D01*
X147436854Y-92554210D01*
X147365001Y-92544750D01*
X147364999Y-92544750D01*
X147221291Y-92563670D01*
X147221287Y-92563671D01*
X147087377Y-92619137D01*
X146972379Y-92707379D01*
X146884137Y-92822377D01*
X146847061Y-92911890D01*
X146803221Y-92966294D01*
X146736927Y-92988359D01*
X146669227Y-92971080D01*
X146621616Y-92919943D01*
X146617939Y-92911890D01*
X146580862Y-92822377D01*
X146580861Y-92822376D01*
X146580861Y-92822375D01*
X146492621Y-92707379D01*
X146377625Y-92619139D01*
X146377624Y-92619138D01*
X146377622Y-92619137D01*
X146243712Y-92563671D01*
X146243710Y-92563670D01*
X146243709Y-92563670D01*
X146171854Y-92554210D01*
X146100001Y-92544750D01*
X146099999Y-92544750D01*
X145956291Y-92563670D01*
X145956287Y-92563671D01*
X145822377Y-92619137D01*
X145707379Y-92707379D01*
X145619137Y-92822377D01*
X145563671Y-92956287D01*
X145563670Y-92956291D01*
X145554279Y-93027625D01*
X145544750Y-93100000D01*
X145554581Y-93174676D01*
X145563670Y-93243708D01*
X145563671Y-93243712D01*
X145619137Y-93377622D01*
X145619138Y-93377623D01*
X145619139Y-93377625D01*
X145707379Y-93492621D01*
X145707381Y-93492622D01*
X145707383Y-93492625D01*
X145708181Y-93493423D01*
X145708638Y-93494261D01*
X145712327Y-93499068D01*
X145711577Y-93499643D01*
X145741666Y-93554746D01*
X145744500Y-93581104D01*
X145744500Y-93707745D01*
X145724815Y-93774784D01*
X145708181Y-93795426D01*
X145616954Y-93886652D01*
X145616949Y-93886659D01*
X145570483Y-93977852D01*
X145522508Y-94028648D01*
X145454687Y-94045442D01*
X145388552Y-94022904D01*
X145349516Y-93977852D01*
X145303050Y-93886658D01*
X145303047Y-93886655D01*
X145303045Y-93886652D01*
X145213347Y-93796954D01*
X145213344Y-93796952D01*
X145213342Y-93796950D01*
X145120217Y-93749500D01*
X145100301Y-93739352D01*
X145006524Y-93724500D01*
X144643482Y-93724500D01*
X144562519Y-93737323D01*
X144549696Y-93739354D01*
X144436658Y-93796950D01*
X144436657Y-93796951D01*
X144436652Y-93796954D01*
X144346954Y-93886652D01*
X144346949Y-93886659D01*
X144300203Y-93978401D01*
X144252228Y-94029197D01*
X144184407Y-94045991D01*
X144118272Y-94023453D01*
X144079234Y-93978400D01*
X144032639Y-93886954D01*
X144032636Y-93886949D01*
X143943050Y-93797363D01*
X143943046Y-93797360D01*
X143830144Y-93739833D01*
X143736486Y-93725000D01*
X143680000Y-93725000D01*
X143680000Y-96174999D01*
X143736479Y-96174999D01*
X143830149Y-96160164D01*
X143830155Y-96160162D01*
X143943041Y-96102643D01*
X143943050Y-96102636D01*
X144032636Y-96013050D01*
X144032641Y-96013044D01*
X144079234Y-95921599D01*
X144127208Y-95870803D01*
X144195029Y-95854007D01*
X144261164Y-95876544D01*
X144300203Y-95921598D01*
X144346947Y-96013338D01*
X144346954Y-96013347D01*
X144436652Y-96103045D01*
X144436654Y-96103046D01*
X144436658Y-96103050D01*
X144538778Y-96155083D01*
X144549698Y-96160647D01*
X144637116Y-96174491D01*
X144640311Y-96174998D01*
X144643475Y-96175499D01*
X144643481Y-96175500D01*
X145006518Y-96175499D01*
X145100304Y-96160646D01*
X145213342Y-96103050D01*
X145303050Y-96013342D01*
X145349516Y-95922145D01*
X145397490Y-95871352D01*
X145465311Y-95854557D01*
X145531445Y-95877094D01*
X145570482Y-95922145D01*
X145616950Y-96013342D01*
X145706658Y-96103050D01*
X145706660Y-96103051D01*
X145708181Y-96104572D01*
X145741666Y-96165895D01*
X145744500Y-96192254D01*
X145744500Y-96241142D01*
X145744499Y-96241142D01*
X145760348Y-96300288D01*
X145760347Y-96300288D01*
X145760348Y-96300290D01*
X145768384Y-96330284D01*
X145768385Y-96330286D01*
X145768386Y-96330288D01*
X145768864Y-96331116D01*
X145814527Y-96410208D01*
X145814529Y-96410211D01*
X145814530Y-96410212D01*
X146458774Y-97054456D01*
X146892138Y-97487819D01*
X146925623Y-97549142D01*
X146920639Y-97618834D01*
X146878767Y-97674767D01*
X146813303Y-97699184D01*
X146804457Y-97699500D01*
X144203856Y-97699500D01*
X144127348Y-97720000D01*
X144127347Y-97719999D01*
X144114711Y-97723385D01*
X144114706Y-97723388D01*
X144034794Y-97769526D01*
X144034785Y-97769533D01*
X143274531Y-98529786D01*
X143274530Y-98529788D01*
X143254096Y-98565182D01*
X143245270Y-98580469D01*
X143245268Y-98580472D01*
X143228387Y-98609709D01*
X143228386Y-98609711D01*
X143228386Y-98609712D01*
X143210892Y-98675000D01*
X143209011Y-98682021D01*
X143172645Y-98741681D01*
X143168782Y-98744824D01*
X143076954Y-98836652D01*
X143076951Y-98836657D01*
X143076950Y-98836658D01*
X143071383Y-98847584D01*
X143019352Y-98949698D01*
X143004500Y-99043475D01*
X143004500Y-100756517D01*
X143008460Y-100781517D01*
X143019354Y-100850304D01*
X143076950Y-100963342D01*
X143076952Y-100963344D01*
X143076954Y-100963347D01*
X143166652Y-101053045D01*
X143166654Y-101053046D01*
X143166658Y-101053050D01*
X143278746Y-101110162D01*
X143279698Y-101110647D01*
X143367116Y-101124491D01*
X143370311Y-101124998D01*
X143373475Y-101125499D01*
X143373481Y-101125500D01*
X143736518Y-101125499D01*
X143830304Y-101110646D01*
X143943342Y-101053050D01*
X144033050Y-100963342D01*
X144079516Y-100872145D01*
X144127490Y-100821352D01*
X144195311Y-100804557D01*
X144261445Y-100827094D01*
X144300482Y-100872145D01*
X144346950Y-100963342D01*
X144436658Y-101053050D01*
X144436660Y-101053051D01*
X144438181Y-101054572D01*
X144471666Y-101115895D01*
X144474500Y-101142254D01*
X144474500Y-101238908D01*
X144454815Y-101305947D01*
X144436913Y-101325412D01*
X144438129Y-101326628D01*
X144432384Y-101332372D01*
X144344137Y-101447377D01*
X144288671Y-101581287D01*
X144288670Y-101581291D01*
X144269750Y-101725000D01*
X144284504Y-101837069D01*
X144288670Y-101868708D01*
X144288671Y-101868712D01*
X144344137Y-102002622D01*
X144344138Y-102002623D01*
X144344139Y-102002625D01*
X144432379Y-102117621D01*
X144547375Y-102205861D01*
X144547376Y-102205861D01*
X144547377Y-102205862D01*
X144569953Y-102215213D01*
X144681291Y-102261330D01*
X144808280Y-102278048D01*
X144824999Y-102280250D01*
X144825000Y-102280250D01*
X144825001Y-102280250D01*
X144839977Y-102278278D01*
X144968709Y-102261330D01*
X145102625Y-102205861D01*
X145217621Y-102117621D01*
X145305861Y-102002625D01*
X145342762Y-101913536D01*
X145386601Y-101859135D01*
X145452895Y-101837069D01*
X145520594Y-101854347D01*
X145568205Y-101905484D01*
X145571883Y-101913538D01*
X145619137Y-102027622D01*
X145619138Y-102027623D01*
X145619139Y-102027625D01*
X145707379Y-102142621D01*
X145822375Y-102230861D01*
X145956291Y-102286330D01*
X146083280Y-102303048D01*
X146099999Y-102305250D01*
X146100000Y-102305250D01*
X146100001Y-102305250D01*
X146114977Y-102303278D01*
X146243709Y-102286330D01*
X146377625Y-102230861D01*
X146492621Y-102142621D01*
X146580861Y-102027625D01*
X146610440Y-101956213D01*
X146654279Y-101901813D01*
X146720573Y-101879747D01*
X146788272Y-101897026D01*
X146835883Y-101948162D01*
X146839549Y-101956189D01*
X146869139Y-102027625D01*
X146957379Y-102142621D01*
X147072375Y-102230861D01*
X147206291Y-102286330D01*
X147333280Y-102303048D01*
X147349999Y-102305250D01*
X147350000Y-102305250D01*
X147350001Y-102305250D01*
X147364977Y-102303278D01*
X147493709Y-102286330D01*
X147627625Y-102230861D01*
X147742621Y-102142621D01*
X147830861Y-102027625D01*
X147885439Y-101895859D01*
X147929279Y-101841456D01*
X147995573Y-101819391D01*
X148063273Y-101836670D01*
X148110884Y-101887807D01*
X148114561Y-101895860D01*
X148169138Y-102027623D01*
X148169139Y-102027625D01*
X148257380Y-102142623D01*
X148263126Y-102148369D01*
X148260574Y-102150920D01*
X148292091Y-102193873D01*
X148299500Y-102236092D01*
X148299500Y-102653456D01*
X148279815Y-102720495D01*
X148263181Y-102741137D01*
X148041137Y-102963181D01*
X147979814Y-102996666D01*
X147953456Y-102999500D01*
X138343307Y-102999500D01*
X138276268Y-102979815D01*
X138255626Y-102963181D01*
X137703976Y-102411531D01*
X137703971Y-102411527D01*
X137624051Y-102365386D01*
X137614491Y-102362824D01*
X137614490Y-102362824D01*
X137574698Y-102352162D01*
X137534907Y-102341500D01*
X137534906Y-102341500D01*
X119738544Y-102341500D01*
X119671505Y-102321815D01*
X119650863Y-102305181D01*
X119236819Y-101891137D01*
X119203334Y-101829814D01*
X119200500Y-101803456D01*
X119200500Y-98999996D01*
X125244415Y-98999996D01*
X125244415Y-99000003D01*
X125264738Y-99348927D01*
X125264739Y-99348938D01*
X125325428Y-99693127D01*
X125325430Y-99693134D01*
X125425674Y-100027972D01*
X125564107Y-100348895D01*
X125564113Y-100348908D01*
X125738870Y-100651597D01*
X125947584Y-100931949D01*
X125947589Y-100931955D01*
X126061453Y-101052643D01*
X126187442Y-101186183D01*
X126352947Y-101325058D01*
X126455186Y-101410847D01*
X126455194Y-101410853D01*
X126747203Y-101602911D01*
X126901910Y-101680608D01*
X127059549Y-101759777D01*
X127387989Y-101879319D01*
X127728086Y-101959923D01*
X128075241Y-102000500D01*
X128075248Y-102000500D01*
X128424752Y-102000500D01*
X128424759Y-102000500D01*
X128771914Y-101959923D01*
X129112011Y-101879319D01*
X129440451Y-101759777D01*
X129752793Y-101602913D01*
X130044811Y-101410849D01*
X130312558Y-101186183D01*
X130552412Y-100931953D01*
X130761130Y-100651596D01*
X130935889Y-100348904D01*
X131074326Y-100027971D01*
X131174569Y-99693136D01*
X131176611Y-99681559D01*
X131235260Y-99348938D01*
X131235259Y-99348938D01*
X131235262Y-99348927D01*
X131253052Y-99043482D01*
X131255585Y-99000003D01*
X131255585Y-98999996D01*
X131248861Y-98884556D01*
X131235262Y-98651073D01*
X131227969Y-98609712D01*
X131174571Y-98306872D01*
X131174569Y-98306865D01*
X131174569Y-98306864D01*
X131074326Y-97972029D01*
X130935889Y-97651096D01*
X130845464Y-97494475D01*
X130761129Y-97348402D01*
X130552415Y-97068050D01*
X130552410Y-97068044D01*
X130397729Y-96904093D01*
X130312558Y-96813817D01*
X130142244Y-96670907D01*
X130044813Y-96589152D01*
X130044805Y-96589146D01*
X129752796Y-96397088D01*
X129440458Y-96240226D01*
X129440452Y-96240223D01*
X129112012Y-96120681D01*
X129112009Y-96120680D01*
X128771915Y-96040077D01*
X128726912Y-96034817D01*
X128424759Y-95999500D01*
X128075241Y-95999500D01*
X127773088Y-96034817D01*
X127728085Y-96040077D01*
X127728083Y-96040077D01*
X127387990Y-96120680D01*
X127387987Y-96120681D01*
X127059547Y-96240223D01*
X127059541Y-96240226D01*
X126747203Y-96397088D01*
X126455194Y-96589146D01*
X126455186Y-96589152D01*
X126187442Y-96813817D01*
X126187440Y-96813819D01*
X125947589Y-97068044D01*
X125947584Y-97068050D01*
X125738870Y-97348402D01*
X125564113Y-97651091D01*
X125564107Y-97651104D01*
X125425674Y-97972027D01*
X125325430Y-98306865D01*
X125325428Y-98306872D01*
X125264739Y-98651061D01*
X125264738Y-98651072D01*
X125244415Y-98999996D01*
X119200500Y-98999996D01*
X119200500Y-93999996D01*
X131994415Y-93999996D01*
X131994415Y-94000003D01*
X132014738Y-94348927D01*
X132014739Y-94348938D01*
X132075428Y-94693127D01*
X132075430Y-94693134D01*
X132175674Y-95027972D01*
X132314107Y-95348895D01*
X132314113Y-95348908D01*
X132488870Y-95651597D01*
X132697584Y-95931949D01*
X132697589Y-95931955D01*
X132797957Y-96038338D01*
X132937442Y-96186183D01*
X133085996Y-96310834D01*
X133205186Y-96410847D01*
X133205194Y-96410853D01*
X133497203Y-96602911D01*
X133737546Y-96723616D01*
X133809549Y-96759777D01*
X134137989Y-96879319D01*
X134478086Y-96959923D01*
X134825241Y-97000500D01*
X134825248Y-97000500D01*
X135174752Y-97000500D01*
X135174759Y-97000500D01*
X135521914Y-96959923D01*
X135862011Y-96879319D01*
X136190451Y-96759777D01*
X136502793Y-96602913D01*
X136697677Y-96474735D01*
X136794805Y-96410853D01*
X136794805Y-96410852D01*
X136794811Y-96410849D01*
X137062558Y-96186183D01*
X137302412Y-95931953D01*
X137395824Y-95806479D01*
X143005001Y-95806479D01*
X143019835Y-95900149D01*
X143019837Y-95900155D01*
X143077356Y-96013041D01*
X143077363Y-96013050D01*
X143166949Y-96102636D01*
X143166953Y-96102639D01*
X143279855Y-96160166D01*
X143373514Y-96174999D01*
X143429999Y-96174998D01*
X143430000Y-96174998D01*
X143430000Y-95075000D01*
X143005001Y-95075000D01*
X143005001Y-95806479D01*
X137395824Y-95806479D01*
X137511130Y-95651596D01*
X137685889Y-95348904D01*
X137824326Y-95027971D01*
X137924569Y-94693136D01*
X137926973Y-94679505D01*
X137985260Y-94348938D01*
X137985259Y-94348938D01*
X137985262Y-94348927D01*
X138000138Y-94093513D01*
X143005000Y-94093513D01*
X143005000Y-94825000D01*
X143430000Y-94825000D01*
X143430000Y-93725000D01*
X143429999Y-93724999D01*
X143373521Y-93725000D01*
X143279849Y-93739835D01*
X143279844Y-93739837D01*
X143166958Y-93797356D01*
X143166949Y-93797363D01*
X143077363Y-93886949D01*
X143077360Y-93886953D01*
X143019833Y-93999855D01*
X143005000Y-94093513D01*
X138000138Y-94093513D01*
X138002938Y-94045442D01*
X138005585Y-94000003D01*
X138005585Y-93999996D01*
X138000457Y-93911953D01*
X137985262Y-93651073D01*
X137985260Y-93651061D01*
X137924571Y-93306872D01*
X137924569Y-93306865D01*
X137923502Y-93303301D01*
X137824326Y-92972029D01*
X137685889Y-92651096D01*
X137515083Y-92355250D01*
X137511129Y-92348402D01*
X137302415Y-92068050D01*
X137302410Y-92068044D01*
X137148398Y-91904802D01*
X137062558Y-91813817D01*
X136908271Y-91684355D01*
X136794813Y-91589152D01*
X136794805Y-91589146D01*
X136502796Y-91397088D01*
X136190458Y-91240226D01*
X136190452Y-91240223D01*
X135862012Y-91120681D01*
X135862009Y-91120680D01*
X135521915Y-91040077D01*
X135478519Y-91035004D01*
X135174759Y-90999500D01*
X134825241Y-90999500D01*
X134521480Y-91035004D01*
X134478085Y-91040077D01*
X134478083Y-91040077D01*
X134137990Y-91120680D01*
X134137987Y-91120681D01*
X133809547Y-91240223D01*
X133809541Y-91240226D01*
X133497203Y-91397088D01*
X133205194Y-91589146D01*
X133205186Y-91589152D01*
X132937442Y-91813817D01*
X132937440Y-91813819D01*
X132697589Y-92068044D01*
X132697584Y-92068050D01*
X132488870Y-92348402D01*
X132314113Y-92651091D01*
X132314107Y-92651104D01*
X132175674Y-92972027D01*
X132075430Y-93306865D01*
X132075428Y-93306872D01*
X132014739Y-93651061D01*
X132014738Y-93651072D01*
X131994415Y-93999996D01*
X119200500Y-93999996D01*
X119200500Y-87406164D01*
X119220185Y-87339125D01*
X119272989Y-87293370D01*
X119279696Y-87290541D01*
X119353828Y-87261823D01*
X119531171Y-87152016D01*
X119558821Y-87126810D01*
X120189111Y-87126810D01*
X120189111Y-87126813D01*
X120208943Y-87353498D01*
X120208945Y-87353509D01*
X120267837Y-87573300D01*
X120267840Y-87573309D01*
X120364010Y-87779544D01*
X120364011Y-87779546D01*
X120494533Y-87965953D01*
X120655437Y-88126857D01*
X120664803Y-88133415D01*
X120841845Y-88257380D01*
X121048083Y-88353551D01*
X121267887Y-88412447D01*
X121413769Y-88425210D01*
X121494577Y-88432280D01*
X121494579Y-88432280D01*
X121494581Y-88432280D01*
X121575389Y-88425210D01*
X121721271Y-88412447D01*
X121941075Y-88353551D01*
X122147313Y-88257380D01*
X122333718Y-88126859D01*
X122494626Y-87965951D01*
X122625147Y-87779546D01*
X122685558Y-87649994D01*
X127994357Y-87649994D01*
X127994357Y-87650005D01*
X128014890Y-87897812D01*
X128014892Y-87897824D01*
X128075936Y-88138881D01*
X128175826Y-88366606D01*
X128311833Y-88574782D01*
X128311835Y-88574784D01*
X128311836Y-88574785D01*
X128480256Y-88757738D01*
X128676491Y-88910474D01*
X128716744Y-88932258D01*
X128850627Y-89004712D01*
X128895190Y-89028828D01*
X129130386Y-89109571D01*
X129375665Y-89150500D01*
X129624335Y-89150500D01*
X129869614Y-89109571D01*
X130104810Y-89028828D01*
X130323509Y-88910474D01*
X130519744Y-88757738D01*
X130688164Y-88574785D01*
X130824173Y-88366607D01*
X130924063Y-88138881D01*
X130985108Y-87897821D01*
X130985271Y-87895858D01*
X131005643Y-87650005D01*
X131005643Y-87649994D01*
X130985109Y-87402187D01*
X130985107Y-87402175D01*
X130924063Y-87161118D01*
X130824173Y-86933393D01*
X130688166Y-86725217D01*
X130646838Y-86680323D01*
X130519744Y-86542262D01*
X130323509Y-86389526D01*
X130323507Y-86389525D01*
X130323506Y-86389524D01*
X130104811Y-86271172D01*
X130104802Y-86271169D01*
X129869616Y-86190429D01*
X129624335Y-86149500D01*
X129375665Y-86149500D01*
X129130383Y-86190429D01*
X128895197Y-86271169D01*
X128895188Y-86271172D01*
X128676493Y-86389524D01*
X128480257Y-86542261D01*
X128311833Y-86725217D01*
X128175826Y-86933393D01*
X128075936Y-87161118D01*
X128014892Y-87402175D01*
X128014890Y-87402187D01*
X127994357Y-87649994D01*
X122685558Y-87649994D01*
X122721318Y-87573308D01*
X122780214Y-87353504D01*
X122799216Y-87136306D01*
X122800047Y-87126813D01*
X122800047Y-87126810D01*
X122790772Y-87020799D01*
X122780214Y-86900120D01*
X122721318Y-86680316D01*
X122625147Y-86474078D01*
X122505592Y-86303334D01*
X122494624Y-86287670D01*
X122333720Y-86126766D01*
X122147313Y-85996244D01*
X122147311Y-85996243D01*
X121941076Y-85900073D01*
X121941067Y-85900070D01*
X121721276Y-85841178D01*
X121721272Y-85841177D01*
X121721271Y-85841177D01*
X121721270Y-85841176D01*
X121721265Y-85841176D01*
X121494581Y-85821344D01*
X121494577Y-85821344D01*
X121267892Y-85841176D01*
X121267881Y-85841178D01*
X121048090Y-85900070D01*
X121048081Y-85900073D01*
X120841846Y-85996243D01*
X120841844Y-85996244D01*
X120655437Y-86126766D01*
X120494533Y-86287670D01*
X120364011Y-86474077D01*
X120364010Y-86474079D01*
X120267840Y-86680314D01*
X120267837Y-86680323D01*
X120208945Y-86900114D01*
X120208943Y-86900125D01*
X120189111Y-87126810D01*
X119558821Y-87126810D01*
X119685318Y-87011493D01*
X119811019Y-86845038D01*
X119903994Y-86658319D01*
X119961076Y-86457696D01*
X119980322Y-86250000D01*
X119961076Y-86042304D01*
X119903994Y-85841681D01*
X119811019Y-85654962D01*
X119685318Y-85488507D01*
X119551084Y-85366137D01*
X119514803Y-85306426D01*
X119516563Y-85236579D01*
X119555806Y-85178771D01*
X119620073Y-85151357D01*
X119634622Y-85150500D01*
X138125500Y-85150500D01*
X138192539Y-85170185D01*
X138238294Y-85222989D01*
X138249500Y-85274500D01*
X138249500Y-91715891D01*
X138283608Y-91843187D01*
X138314029Y-91895876D01*
X138349500Y-91957314D01*
X138442686Y-92050500D01*
X138556814Y-92116392D01*
X138684108Y-92150500D01*
X138684110Y-92150500D01*
X153815890Y-92150500D01*
X153815892Y-92150500D01*
X153943186Y-92116392D01*
X154057314Y-92050500D01*
X154071495Y-92036319D01*
X154132818Y-92002834D01*
X154159176Y-92000000D01*
X154200000Y-92000000D01*
X154200000Y-91904802D01*
X154214377Y-91851146D01*
X154213282Y-91850693D01*
X154216391Y-91843187D01*
X154216392Y-91843186D01*
X154250500Y-91715892D01*
X154250500Y-85274500D01*
X154270185Y-85207461D01*
X154322989Y-85161706D01*
X154374500Y-85150500D01*
X172866119Y-85150500D01*
X172933158Y-85170185D01*
X172978913Y-85222989D01*
X172988857Y-85292147D01*
X172959832Y-85355703D01*
X172949657Y-85366137D01*
X172815054Y-85488842D01*
X172689409Y-85655223D01*
X172689404Y-85655231D01*
X172596478Y-85841851D01*
X172596472Y-85841866D01*
X172539417Y-86042394D01*
X172531762Y-86124999D01*
X172531763Y-86125000D01*
X173171032Y-86125000D01*
X173155000Y-86184832D01*
X173155000Y-86315168D01*
X173171032Y-86375000D01*
X172531763Y-86375000D01*
X172539417Y-86457605D01*
X172596472Y-86658133D01*
X172596478Y-86658148D01*
X172689404Y-86844768D01*
X172689409Y-86844776D01*
X172815054Y-87011157D01*
X172969130Y-87151615D01*
X172969132Y-87151617D01*
X173146392Y-87261371D01*
X173146398Y-87261374D01*
X173340811Y-87336689D01*
X173525000Y-87371119D01*
X173525000Y-86728967D01*
X173584832Y-86745000D01*
X173715168Y-86745000D01*
X173775000Y-86728967D01*
X173775000Y-87371119D01*
X173959187Y-87336689D01*
X173959188Y-87336689D01*
X174153601Y-87261374D01*
X174153607Y-87261371D01*
X174330867Y-87151617D01*
X174330869Y-87151615D01*
X174484945Y-87011157D01*
X174610590Y-86844776D01*
X174610595Y-86844768D01*
X174703521Y-86658148D01*
X174703527Y-86658133D01*
X174760582Y-86457605D01*
X174768237Y-86375000D01*
X174128968Y-86375000D01*
X174145000Y-86315168D01*
X174145000Y-86184832D01*
X174128968Y-86125000D01*
X174768237Y-86125000D01*
X174768237Y-86124999D01*
X174760582Y-86042394D01*
X174703527Y-85841866D01*
X174703521Y-85841851D01*
X174610595Y-85655231D01*
X174610590Y-85655223D01*
X174484945Y-85488842D01*
X174350343Y-85366137D01*
X174314061Y-85306426D01*
X174315822Y-85236578D01*
X174355065Y-85178771D01*
X174419332Y-85151356D01*
X174433881Y-85150500D01*
X175491324Y-85150500D01*
X175558363Y-85170185D01*
X175579005Y-85186819D01*
X178849500Y-88457314D01*
X178942686Y-88550500D01*
X178984749Y-88574785D01*
X179056814Y-88616392D01*
X179184107Y-88650500D01*
X179184108Y-88650500D01*
X179184109Y-88650500D01*
X179315890Y-88650500D01*
X179315892Y-88650500D01*
X179352902Y-88640583D01*
X179422749Y-88642244D01*
X179472676Y-88672676D01*
X179500000Y-88700000D01*
X179590962Y-88609038D01*
X189013181Y-79186819D01*
X189074504Y-79153334D01*
X189100862Y-79150500D01*
X210375500Y-79150500D01*
X210442539Y-79170185D01*
X210488294Y-79222989D01*
X210499500Y-79274500D01*
X210499500Y-102991324D01*
X210479815Y-103058363D01*
X210463181Y-103079005D01*
X195079005Y-118463181D01*
X195017682Y-118496666D01*
X194991324Y-118499500D01*
X190067820Y-118499500D01*
X190000781Y-118479815D01*
X189955026Y-118427011D01*
X189946719Y-118402157D01*
X189896036Y-118171904D01*
X189886619Y-118129122D01*
X189774074Y-117795099D01*
X189747786Y-117738278D01*
X189711461Y-117659762D01*
X189700000Y-117607696D01*
X189700000Y-115850000D01*
X187571736Y-115850000D01*
X187538562Y-115845480D01*
X187449796Y-115820834D01*
X187449793Y-115820833D01*
X187449789Y-115820832D01*
X187449788Y-115820832D01*
X187358698Y-115805898D01*
X187101954Y-115763808D01*
X186750003Y-115744726D01*
X186749997Y-115744726D01*
X186398045Y-115763808D01*
X186050206Y-115820833D01*
X186050203Y-115820834D01*
X185961438Y-115845480D01*
X185928264Y-115850000D01*
X183800000Y-115850000D01*
X183800000Y-117607696D01*
X183788539Y-117659762D01*
X183725930Y-117795089D01*
X183725928Y-117795093D01*
X183725926Y-117795099D01*
X183671521Y-117956566D01*
X183613381Y-118129120D01*
X183553281Y-118402157D01*
X183519645Y-118463397D01*
X183458240Y-118496731D01*
X183432180Y-118499500D01*
X109068264Y-118499500D01*
X109001225Y-118479815D01*
X108955470Y-118427011D01*
X108946974Y-118401281D01*
X108892414Y-118144600D01*
X108892413Y-118144599D01*
X108892413Y-118144596D01*
X108785510Y-117815584D01*
X108707185Y-117639663D01*
X108660720Y-117535299D01*
X108650000Y-117484864D01*
X108650000Y-115999994D01*
X109694357Y-115999994D01*
X109694357Y-116000005D01*
X109714890Y-116247812D01*
X109714892Y-116247824D01*
X109775936Y-116488881D01*
X109875826Y-116716606D01*
X110011833Y-116924782D01*
X110011836Y-116924785D01*
X110180256Y-117107738D01*
X110376491Y-117260474D01*
X110595190Y-117378828D01*
X110830386Y-117459571D01*
X111075665Y-117500500D01*
X111324335Y-117500500D01*
X111569614Y-117459571D01*
X111804810Y-117378828D01*
X112023509Y-117260474D01*
X112219744Y-117107738D01*
X112388164Y-116924785D01*
X112524173Y-116716607D01*
X112624063Y-116488881D01*
X112685108Y-116247821D01*
X112685109Y-116247812D01*
X112705643Y-116000005D01*
X112705643Y-115999994D01*
X179794357Y-115999994D01*
X179794357Y-116000005D01*
X179814890Y-116247812D01*
X179814892Y-116247824D01*
X179875936Y-116488881D01*
X179975826Y-116716606D01*
X180111833Y-116924782D01*
X180111836Y-116924785D01*
X180280256Y-117107738D01*
X180476491Y-117260474D01*
X180695190Y-117378828D01*
X180930386Y-117459571D01*
X181175665Y-117500500D01*
X181424335Y-117500500D01*
X181669614Y-117459571D01*
X181904810Y-117378828D01*
X182123509Y-117260474D01*
X182319744Y-117107738D01*
X182488164Y-116924785D01*
X182624173Y-116716607D01*
X182724063Y-116488881D01*
X182785108Y-116247821D01*
X182785109Y-116247812D01*
X182805643Y-116000005D01*
X182805643Y-115999994D01*
X182785109Y-115752187D01*
X182785107Y-115752175D01*
X182724063Y-115511118D01*
X182624173Y-115283393D01*
X182488166Y-115075217D01*
X182466557Y-115051744D01*
X182319744Y-114892262D01*
X182123509Y-114739526D01*
X182123507Y-114739525D01*
X182123506Y-114739524D01*
X181904811Y-114621172D01*
X181904802Y-114621169D01*
X181669616Y-114540429D01*
X181424335Y-114499500D01*
X181175665Y-114499500D01*
X180930383Y-114540429D01*
X180695197Y-114621169D01*
X180695188Y-114621172D01*
X180476493Y-114739524D01*
X180280257Y-114892261D01*
X180111833Y-115075217D01*
X179975826Y-115283393D01*
X179875936Y-115511118D01*
X179814892Y-115752175D01*
X179814890Y-115752187D01*
X179794357Y-115999994D01*
X112705643Y-115999994D01*
X112685109Y-115752187D01*
X112685107Y-115752175D01*
X112624063Y-115511118D01*
X112524173Y-115283393D01*
X112388166Y-115075217D01*
X112366557Y-115051744D01*
X112219744Y-114892262D01*
X112023509Y-114739526D01*
X112023507Y-114739525D01*
X112023506Y-114739524D01*
X111804811Y-114621172D01*
X111804802Y-114621169D01*
X111569616Y-114540429D01*
X111324335Y-114499500D01*
X111075665Y-114499500D01*
X110830383Y-114540429D01*
X110595197Y-114621169D01*
X110595188Y-114621172D01*
X110376493Y-114739524D01*
X110180257Y-114892261D01*
X110011833Y-115075217D01*
X109875826Y-115283393D01*
X109775936Y-115511118D01*
X109714892Y-115752175D01*
X109714890Y-115752187D01*
X109694357Y-115999994D01*
X108650000Y-115999994D01*
X108650000Y-115850000D01*
X106705576Y-115850000D01*
X106667259Y-115843931D01*
X106555404Y-115807587D01*
X106555401Y-115807586D01*
X106555400Y-115807586D01*
X106555399Y-115807585D01*
X106259667Y-115744726D01*
X106217020Y-115735661D01*
X105872972Y-115699500D01*
X105527028Y-115699500D01*
X105182980Y-115735661D01*
X105182975Y-115735661D01*
X105182975Y-115735662D01*
X104844600Y-115807585D01*
X104844599Y-115807586D01*
X104844596Y-115807587D01*
X104732740Y-115843931D01*
X104694424Y-115850000D01*
X102750000Y-115850000D01*
X102750000Y-117484864D01*
X102739280Y-117535299D01*
X102633165Y-117773638D01*
X102623611Y-117795099D01*
X102614487Y-117815591D01*
X102507586Y-118144599D01*
X102507585Y-118144600D01*
X102453026Y-118401281D01*
X102419833Y-118462763D01*
X102358670Y-118496539D01*
X102331736Y-118499500D01*
X97750862Y-118499500D01*
X97683823Y-118479815D01*
X97663181Y-118463181D01*
X82286819Y-103086819D01*
X82253334Y-103025496D01*
X82250500Y-102999138D01*
X82250500Y-81999994D01*
X83244357Y-81999994D01*
X83244357Y-82000005D01*
X83264890Y-82247812D01*
X83264892Y-82247824D01*
X83325936Y-82488881D01*
X83425826Y-82716606D01*
X83561833Y-82924782D01*
X83561836Y-82924785D01*
X83730256Y-83107738D01*
X83926491Y-83260474D01*
X84145190Y-83378828D01*
X84380386Y-83459571D01*
X84625665Y-83500500D01*
X84874335Y-83500500D01*
X85119614Y-83459571D01*
X85354810Y-83378828D01*
X85573509Y-83260474D01*
X85769744Y-83107738D01*
X85938164Y-82924785D01*
X86074173Y-82716607D01*
X86174063Y-82488881D01*
X86235108Y-82247821D01*
X86235109Y-82247812D01*
X86255643Y-82000005D01*
X86255643Y-81999994D01*
X86235109Y-81752187D01*
X86235107Y-81752175D01*
X86174063Y-81511118D01*
X86074173Y-81283393D01*
X85938166Y-81075217D01*
X85916557Y-81051744D01*
X85769744Y-80892262D01*
X85573509Y-80739526D01*
X85573507Y-80739525D01*
X85573506Y-80739524D01*
X85354811Y-80621172D01*
X85354802Y-80621169D01*
X85119616Y-80540429D01*
X84874335Y-80499500D01*
X84625665Y-80499500D01*
X84380383Y-80540429D01*
X84145197Y-80621169D01*
X84145188Y-80621172D01*
X83926493Y-80739524D01*
X83730257Y-80892261D01*
X83561833Y-81075217D01*
X83425826Y-81283393D01*
X83325936Y-81511118D01*
X83264892Y-81752175D01*
X83264890Y-81752187D01*
X83244357Y-81999994D01*
X82250500Y-81999994D01*
X82250500Y-79274500D01*
X82270185Y-79207461D01*
X82322989Y-79161706D01*
X82374500Y-79150500D01*
X103491324Y-79150500D01*
X103558363Y-79170185D01*
G37*
%TD.AperFunction*%
%TA.AperFunction,Conductor*%
G36*
X149340773Y-101890991D02*
G01*
X149388384Y-101942128D01*
X149392061Y-101950181D01*
X149424138Y-102027623D01*
X149424139Y-102027625D01*
X149512380Y-102142623D01*
X149518126Y-102148369D01*
X149515574Y-102150920D01*
X149547091Y-102193873D01*
X149554500Y-102236092D01*
X149554500Y-102491144D01*
X149560950Y-102515213D01*
X149578386Y-102580287D01*
X149578387Y-102580290D01*
X149624527Y-102660208D01*
X149624531Y-102660213D01*
X151212137Y-104247819D01*
X151245622Y-104309142D01*
X151240638Y-104378834D01*
X151198766Y-104434767D01*
X151133302Y-104459184D01*
X151124456Y-104459500D01*
X139340859Y-104459500D01*
X139273820Y-104439815D01*
X139253178Y-104423181D01*
X138742178Y-103912181D01*
X138708693Y-103850858D01*
X138713677Y-103781166D01*
X138755549Y-103725233D01*
X138821013Y-103700816D01*
X138829859Y-103700500D01*
X148196142Y-103700500D01*
X148196144Y-103700500D01*
X148285288Y-103676614D01*
X148292210Y-103672617D01*
X148292218Y-103672615D01*
X148292217Y-103672613D01*
X148365212Y-103630470D01*
X148930470Y-103065212D01*
X148976614Y-102985288D01*
X149000500Y-102896144D01*
X149000500Y-102803856D01*
X149000500Y-102236092D01*
X149020185Y-102169053D01*
X149038114Y-102149609D01*
X149036874Y-102148369D01*
X149042619Y-102142623D01*
X149042621Y-102142621D01*
X149130861Y-102027625D01*
X149162939Y-101950181D01*
X149206779Y-101895777D01*
X149273073Y-101873712D01*
X149340773Y-101890991D01*
G37*
%TD.AperFunction*%
%TA.AperFunction,Conductor*%
G36*
X159520495Y-98420185D02*
G01*
X159541137Y-98436819D01*
X159633181Y-98528863D01*
X159666666Y-98590186D01*
X159669500Y-98616544D01*
X159669500Y-98682745D01*
X159649815Y-98749784D01*
X159633181Y-98770426D01*
X159541954Y-98861652D01*
X159541949Y-98861659D01*
X159495483Y-98952852D01*
X159447508Y-99003648D01*
X159379687Y-99020442D01*
X159313552Y-98997904D01*
X159274516Y-98952852D01*
X159228050Y-98861658D01*
X159228047Y-98861655D01*
X159228045Y-98861652D01*
X159138347Y-98771954D01*
X159138344Y-98771952D01*
X159138342Y-98771950D01*
X159044063Y-98723912D01*
X159025301Y-98714352D01*
X158931524Y-98699500D01*
X158568482Y-98699500D01*
X158487519Y-98712323D01*
X158474696Y-98714354D01*
X158361658Y-98771950D01*
X158361657Y-98771951D01*
X158361652Y-98771954D01*
X158271954Y-98861652D01*
X158271951Y-98861657D01*
X158271950Y-98861658D01*
X158266428Y-98872496D01*
X158214352Y-98974698D01*
X158199500Y-99068475D01*
X158199500Y-100781517D01*
X158206632Y-100826544D01*
X158214354Y-100875304D01*
X158271950Y-100988342D01*
X158361658Y-101078050D01*
X158361660Y-101078051D01*
X158363181Y-101079572D01*
X158396666Y-101140895D01*
X158399500Y-101167254D01*
X158399500Y-101263908D01*
X158379815Y-101330947D01*
X158361913Y-101350412D01*
X158363129Y-101351628D01*
X158357384Y-101357372D01*
X158269137Y-101472377D01*
X158213671Y-101606287D01*
X158213670Y-101606291D01*
X158195258Y-101746145D01*
X158194750Y-101750000D01*
X158213331Y-101891137D01*
X158213670Y-101893708D01*
X158213671Y-101893712D01*
X158269137Y-102027622D01*
X158269138Y-102027623D01*
X158269139Y-102027625D01*
X158357379Y-102142621D01*
X158467507Y-102227125D01*
X158508708Y-102283552D01*
X158512863Y-102353298D01*
X158478650Y-102414219D01*
X158416933Y-102446971D01*
X158392019Y-102449500D01*
X154808676Y-102449500D01*
X154741637Y-102429815D01*
X154720995Y-102413181D01*
X154386819Y-102079005D01*
X154353334Y-102017682D01*
X154350500Y-101991324D01*
X154350500Y-100104875D01*
X154359939Y-100057422D01*
X154361582Y-100053456D01*
X154386330Y-99993709D01*
X154405250Y-99850000D01*
X154386330Y-99706291D01*
X154330861Y-99572375D01*
X154242621Y-99457379D01*
X154127625Y-99369139D01*
X154127624Y-99369138D01*
X154127622Y-99369137D01*
X153993712Y-99313671D01*
X153993710Y-99313670D01*
X153993709Y-99313670D01*
X153921854Y-99304210D01*
X153850001Y-99294750D01*
X153849999Y-99294750D01*
X153706293Y-99313669D01*
X153689912Y-99320453D01*
X153642572Y-99340062D01*
X153595124Y-99349500D01*
X153119499Y-99349500D01*
X153052460Y-99329815D01*
X153006705Y-99277011D01*
X152995499Y-99225500D01*
X152995499Y-99043482D01*
X152988613Y-99000003D01*
X152980646Y-98949696D01*
X152923050Y-98836658D01*
X152923046Y-98836654D01*
X152923045Y-98836652D01*
X152833347Y-98746954D01*
X152833344Y-98746952D01*
X152833342Y-98746950D01*
X152738953Y-98698856D01*
X152720301Y-98689352D01*
X152626524Y-98674500D01*
X152263482Y-98674500D01*
X152182519Y-98687323D01*
X152169696Y-98689354D01*
X152056658Y-98746950D01*
X152056657Y-98746951D01*
X152056652Y-98746954D01*
X151966954Y-98836652D01*
X151966949Y-98836659D01*
X151920203Y-98928401D01*
X151872228Y-98979197D01*
X151804407Y-98995991D01*
X151738272Y-98973453D01*
X151699234Y-98928400D01*
X151652639Y-98836954D01*
X151652636Y-98836949D01*
X151563050Y-98747363D01*
X151563046Y-98747360D01*
X151450144Y-98689833D01*
X151356486Y-98675000D01*
X151300000Y-98675000D01*
X151300000Y-101124999D01*
X151356479Y-101124999D01*
X151450149Y-101110164D01*
X151450155Y-101110162D01*
X151563041Y-101052643D01*
X151563050Y-101052636D01*
X151652636Y-100963050D01*
X151652641Y-100963044D01*
X151699234Y-100871599D01*
X151747208Y-100820803D01*
X151815029Y-100804007D01*
X151881164Y-100826544D01*
X151920203Y-100871598D01*
X151966947Y-100963338D01*
X151966954Y-100963347D01*
X152056652Y-101053045D01*
X152056654Y-101053046D01*
X152056658Y-101053050D01*
X152168746Y-101110162D01*
X152169698Y-101110647D01*
X152257116Y-101124491D01*
X152260311Y-101124998D01*
X152263475Y-101125499D01*
X152263481Y-101125500D01*
X152626518Y-101125499D01*
X152720304Y-101110646D01*
X152833342Y-101053050D01*
X152923050Y-100963342D01*
X152980646Y-100850304D01*
X152980646Y-100850302D01*
X152980647Y-100850301D01*
X152995500Y-100756524D01*
X152995500Y-100474500D01*
X153015185Y-100407461D01*
X153067989Y-100361706D01*
X153119500Y-100350500D01*
X153225500Y-100350500D01*
X153292539Y-100370185D01*
X153338294Y-100422989D01*
X153349500Y-100474500D01*
X153349500Y-102184108D01*
X153349500Y-102315892D01*
X153354925Y-102336137D01*
X153383608Y-102443187D01*
X153385793Y-102446971D01*
X153449500Y-102557314D01*
X154149500Y-103257314D01*
X154242686Y-103350500D01*
X154353899Y-103414709D01*
X154353900Y-103414710D01*
X154355681Y-103415738D01*
X154356814Y-103416392D01*
X154484107Y-103450500D01*
X154484108Y-103450500D01*
X159395124Y-103450500D01*
X159442572Y-103459937D01*
X159506291Y-103486330D01*
X159602097Y-103498943D01*
X159649999Y-103505250D01*
X159650000Y-103505250D01*
X159650001Y-103505250D01*
X159664977Y-103503278D01*
X159793709Y-103486330D01*
X159927625Y-103430861D01*
X160042621Y-103342621D01*
X160130861Y-103227625D01*
X160186330Y-103093709D01*
X160205250Y-102950000D01*
X160186330Y-102806291D01*
X160130861Y-102672375D01*
X160042621Y-102557379D01*
X159927625Y-102469139D01*
X159927624Y-102469138D01*
X159927622Y-102469137D01*
X159793712Y-102413671D01*
X159793710Y-102413670D01*
X159793709Y-102413670D01*
X159721854Y-102404210D01*
X159650001Y-102394750D01*
X159649999Y-102394750D01*
X159506293Y-102413669D01*
X159489912Y-102420453D01*
X159442572Y-102440062D01*
X159395124Y-102449500D01*
X159107981Y-102449500D01*
X159040942Y-102429815D01*
X158995187Y-102377011D01*
X158985243Y-102307853D01*
X159014268Y-102244297D01*
X159032489Y-102227128D01*
X159142621Y-102142621D01*
X159230861Y-102027625D01*
X159286330Y-101893709D01*
X159305250Y-101750000D01*
X159304742Y-101746145D01*
X159290495Y-101637930D01*
X159286330Y-101606291D01*
X159230861Y-101472375D01*
X159142621Y-101357379D01*
X159142619Y-101357377D01*
X159142615Y-101357372D01*
X159136871Y-101351628D01*
X159139387Y-101349111D01*
X159107797Y-101305817D01*
X159100500Y-101263908D01*
X159100500Y-101167254D01*
X159120185Y-101100215D01*
X159136819Y-101079572D01*
X159138339Y-101078051D01*
X159138342Y-101078050D01*
X159228050Y-100988342D01*
X159274516Y-100897145D01*
X159322490Y-100846352D01*
X159390311Y-100829557D01*
X159456445Y-100852094D01*
X159495482Y-100897145D01*
X159541948Y-100988338D01*
X159541951Y-100988343D01*
X159541954Y-100988347D01*
X159631652Y-101078045D01*
X159631654Y-101078046D01*
X159631658Y-101078050D01*
X159743746Y-101135162D01*
X159744698Y-101135647D01*
X159832116Y-101149491D01*
X159835311Y-101149998D01*
X159838475Y-101150499D01*
X159838481Y-101150500D01*
X160201518Y-101150499D01*
X160295304Y-101135646D01*
X160408342Y-101078050D01*
X160498050Y-100988342D01*
X160544796Y-100896597D01*
X160592770Y-100845803D01*
X160660591Y-100829008D01*
X160726726Y-100851546D01*
X160765765Y-100896599D01*
X160812360Y-100988045D01*
X160812363Y-100988050D01*
X160901949Y-101077636D01*
X160901953Y-101077639D01*
X161014855Y-101135166D01*
X161108514Y-101149999D01*
X161164999Y-101149998D01*
X161165000Y-101149998D01*
X161165000Y-99924000D01*
X161184685Y-99856961D01*
X161237489Y-99811206D01*
X161289000Y-99800000D01*
X161291000Y-99800000D01*
X161358039Y-99819685D01*
X161403794Y-99872489D01*
X161415000Y-99924000D01*
X161415000Y-101149999D01*
X161471479Y-101149999D01*
X161565149Y-101135164D01*
X161565155Y-101135162D01*
X161678041Y-101077643D01*
X161678050Y-101077636D01*
X161767636Y-100988050D01*
X161767641Y-100988044D01*
X161814234Y-100896599D01*
X161862208Y-100845803D01*
X161930029Y-100829007D01*
X161996164Y-100851544D01*
X162035203Y-100896598D01*
X162081947Y-100988338D01*
X162081949Y-100988341D01*
X162081950Y-100988342D01*
X162171658Y-101078050D01*
X162171660Y-101078051D01*
X162173181Y-101079572D01*
X162206666Y-101140895D01*
X162209500Y-101167254D01*
X162209500Y-101256235D01*
X162189815Y-101323274D01*
X162160991Y-101354607D01*
X162157381Y-101357376D01*
X162069137Y-101472377D01*
X162013671Y-101606287D01*
X162013670Y-101606291D01*
X161995258Y-101746145D01*
X161994750Y-101750000D01*
X162013331Y-101891137D01*
X162013670Y-101893708D01*
X162013671Y-101893712D01*
X162069137Y-102027622D01*
X162069138Y-102027623D01*
X162069139Y-102027625D01*
X162157379Y-102142621D01*
X162272375Y-102230861D01*
X162406291Y-102286330D01*
X162533280Y-102303048D01*
X162549999Y-102305250D01*
X162550000Y-102305250D01*
X162550001Y-102305250D01*
X162564977Y-102303278D01*
X162693709Y-102286330D01*
X162827625Y-102230861D01*
X162942621Y-102142621D01*
X163030861Y-102027625D01*
X163085439Y-101895859D01*
X163129279Y-101841456D01*
X163195573Y-101819391D01*
X163263273Y-101836670D01*
X163310884Y-101887807D01*
X163314561Y-101895860D01*
X163369138Y-102027623D01*
X163369139Y-102027625D01*
X163457380Y-102142623D01*
X163463126Y-102148369D01*
X163460574Y-102150920D01*
X163492091Y-102193873D01*
X163499500Y-102236092D01*
X163499500Y-102346143D01*
X163519630Y-102421272D01*
X163523385Y-102435284D01*
X163523387Y-102435290D01*
X163569527Y-102515208D01*
X163569529Y-102515211D01*
X163569530Y-102515212D01*
X164084788Y-103030470D01*
X164145514Y-103065530D01*
X164145516Y-103065531D01*
X164164709Y-103076613D01*
X164164711Y-103076613D01*
X164164712Y-103076614D01*
X164253856Y-103100500D01*
X177176309Y-103100500D01*
X177243348Y-103120185D01*
X177289103Y-103172989D01*
X177299047Y-103242147D01*
X177274685Y-103299986D01*
X177219139Y-103372374D01*
X177219138Y-103372376D01*
X177163671Y-103506287D01*
X177163670Y-103506291D01*
X177144750Y-103650000D01*
X177144750Y-103658128D01*
X177141420Y-103658128D01*
X177132286Y-103712394D01*
X177108441Y-103745875D01*
X177041138Y-103813180D01*
X176979815Y-103846666D01*
X176953455Y-103849500D01*
X151856544Y-103849500D01*
X151789505Y-103829815D01*
X151768863Y-103813181D01*
X150291819Y-102336137D01*
X150258334Y-102274814D01*
X150255500Y-102248456D01*
X150255500Y-102236092D01*
X150275185Y-102169053D01*
X150293114Y-102149609D01*
X150291874Y-102148369D01*
X150297619Y-102142623D01*
X150297621Y-102142621D01*
X150385861Y-102027625D01*
X150441330Y-101893709D01*
X150460250Y-101750000D01*
X150459742Y-101746145D01*
X150445495Y-101637930D01*
X150441330Y-101606291D01*
X150385861Y-101472375D01*
X150297621Y-101357379D01*
X150297619Y-101357377D01*
X150297615Y-101357372D01*
X150291871Y-101351628D01*
X150294387Y-101349111D01*
X150262797Y-101305817D01*
X150255500Y-101263908D01*
X150255500Y-101142254D01*
X150275185Y-101075215D01*
X150291819Y-101054572D01*
X150293339Y-101053051D01*
X150293342Y-101053050D01*
X150383050Y-100963342D01*
X150429796Y-100871597D01*
X150477770Y-100820803D01*
X150545591Y-100804008D01*
X150611726Y-100826546D01*
X150650765Y-100871599D01*
X150697360Y-100963045D01*
X150697363Y-100963050D01*
X150786949Y-101052636D01*
X150786953Y-101052639D01*
X150899855Y-101110166D01*
X150993514Y-101124999D01*
X151049999Y-101124998D01*
X151050000Y-101124998D01*
X151050000Y-98675000D01*
X151049999Y-98674999D01*
X150993521Y-98675000D01*
X150899849Y-98689835D01*
X150899844Y-98689837D01*
X150786958Y-98747356D01*
X150786949Y-98747363D01*
X150697363Y-98836949D01*
X150697360Y-98836954D01*
X150650765Y-98928401D01*
X150602790Y-98979197D01*
X150534969Y-98995992D01*
X150468834Y-98973454D01*
X150429796Y-98928402D01*
X150383050Y-98836658D01*
X150383046Y-98836654D01*
X150383045Y-98836652D01*
X150293347Y-98746954D01*
X150293344Y-98746952D01*
X150293342Y-98746950D01*
X150198953Y-98698856D01*
X150180301Y-98689352D01*
X150086524Y-98674500D01*
X149723482Y-98674500D01*
X149642519Y-98687323D01*
X149629696Y-98689354D01*
X149516658Y-98746950D01*
X149516657Y-98746951D01*
X149516652Y-98746954D01*
X149426954Y-98836652D01*
X149426949Y-98836659D01*
X149380483Y-98927852D01*
X149332508Y-98978648D01*
X149264687Y-98995442D01*
X149198552Y-98972904D01*
X149159515Y-98927851D01*
X149113050Y-98836658D01*
X149113047Y-98836655D01*
X149113045Y-98836652D01*
X149023347Y-98746954D01*
X149023344Y-98746952D01*
X149023342Y-98746950D01*
X148928953Y-98698856D01*
X148910301Y-98689352D01*
X148816524Y-98674500D01*
X148453482Y-98674500D01*
X148372519Y-98687323D01*
X148359696Y-98689354D01*
X148246658Y-98746950D01*
X148246657Y-98746951D01*
X148246652Y-98746954D01*
X148156954Y-98836652D01*
X148156949Y-98836659D01*
X148110483Y-98927852D01*
X148062508Y-98978648D01*
X147994687Y-98995442D01*
X147928552Y-98972904D01*
X147889515Y-98927851D01*
X147843050Y-98836658D01*
X147843047Y-98836655D01*
X147843045Y-98836652D01*
X147753347Y-98746954D01*
X147753344Y-98746952D01*
X147753342Y-98746950D01*
X147658953Y-98698856D01*
X147640301Y-98689352D01*
X147546524Y-98674500D01*
X147183482Y-98674500D01*
X147102519Y-98687323D01*
X147089696Y-98689354D01*
X146976658Y-98746950D01*
X146976657Y-98746951D01*
X146976652Y-98746954D01*
X146886954Y-98836652D01*
X146886949Y-98836659D01*
X146840483Y-98927852D01*
X146792508Y-98978648D01*
X146724687Y-98995442D01*
X146658552Y-98972904D01*
X146619515Y-98927851D01*
X146573050Y-98836658D01*
X146573047Y-98836655D01*
X146573045Y-98836652D01*
X146483347Y-98746954D01*
X146483344Y-98746952D01*
X146483342Y-98746950D01*
X146388953Y-98698856D01*
X146370301Y-98689352D01*
X146276524Y-98674500D01*
X145913482Y-98674500D01*
X145832519Y-98687323D01*
X145819696Y-98689354D01*
X145706658Y-98746950D01*
X145706657Y-98746951D01*
X145706652Y-98746954D01*
X145616954Y-98836652D01*
X145616949Y-98836659D01*
X145570483Y-98927852D01*
X145522508Y-98978648D01*
X145454687Y-98995442D01*
X145388552Y-98972904D01*
X145349515Y-98927851D01*
X145303050Y-98836658D01*
X145303047Y-98836655D01*
X145303045Y-98836652D01*
X145213347Y-98746954D01*
X145213344Y-98746952D01*
X145213342Y-98746950D01*
X145118953Y-98698856D01*
X145100301Y-98689352D01*
X145006524Y-98674500D01*
X144643482Y-98674500D01*
X144562519Y-98687323D01*
X144549696Y-98689354D01*
X144436658Y-98746950D01*
X144436657Y-98746951D01*
X144436652Y-98746954D01*
X144346954Y-98836652D01*
X144346949Y-98836659D01*
X144300483Y-98927852D01*
X144252508Y-98978648D01*
X144184687Y-98995442D01*
X144118552Y-98972904D01*
X144079517Y-98927854D01*
X144048961Y-98867885D01*
X144036066Y-98799219D01*
X144062343Y-98734479D01*
X144071747Y-98723932D01*
X144358864Y-98436816D01*
X144420185Y-98403334D01*
X144446543Y-98400500D01*
X159453456Y-98400500D01*
X159520495Y-98420185D01*
G37*
%TD.AperFunction*%
%TA.AperFunction,Conductor*%
G36*
X170687652Y-98670185D02*
G01*
X170708294Y-98686819D01*
X170933338Y-98911862D01*
X170966823Y-98973185D01*
X170969657Y-98999543D01*
X170969657Y-100731986D01*
X170982928Y-100781517D01*
X170993542Y-100821128D01*
X170993544Y-100821133D01*
X171039684Y-100901051D01*
X171039688Y-100901056D01*
X172326451Y-102187819D01*
X172359936Y-102249142D01*
X172354952Y-102318834D01*
X172313080Y-102374767D01*
X172247616Y-102399184D01*
X172238770Y-102399500D01*
X165473142Y-102399500D01*
X165406103Y-102379815D01*
X165360348Y-102327011D01*
X165350404Y-102257853D01*
X165379429Y-102194297D01*
X165397655Y-102177125D01*
X165411887Y-102166204D01*
X165442621Y-102142621D01*
X165530861Y-102027625D01*
X165586330Y-101893709D01*
X165605250Y-101750000D01*
X165604742Y-101746145D01*
X165590495Y-101637930D01*
X165586330Y-101606291D01*
X165530861Y-101472375D01*
X165442621Y-101357379D01*
X165442619Y-101357377D01*
X165442615Y-101357372D01*
X165436871Y-101351628D01*
X165439387Y-101349111D01*
X165407797Y-101305817D01*
X165400500Y-101263908D01*
X165400500Y-101198795D01*
X165420185Y-101131756D01*
X165468207Y-101088309D01*
X165488342Y-101078050D01*
X165578050Y-100988342D01*
X165624516Y-100897145D01*
X165672490Y-100846352D01*
X165740311Y-100829557D01*
X165806445Y-100852094D01*
X165845482Y-100897145D01*
X165891948Y-100988338D01*
X165891951Y-100988343D01*
X165891954Y-100988347D01*
X165981652Y-101078045D01*
X165981654Y-101078046D01*
X165981658Y-101078050D01*
X166093746Y-101135162D01*
X166094698Y-101135647D01*
X166182116Y-101149491D01*
X166185311Y-101149998D01*
X166188475Y-101150499D01*
X166188481Y-101150500D01*
X166551518Y-101150499D01*
X166645304Y-101135646D01*
X166758342Y-101078050D01*
X166848050Y-100988342D01*
X166905646Y-100875304D01*
X166905646Y-100875302D01*
X166905647Y-100875301D01*
X166920500Y-100781524D01*
X166920500Y-100574500D01*
X166940185Y-100507461D01*
X166992989Y-100461706D01*
X167044500Y-100450500D01*
X167745124Y-100450500D01*
X167792572Y-100459937D01*
X167856291Y-100486330D01*
X167952097Y-100498943D01*
X167999999Y-100505250D01*
X168000000Y-100505250D01*
X168000001Y-100505250D01*
X168014977Y-100503278D01*
X168143709Y-100486330D01*
X168277625Y-100430861D01*
X168392621Y-100342621D01*
X168480861Y-100227625D01*
X168536330Y-100093709D01*
X168555250Y-99950000D01*
X168536330Y-99806291D01*
X168480861Y-99672375D01*
X168392621Y-99557379D01*
X168277625Y-99469139D01*
X168277624Y-99469138D01*
X168277622Y-99469137D01*
X168143712Y-99413671D01*
X168143710Y-99413670D01*
X168143709Y-99413670D01*
X168071854Y-99404210D01*
X168000001Y-99394750D01*
X167999999Y-99394750D01*
X167856293Y-99413669D01*
X167839912Y-99420453D01*
X167792572Y-99440062D01*
X167745124Y-99449500D01*
X167044499Y-99449500D01*
X166977460Y-99429815D01*
X166931705Y-99377011D01*
X166920499Y-99325500D01*
X166920499Y-99068482D01*
X166920498Y-99068475D01*
X166905646Y-98974696D01*
X166848050Y-98861658D01*
X166848044Y-98861652D01*
X166842311Y-98853759D01*
X166843502Y-98852893D01*
X166815089Y-98800858D01*
X166820073Y-98731166D01*
X166861945Y-98675233D01*
X166927409Y-98650816D01*
X166936255Y-98650500D01*
X170620613Y-98650500D01*
X170687652Y-98670185D01*
G37*
%TD.AperFunction*%
%TA.AperFunction,Conductor*%
G36*
X167620495Y-86320185D02*
G01*
X167641137Y-86336819D01*
X168113181Y-86808863D01*
X168146666Y-86870186D01*
X168149500Y-86896544D01*
X168149500Y-90403456D01*
X168129815Y-90470495D01*
X168113181Y-90491137D01*
X166069531Y-92534786D01*
X166069527Y-92534791D01*
X166023385Y-92614713D01*
X166023384Y-92614714D01*
X165999501Y-92703850D01*
X165999501Y-92796145D01*
X166015275Y-92855015D01*
X166019500Y-92887107D01*
X166019500Y-93732745D01*
X165999815Y-93799784D01*
X165983181Y-93820426D01*
X165891954Y-93911652D01*
X165891949Y-93911659D01*
X165845483Y-94002852D01*
X165797508Y-94053648D01*
X165729687Y-94070442D01*
X165663552Y-94047904D01*
X165624516Y-94002852D01*
X165578050Y-93911658D01*
X165578047Y-93911655D01*
X165578045Y-93911652D01*
X165488347Y-93821954D01*
X165488344Y-93821952D01*
X165488342Y-93821950D01*
X165395774Y-93774784D01*
X165375301Y-93764352D01*
X165281524Y-93749500D01*
X164918482Y-93749500D01*
X164837519Y-93762323D01*
X164824696Y-93764354D01*
X164711658Y-93821950D01*
X164711657Y-93821951D01*
X164711652Y-93821954D01*
X164621954Y-93911652D01*
X164621949Y-93911659D01*
X164575483Y-94002852D01*
X164527508Y-94053648D01*
X164459687Y-94070442D01*
X164393552Y-94047904D01*
X164354516Y-94002852D01*
X164308050Y-93911658D01*
X164308047Y-93911655D01*
X164308045Y-93911652D01*
X164216819Y-93820426D01*
X164183334Y-93759103D01*
X164180500Y-93732745D01*
X164180500Y-93251437D01*
X164200185Y-93184398D01*
X164229011Y-93153063D01*
X164242621Y-93142621D01*
X164330861Y-93027625D01*
X164386330Y-92893709D01*
X164405250Y-92750000D01*
X164386330Y-92606291D01*
X164330861Y-92472375D01*
X164242621Y-92357379D01*
X164127625Y-92269139D01*
X164127624Y-92269138D01*
X164127622Y-92269137D01*
X163993712Y-92213671D01*
X163993710Y-92213670D01*
X163993709Y-92213670D01*
X163921854Y-92204210D01*
X163850001Y-92194750D01*
X163849999Y-92194750D01*
X163706291Y-92213670D01*
X163706287Y-92213671D01*
X163572377Y-92269137D01*
X163457379Y-92357379D01*
X163369137Y-92472377D01*
X163313671Y-92606287D01*
X163313670Y-92606291D01*
X163294750Y-92749999D01*
X163294750Y-92750000D01*
X163313670Y-92893708D01*
X163313671Y-92893712D01*
X163369137Y-93027622D01*
X163369138Y-93027623D01*
X163369139Y-93027625D01*
X163453876Y-93138056D01*
X163479070Y-93203225D01*
X163479500Y-93213542D01*
X163479500Y-93732745D01*
X163459815Y-93799784D01*
X163443181Y-93820426D01*
X163351954Y-93911652D01*
X163351949Y-93911659D01*
X163305483Y-94002852D01*
X163257508Y-94053648D01*
X163189687Y-94070442D01*
X163123552Y-94047904D01*
X163084516Y-94002852D01*
X163038050Y-93911658D01*
X163038047Y-93911655D01*
X163038045Y-93911652D01*
X162948347Y-93821954D01*
X162948344Y-93821952D01*
X162948342Y-93821950D01*
X162855774Y-93774784D01*
X162835301Y-93764352D01*
X162741524Y-93749500D01*
X162378482Y-93749500D01*
X162297519Y-93762323D01*
X162284696Y-93764354D01*
X162171658Y-93821950D01*
X162171657Y-93821951D01*
X162171652Y-93821954D01*
X162081954Y-93911652D01*
X162081949Y-93911659D01*
X162035203Y-94003401D01*
X161987228Y-94054197D01*
X161919407Y-94070991D01*
X161853272Y-94048453D01*
X161814234Y-94003400D01*
X161767639Y-93911954D01*
X161767636Y-93911949D01*
X161678050Y-93822363D01*
X161678046Y-93822360D01*
X161565144Y-93764833D01*
X161471486Y-93750000D01*
X161415000Y-93750000D01*
X161415000Y-94976000D01*
X161395315Y-95043039D01*
X161342511Y-95088794D01*
X161291000Y-95100000D01*
X161289000Y-95100000D01*
X161221961Y-95080315D01*
X161176206Y-95027511D01*
X161165000Y-94976000D01*
X161165000Y-93750000D01*
X161164999Y-93749999D01*
X161108521Y-93750000D01*
X161014849Y-93764835D01*
X161014844Y-93764837D01*
X160901958Y-93822356D01*
X160901949Y-93822363D01*
X160812363Y-93911949D01*
X160812360Y-93911954D01*
X160765765Y-94003401D01*
X160717790Y-94054197D01*
X160649969Y-94070992D01*
X160583834Y-94048454D01*
X160544796Y-94003402D01*
X160498050Y-93911658D01*
X160498046Y-93911654D01*
X160498045Y-93911652D01*
X160408347Y-93821954D01*
X160408344Y-93821952D01*
X160408342Y-93821950D01*
X160315774Y-93774784D01*
X160295301Y-93764352D01*
X160201524Y-93749500D01*
X159838482Y-93749500D01*
X159757519Y-93762323D01*
X159744696Y-93764354D01*
X159631658Y-93821950D01*
X159631657Y-93821951D01*
X159631652Y-93821954D01*
X159541954Y-93911652D01*
X159541949Y-93911659D01*
X159495203Y-94003401D01*
X159447228Y-94054197D01*
X159379407Y-94070991D01*
X159313272Y-94048453D01*
X159274234Y-94003400D01*
X159227639Y-93911954D01*
X159227636Y-93911949D01*
X159138050Y-93822363D01*
X159138046Y-93822360D01*
X159025144Y-93764833D01*
X158931486Y-93750000D01*
X158875000Y-93750000D01*
X158875000Y-94976000D01*
X158855315Y-95043039D01*
X158802511Y-95088794D01*
X158751000Y-95100000D01*
X158200001Y-95100000D01*
X158200001Y-95831479D01*
X158214195Y-95921104D01*
X158205239Y-95990397D01*
X158160242Y-96043848D01*
X158093490Y-96064487D01*
X158091721Y-96064500D01*
X153111543Y-96064500D01*
X153044504Y-96044815D01*
X153023862Y-96028181D01*
X153013615Y-96017934D01*
X152980130Y-95956611D01*
X152982453Y-95910470D01*
X152979120Y-95909943D01*
X152995500Y-95806524D01*
X152995500Y-95424500D01*
X153015185Y-95357461D01*
X153067989Y-95311706D01*
X153119500Y-95300500D01*
X153263908Y-95300500D01*
X153330947Y-95320185D01*
X153350412Y-95338086D01*
X153351628Y-95336871D01*
X153357372Y-95342615D01*
X153357377Y-95342619D01*
X153357379Y-95342621D01*
X153472375Y-95430861D01*
X153606291Y-95486330D01*
X153733280Y-95503048D01*
X153749999Y-95505250D01*
X153750000Y-95505250D01*
X153750001Y-95505250D01*
X153764977Y-95503278D01*
X153893709Y-95486330D01*
X154027625Y-95430861D01*
X154142621Y-95342621D01*
X154230861Y-95227625D01*
X154286330Y-95093709D01*
X154305250Y-94950000D01*
X154286330Y-94806291D01*
X154230861Y-94672375D01*
X154142621Y-94557379D01*
X154027625Y-94469139D01*
X154027624Y-94469138D01*
X154027622Y-94469137D01*
X153893712Y-94413671D01*
X153893710Y-94413670D01*
X153893709Y-94413670D01*
X153821854Y-94404210D01*
X153750001Y-94394750D01*
X153749999Y-94394750D01*
X153606291Y-94413670D01*
X153606287Y-94413671D01*
X153472377Y-94469137D01*
X153357372Y-94557384D01*
X153351628Y-94563129D01*
X153349111Y-94560612D01*
X153305817Y-94592203D01*
X153263908Y-94599500D01*
X153119499Y-94599500D01*
X153052460Y-94579815D01*
X153006705Y-94527011D01*
X152995499Y-94475500D01*
X152995499Y-94118513D01*
X158200000Y-94118513D01*
X158200000Y-94850000D01*
X158625000Y-94850000D01*
X158625000Y-93750000D01*
X158624999Y-93749999D01*
X158568521Y-93750000D01*
X158474849Y-93764835D01*
X158474844Y-93764837D01*
X158361958Y-93822356D01*
X158361949Y-93822363D01*
X158272363Y-93911949D01*
X158272360Y-93911953D01*
X158214833Y-94024855D01*
X158200000Y-94118513D01*
X152995499Y-94118513D01*
X152995499Y-94093482D01*
X152989190Y-94053648D01*
X152980646Y-93999696D01*
X152923050Y-93886658D01*
X152923046Y-93886654D01*
X152923045Y-93886652D01*
X152833347Y-93796954D01*
X152833344Y-93796952D01*
X152833342Y-93796950D01*
X152740217Y-93749500D01*
X152720301Y-93739352D01*
X152626524Y-93724500D01*
X152263482Y-93724500D01*
X152182519Y-93737323D01*
X152169696Y-93739354D01*
X152056658Y-93796950D01*
X152056657Y-93796951D01*
X152056652Y-93796954D01*
X151966954Y-93886652D01*
X151966949Y-93886659D01*
X151920483Y-93977852D01*
X151872508Y-94028648D01*
X151804687Y-94045442D01*
X151738552Y-94022904D01*
X151699516Y-93977852D01*
X151653050Y-93886658D01*
X151653047Y-93886655D01*
X151653045Y-93886652D01*
X151561819Y-93795426D01*
X151528334Y-93734103D01*
X151525500Y-93707745D01*
X151525500Y-93574500D01*
X151545185Y-93507461D01*
X151597989Y-93461706D01*
X151649500Y-93450500D01*
X159746142Y-93450500D01*
X159746144Y-93450500D01*
X159835288Y-93426614D01*
X159842933Y-93422200D01*
X159915212Y-93380470D01*
X160508863Y-92786819D01*
X160570186Y-92753334D01*
X160596544Y-92750500D01*
X162006142Y-92750500D01*
X162006144Y-92750500D01*
X162095288Y-92726614D01*
X162116523Y-92714354D01*
X162175212Y-92680470D01*
X162464124Y-92391556D01*
X162525443Y-92358074D01*
X162551871Y-92357144D01*
X162551871Y-92355250D01*
X162560000Y-92355250D01*
X162703709Y-92336330D01*
X162837625Y-92280861D01*
X162952621Y-92192621D01*
X163040861Y-92077625D01*
X163096330Y-91943709D01*
X163115250Y-91800000D01*
X163096330Y-91656291D01*
X163040861Y-91522375D01*
X162952621Y-91407379D01*
X162952619Y-91407377D01*
X162952615Y-91407372D01*
X162946871Y-91401628D01*
X162949387Y-91399111D01*
X162917797Y-91355817D01*
X162910500Y-91313908D01*
X162910500Y-89336543D01*
X162930185Y-89269504D01*
X162946819Y-89248862D01*
X163161380Y-89034301D01*
X163380469Y-88815212D01*
X163426614Y-88735288D01*
X163438131Y-88692305D01*
X163450500Y-88646144D01*
X163450500Y-88384655D01*
X163470185Y-88317616D01*
X163508526Y-88279662D01*
X163570890Y-88240477D01*
X163647319Y-88164048D01*
X163708642Y-88130563D01*
X163778334Y-88135547D01*
X163822681Y-88164048D01*
X163899109Y-88240476D01*
X163899115Y-88240481D01*
X164042302Y-88330452D01*
X164042305Y-88330454D01*
X164042309Y-88330455D01*
X164042310Y-88330456D01*
X164088104Y-88346480D01*
X164201943Y-88386314D01*
X164369997Y-88405249D01*
X164370000Y-88405249D01*
X164370003Y-88405249D01*
X164538056Y-88386314D01*
X164542797Y-88384655D01*
X164697690Y-88330456D01*
X164697692Y-88330454D01*
X164697694Y-88330454D01*
X164697697Y-88330452D01*
X164840884Y-88240481D01*
X164840884Y-88240480D01*
X164840890Y-88240477D01*
X164917675Y-88163691D01*
X164978994Y-88130209D01*
X165048686Y-88135193D01*
X165093034Y-88163694D01*
X165169424Y-88240084D01*
X165312528Y-88330003D01*
X165472051Y-88385822D01*
X165515000Y-88390660D01*
X165515000Y-87952970D01*
X165597213Y-87975000D01*
X165682787Y-87975000D01*
X165765000Y-87952970D01*
X165765000Y-88390660D01*
X165807948Y-88385822D01*
X165967471Y-88330003D01*
X166110572Y-88240086D01*
X166186964Y-88163694D01*
X166248287Y-88130209D01*
X166317979Y-88135193D01*
X166362327Y-88163694D01*
X166439109Y-88240476D01*
X166439115Y-88240481D01*
X166582302Y-88330452D01*
X166582305Y-88330454D01*
X166582309Y-88330455D01*
X166582310Y-88330456D01*
X166628104Y-88346480D01*
X166741943Y-88386314D01*
X166909997Y-88405249D01*
X166910000Y-88405249D01*
X166910003Y-88405249D01*
X167078056Y-88386314D01*
X167082797Y-88384655D01*
X167237690Y-88330456D01*
X167237692Y-88330454D01*
X167237694Y-88330454D01*
X167237697Y-88330452D01*
X167380884Y-88240481D01*
X167380885Y-88240480D01*
X167380890Y-88240477D01*
X167500477Y-88120890D01*
X167510863Y-88104361D01*
X167590452Y-87977697D01*
X167590454Y-87977694D01*
X167590454Y-87977692D01*
X167590456Y-87977690D01*
X167646313Y-87818059D01*
X167646313Y-87818058D01*
X167646314Y-87818056D01*
X167665249Y-87650002D01*
X167665249Y-87649997D01*
X167646314Y-87481943D01*
X167595487Y-87336689D01*
X167590456Y-87322310D01*
X167590455Y-87322309D01*
X167590454Y-87322305D01*
X167590452Y-87322302D01*
X167500481Y-87179115D01*
X167500476Y-87179109D01*
X167380890Y-87059523D01*
X167380884Y-87059518D01*
X167237697Y-86969547D01*
X167237694Y-86969545D01*
X167078056Y-86913685D01*
X166910003Y-86894751D01*
X166909997Y-86894751D01*
X166741943Y-86913685D01*
X166582305Y-86969545D01*
X166582302Y-86969547D01*
X166439115Y-87059518D01*
X166362327Y-87136306D01*
X166301003Y-87169790D01*
X166231312Y-87164806D01*
X166186965Y-87136305D01*
X166110575Y-87059915D01*
X165967471Y-86969996D01*
X165807945Y-86914176D01*
X165765000Y-86909337D01*
X165765000Y-87347029D01*
X165682787Y-87325000D01*
X165597213Y-87325000D01*
X165515000Y-87347029D01*
X165515000Y-86909337D01*
X165514999Y-86909337D01*
X165472054Y-86914176D01*
X165312528Y-86969996D01*
X165169427Y-87059913D01*
X165093034Y-87136306D01*
X165031710Y-87169790D01*
X164962019Y-87164805D01*
X164917672Y-87136305D01*
X164840890Y-87059523D01*
X164840884Y-87059518D01*
X164697697Y-86969547D01*
X164697694Y-86969545D01*
X164538056Y-86913685D01*
X164370003Y-86894751D01*
X164369997Y-86894751D01*
X164201943Y-86913685D01*
X164042305Y-86969545D01*
X164042302Y-86969547D01*
X163899115Y-87059518D01*
X163899109Y-87059523D01*
X163822681Y-87135952D01*
X163761358Y-87169437D01*
X163691666Y-87164453D01*
X163647319Y-87135952D01*
X163570890Y-87059523D01*
X163570884Y-87059518D01*
X163427697Y-86969547D01*
X163427694Y-86969545D01*
X163268056Y-86913685D01*
X163100003Y-86894751D01*
X163099997Y-86894751D01*
X162931943Y-86913685D01*
X162772305Y-86969545D01*
X162772302Y-86969547D01*
X162629115Y-87059518D01*
X162629109Y-87059523D01*
X162552681Y-87135952D01*
X162491358Y-87169437D01*
X162421666Y-87164453D01*
X162377319Y-87135952D01*
X162300888Y-87059521D01*
X162300886Y-87059520D01*
X162239264Y-87020799D01*
X162192973Y-86968464D01*
X162182326Y-86899410D01*
X162210702Y-86835562D01*
X162217544Y-86828137D01*
X162708863Y-86336819D01*
X162770186Y-86303334D01*
X162796544Y-86300500D01*
X167553456Y-86300500D01*
X167620495Y-86320185D01*
G37*
%TD.AperFunction*%
%TD*%
M02*
