M48
; DRILL file {KiCad 8.0.5} date 2026-02-16T11:04:40+0000
; FORMAT={-:-/ absolute / inch / decimal}
; #@! TF.CreationDate,2026-02-16T11:04:40+00:00
; #@! TF.GenerationSoftware,Kicad,Pcbnew,8.0.5
; #@! TF.FileFunction,Plated,1,2,PTH
FMAT,2
INCH
; #@! TA.AperFunction,Plated,PTH,ViaDrill
T1C0.0118
; #@! TA.AperFunction,Plated,PTH,ComponentDrill
T2C0.0256
; #@! TA.AperFunction,Plated,PTH,ComponentDrill
T3C0.0315
; #@! TA.AperFunction,Plated,PTH,ComponentDrill
T4C0.0390
; #@! TA.AperFunction,Plated,PTH,ComponentDrill
T5C0.0512
%
G90
G05
T1
X3.315Y-3.4173
X3.315Y-3.8583
X3.4409Y-4.1339
X3.5118Y-3.2047
X3.5748Y-3.4567
X3.7244Y-4.2598
X3.8346Y-4.5433
X3.8661Y-3.7244
X3.9528Y-3.1969
X4.1417Y-3.3071
X4.1496Y-4.2992
X4.3228Y-3.5118
X4.3937Y-4.2047
X4.5039Y-3.937
X4.5433Y-4.6063
X4.6378Y-4.3937
X4.8031Y-3.7244
X4.8425Y-3.9291
X4.8976Y-4.2047
X4.8976Y-4.6063
X4.9685Y-3.4331
X5.1181Y-3.6063
X5.2756Y-4.6063
X5.3248Y-3.9291
X5.378Y-3.4252
X5.4882Y-4.4016
X5.5354Y-3.7008
X5.5374Y-4.6063
X5.5512Y-4.0984
X5.5512Y-4.2461
X5.5669Y-3.9843
X5.7018Y-4.0049
X5.752Y-3.6654
X5.752Y-4.0059
X5.8012Y-4.0059
X5.8012Y-4.2185
X5.8018Y-3.6654
X5.8504Y-3.6654
X5.8524Y-4.0059
X5.8819Y-4.0945
X5.9016Y-3.6654
X5.9018Y-4.0059
X5.9921Y-4.0315
X6.0059Y-4.2461
X6.0531Y-3.7382
X6.0551Y-4.6063
X6.0571Y-3.9311
X6.0667Y-4.1264
X6.0787Y-4.3858
X6.09Y-4.1492
X6.1024Y-3.378
X6.1141Y-4.172
X6.1181Y-4.0
X6.128Y-3.5866
X6.1358Y-4.1949
X6.1417Y-3.6969
X6.1594Y-3.5059
X6.25Y-4.0059
X6.2854Y-4.0531
X6.2913Y-3.5591
X6.3504Y-3.6772
X6.3504Y-4.0039
X6.3996Y-4.0059
X6.4Y-3.6142
X6.4508Y-3.6516
X6.4508Y-3.8472
X6.4508Y-4.0059
X6.4528Y-3.5217
X6.4862Y-3.6122
X6.498Y-4.0059
X6.5039Y-4.6063
X6.5571Y-4.0059
X6.6142Y-3.7953
X6.6142Y-3.935
X6.6831Y-3.7776
X6.7087Y-4.1496
X6.8583Y-3.8976
X6.9055Y-4.372
X6.937Y-4.6063
X6.9961Y-4.0807
X7.0866Y-3.5433
X7.1024Y-4.1496
X7.2283Y-3.4016
X7.2835Y-4.4882
X7.4409Y-3.1732
X7.5118Y-3.6535
X7.5118Y-3.9449
X7.5433Y-4.6063
X7.7953Y-3.1732
X7.8031Y-3.6535
X7.8031Y-3.9449
X7.874Y-4.3543
X8.0472Y-3.1732
X8.1073Y-4.1014
X8.2126Y-3.3228
X8.2126Y-3.5354
T2
X6.1713Y-3.4508
X6.2213Y-3.4508
X6.2713Y-3.4508
X6.3213Y-3.4508
X6.3713Y-3.4508
X6.4213Y-3.4508
X6.4713Y-3.4508
X6.5213Y-3.4508
X6.5713Y-3.4508
T3
X6.6947Y-3.6358
X6.7734Y-3.6358
T4
X4.5539Y-3.5209
X4.6791Y-3.3957
X6.8366Y-3.3957
X6.9619Y-3.5209
T5
X4.5881Y-3.6253
X4.7833Y-3.4302
X6.7322Y-3.4299
X6.9274Y-3.6251
M30
