%TF.GenerationSoftware,KiCad,Pcbnew,8.0.5*%
%TF.CreationDate,2026-02-16T11:04:40+00:00*%
%TF.ProjectId,CD32 pad,43443332-2070-4616-942e-6b696361645f,rev?*%
%TF.SameCoordinates,Original*%
%TF.FileFunction,Soldermask,Bot*%
%TF.FilePolarity,Negative*%
%FSLAX46Y46*%
G04 Gerber Fmt 4.6, Leading zero omitted, Abs format (unit mm)*
G04 Created by KiCad (PCBNEW 8.0.5) date 2026-02-16 11:04:40*
%MOMM*%
%LPD*%
G01*
G04 APERTURE LIST*
G04 Aperture macros list*
%AMRoundRect*
0 Rectangle with rounded corners*
0 $1 Rounding radius*
0 $2 $3 $4 $5 $6 $7 $8 $9 X,Y pos of 4 corners*
0 Add a 4 corners polygon primitive as box body*
4,1,4,$2,$3,$4,$5,$6,$7,$8,$9,$2,$3,0*
0 Add four circle primitives for the rounded corners*
1,1,$1+$1,$2,$3*
1,1,$1+$1,$4,$5*
1,1,$1+$1,$6,$7*
1,1,$1+$1,$8,$9*
0 Add four rect primitives between the rounded corners*
20,1,$1+$1,$2,$3,$4,$5,0*
20,1,$1+$1,$4,$5,$6,$7,0*
20,1,$1+$1,$6,$7,$8,$9,0*
20,1,$1+$1,$8,$9,$2,$3,0*%
G04 Aperture macros list end*
%ADD10R,1.000000X1.000000*%
%ADD11O,1.000000X1.000000*%
%ADD12R,1.600000X1.600000*%
%ADD13C,1.600000*%
%ADD14C,2.100000*%
%ADD15C,1.750000*%
%ADD16RoundRect,0.155000X0.212500X0.155000X-0.212500X0.155000X-0.212500X-0.155000X0.212500X-0.155000X0*%
%ADD17RoundRect,0.160000X-0.197500X-0.160000X0.197500X-0.160000X0.197500X0.160000X-0.197500X0.160000X0*%
%ADD18RoundRect,0.160000X0.197500X0.160000X-0.197500X0.160000X-0.197500X-0.160000X0.197500X-0.160000X0*%
%ADD19RoundRect,0.155000X-0.212500X-0.155000X0.212500X-0.155000X0.212500X0.155000X-0.212500X0.155000X0*%
%ADD20R,0.320000X0.500000*%
G04 APERTURE END LIST*
D10*
%TO.C,J1*%
X156750000Y-87650000D03*
D11*
X158020000Y-87650000D03*
X159290000Y-87650000D03*
X160560000Y-87650000D03*
X161830000Y-87650000D03*
X163100000Y-87650000D03*
X164370000Y-87650000D03*
X165640000Y-87650000D03*
X166910000Y-87650000D03*
%TD*%
D12*
%TO.C,C2*%
X170044888Y-92350000D03*
D13*
X172044888Y-92350000D03*
%TD*%
D14*
%TO.C,SW9*%
X175955169Y-92076560D03*
X170998350Y-87119742D03*
D15*
X176831981Y-89431981D03*
X173650000Y-86250000D03*
%TD*%
D14*
%TO.C,SW10*%
X121494579Y-87126812D03*
X116537761Y-92083631D03*
D15*
X118850000Y-86250000D03*
X115668019Y-89431981D03*
%TD*%
D16*
%TO.C,C1*%
X156017500Y-94950000D03*
X154882500Y-94950000D03*
%TD*%
D17*
%TO.C,R15*%
X143655000Y-102950000D03*
X144850000Y-102950000D03*
%TD*%
D18*
%TO.C,R1*%
X166247500Y-102950000D03*
X165052500Y-102950000D03*
%TD*%
D16*
%TO.C,C4*%
X156017500Y-99850000D03*
X154882500Y-99850000D03*
%TD*%
D18*
%TO.C,R11*%
X156047500Y-96450000D03*
X154852500Y-96450000D03*
%TD*%
D16*
%TO.C,FB1*%
X166850000Y-90750000D03*
X165715000Y-90750000D03*
%TD*%
D19*
%TO.C,C5*%
X169050000Y-99950000D03*
X170185000Y-99950000D03*
%TD*%
D17*
%TO.C,R10*%
X161355000Y-102950000D03*
X162550000Y-102950000D03*
%TD*%
D20*
%TO.C,RP1*%
X148800000Y-95450000D03*
X148300000Y-95450000D03*
X147800000Y-95450000D03*
X147300000Y-95450000D03*
X147300000Y-94450000D03*
X147800000Y-94450000D03*
X148300000Y-94450000D03*
X148800000Y-94450000D03*
%TD*%
%TO.C,RP2*%
X147250000Y-99400000D03*
X147750000Y-99400000D03*
X148250000Y-99400000D03*
X148750000Y-99400000D03*
X148750000Y-100400000D03*
X148250000Y-100400000D03*
X147750000Y-100400000D03*
X147250000Y-100400000D03*
%TD*%
D16*
%TO.C,C3*%
X166850000Y-89450000D03*
X165715000Y-89450000D03*
%TD*%
M02*
